G75*
%MOIN*%
%OFA0B0*%
%FSLAX25Y25*%
%IPPOS*%
%LPD*%
%AMOC8*
5,1,8,0,0,1.08239X$1,22.5*
%
%ADD10C,0.00800*%
%ADD11C,0.00000*%
D10*
X0153333Y0045000D02*
X0153333Y0145000D01*
X0253333Y0145000D01*
X0253333Y0045000D01*
X0153333Y0045000D01*
D11*
X0156833Y0055000D02*
X0156835Y0055161D01*
X0156841Y0055321D01*
X0156851Y0055482D01*
X0156865Y0055642D01*
X0156883Y0055802D01*
X0156904Y0055961D01*
X0156930Y0056120D01*
X0156960Y0056278D01*
X0156993Y0056435D01*
X0157031Y0056592D01*
X0157072Y0056747D01*
X0157117Y0056901D01*
X0157166Y0057054D01*
X0157219Y0057206D01*
X0157275Y0057357D01*
X0157336Y0057506D01*
X0157399Y0057654D01*
X0157467Y0057800D01*
X0157538Y0057944D01*
X0157612Y0058086D01*
X0157690Y0058227D01*
X0157772Y0058365D01*
X0157857Y0058502D01*
X0157945Y0058636D01*
X0158037Y0058768D01*
X0158132Y0058898D01*
X0158230Y0059026D01*
X0158331Y0059151D01*
X0158435Y0059273D01*
X0158542Y0059393D01*
X0158652Y0059510D01*
X0158765Y0059625D01*
X0158881Y0059736D01*
X0159000Y0059845D01*
X0159121Y0059950D01*
X0159245Y0060053D01*
X0159371Y0060153D01*
X0159499Y0060249D01*
X0159630Y0060342D01*
X0159764Y0060432D01*
X0159899Y0060519D01*
X0160037Y0060602D01*
X0160176Y0060682D01*
X0160318Y0060758D01*
X0160461Y0060831D01*
X0160606Y0060900D01*
X0160753Y0060966D01*
X0160901Y0061028D01*
X0161051Y0061086D01*
X0161202Y0061141D01*
X0161355Y0061192D01*
X0161509Y0061239D01*
X0161664Y0061282D01*
X0161820Y0061321D01*
X0161976Y0061357D01*
X0162134Y0061388D01*
X0162292Y0061416D01*
X0162451Y0061440D01*
X0162611Y0061460D01*
X0162771Y0061476D01*
X0162931Y0061488D01*
X0163092Y0061496D01*
X0163253Y0061500D01*
X0163413Y0061500D01*
X0163574Y0061496D01*
X0163735Y0061488D01*
X0163895Y0061476D01*
X0164055Y0061460D01*
X0164215Y0061440D01*
X0164374Y0061416D01*
X0164532Y0061388D01*
X0164690Y0061357D01*
X0164846Y0061321D01*
X0165002Y0061282D01*
X0165157Y0061239D01*
X0165311Y0061192D01*
X0165464Y0061141D01*
X0165615Y0061086D01*
X0165765Y0061028D01*
X0165913Y0060966D01*
X0166060Y0060900D01*
X0166205Y0060831D01*
X0166348Y0060758D01*
X0166490Y0060682D01*
X0166629Y0060602D01*
X0166767Y0060519D01*
X0166902Y0060432D01*
X0167036Y0060342D01*
X0167167Y0060249D01*
X0167295Y0060153D01*
X0167421Y0060053D01*
X0167545Y0059950D01*
X0167666Y0059845D01*
X0167785Y0059736D01*
X0167901Y0059625D01*
X0168014Y0059510D01*
X0168124Y0059393D01*
X0168231Y0059273D01*
X0168335Y0059151D01*
X0168436Y0059026D01*
X0168534Y0058898D01*
X0168629Y0058768D01*
X0168721Y0058636D01*
X0168809Y0058502D01*
X0168894Y0058365D01*
X0168976Y0058227D01*
X0169054Y0058086D01*
X0169128Y0057944D01*
X0169199Y0057800D01*
X0169267Y0057654D01*
X0169330Y0057506D01*
X0169391Y0057357D01*
X0169447Y0057206D01*
X0169500Y0057054D01*
X0169549Y0056901D01*
X0169594Y0056747D01*
X0169635Y0056592D01*
X0169673Y0056435D01*
X0169706Y0056278D01*
X0169736Y0056120D01*
X0169762Y0055961D01*
X0169783Y0055802D01*
X0169801Y0055642D01*
X0169815Y0055482D01*
X0169825Y0055321D01*
X0169831Y0055161D01*
X0169833Y0055000D01*
X0169831Y0054839D01*
X0169825Y0054679D01*
X0169815Y0054518D01*
X0169801Y0054358D01*
X0169783Y0054198D01*
X0169762Y0054039D01*
X0169736Y0053880D01*
X0169706Y0053722D01*
X0169673Y0053565D01*
X0169635Y0053408D01*
X0169594Y0053253D01*
X0169549Y0053099D01*
X0169500Y0052946D01*
X0169447Y0052794D01*
X0169391Y0052643D01*
X0169330Y0052494D01*
X0169267Y0052346D01*
X0169199Y0052200D01*
X0169128Y0052056D01*
X0169054Y0051914D01*
X0168976Y0051773D01*
X0168894Y0051635D01*
X0168809Y0051498D01*
X0168721Y0051364D01*
X0168629Y0051232D01*
X0168534Y0051102D01*
X0168436Y0050974D01*
X0168335Y0050849D01*
X0168231Y0050727D01*
X0168124Y0050607D01*
X0168014Y0050490D01*
X0167901Y0050375D01*
X0167785Y0050264D01*
X0167666Y0050155D01*
X0167545Y0050050D01*
X0167421Y0049947D01*
X0167295Y0049847D01*
X0167167Y0049751D01*
X0167036Y0049658D01*
X0166902Y0049568D01*
X0166767Y0049481D01*
X0166629Y0049398D01*
X0166490Y0049318D01*
X0166348Y0049242D01*
X0166205Y0049169D01*
X0166060Y0049100D01*
X0165913Y0049034D01*
X0165765Y0048972D01*
X0165615Y0048914D01*
X0165464Y0048859D01*
X0165311Y0048808D01*
X0165157Y0048761D01*
X0165002Y0048718D01*
X0164846Y0048679D01*
X0164690Y0048643D01*
X0164532Y0048612D01*
X0164374Y0048584D01*
X0164215Y0048560D01*
X0164055Y0048540D01*
X0163895Y0048524D01*
X0163735Y0048512D01*
X0163574Y0048504D01*
X0163413Y0048500D01*
X0163253Y0048500D01*
X0163092Y0048504D01*
X0162931Y0048512D01*
X0162771Y0048524D01*
X0162611Y0048540D01*
X0162451Y0048560D01*
X0162292Y0048584D01*
X0162134Y0048612D01*
X0161976Y0048643D01*
X0161820Y0048679D01*
X0161664Y0048718D01*
X0161509Y0048761D01*
X0161355Y0048808D01*
X0161202Y0048859D01*
X0161051Y0048914D01*
X0160901Y0048972D01*
X0160753Y0049034D01*
X0160606Y0049100D01*
X0160461Y0049169D01*
X0160318Y0049242D01*
X0160176Y0049318D01*
X0160037Y0049398D01*
X0159899Y0049481D01*
X0159764Y0049568D01*
X0159630Y0049658D01*
X0159499Y0049751D01*
X0159371Y0049847D01*
X0159245Y0049947D01*
X0159121Y0050050D01*
X0159000Y0050155D01*
X0158881Y0050264D01*
X0158765Y0050375D01*
X0158652Y0050490D01*
X0158542Y0050607D01*
X0158435Y0050727D01*
X0158331Y0050849D01*
X0158230Y0050974D01*
X0158132Y0051102D01*
X0158037Y0051232D01*
X0157945Y0051364D01*
X0157857Y0051498D01*
X0157772Y0051635D01*
X0157690Y0051773D01*
X0157612Y0051914D01*
X0157538Y0052056D01*
X0157467Y0052200D01*
X0157399Y0052346D01*
X0157336Y0052494D01*
X0157275Y0052643D01*
X0157219Y0052794D01*
X0157166Y0052946D01*
X0157117Y0053099D01*
X0157072Y0053253D01*
X0157031Y0053408D01*
X0156993Y0053565D01*
X0156960Y0053722D01*
X0156930Y0053880D01*
X0156904Y0054039D01*
X0156883Y0054198D01*
X0156865Y0054358D01*
X0156851Y0054518D01*
X0156841Y0054679D01*
X0156835Y0054839D01*
X0156833Y0055000D01*
X0236833Y0055000D02*
X0236835Y0055161D01*
X0236841Y0055321D01*
X0236851Y0055482D01*
X0236865Y0055642D01*
X0236883Y0055802D01*
X0236904Y0055961D01*
X0236930Y0056120D01*
X0236960Y0056278D01*
X0236993Y0056435D01*
X0237031Y0056592D01*
X0237072Y0056747D01*
X0237117Y0056901D01*
X0237166Y0057054D01*
X0237219Y0057206D01*
X0237275Y0057357D01*
X0237336Y0057506D01*
X0237399Y0057654D01*
X0237467Y0057800D01*
X0237538Y0057944D01*
X0237612Y0058086D01*
X0237690Y0058227D01*
X0237772Y0058365D01*
X0237857Y0058502D01*
X0237945Y0058636D01*
X0238037Y0058768D01*
X0238132Y0058898D01*
X0238230Y0059026D01*
X0238331Y0059151D01*
X0238435Y0059273D01*
X0238542Y0059393D01*
X0238652Y0059510D01*
X0238765Y0059625D01*
X0238881Y0059736D01*
X0239000Y0059845D01*
X0239121Y0059950D01*
X0239245Y0060053D01*
X0239371Y0060153D01*
X0239499Y0060249D01*
X0239630Y0060342D01*
X0239764Y0060432D01*
X0239899Y0060519D01*
X0240037Y0060602D01*
X0240176Y0060682D01*
X0240318Y0060758D01*
X0240461Y0060831D01*
X0240606Y0060900D01*
X0240753Y0060966D01*
X0240901Y0061028D01*
X0241051Y0061086D01*
X0241202Y0061141D01*
X0241355Y0061192D01*
X0241509Y0061239D01*
X0241664Y0061282D01*
X0241820Y0061321D01*
X0241976Y0061357D01*
X0242134Y0061388D01*
X0242292Y0061416D01*
X0242451Y0061440D01*
X0242611Y0061460D01*
X0242771Y0061476D01*
X0242931Y0061488D01*
X0243092Y0061496D01*
X0243253Y0061500D01*
X0243413Y0061500D01*
X0243574Y0061496D01*
X0243735Y0061488D01*
X0243895Y0061476D01*
X0244055Y0061460D01*
X0244215Y0061440D01*
X0244374Y0061416D01*
X0244532Y0061388D01*
X0244690Y0061357D01*
X0244846Y0061321D01*
X0245002Y0061282D01*
X0245157Y0061239D01*
X0245311Y0061192D01*
X0245464Y0061141D01*
X0245615Y0061086D01*
X0245765Y0061028D01*
X0245913Y0060966D01*
X0246060Y0060900D01*
X0246205Y0060831D01*
X0246348Y0060758D01*
X0246490Y0060682D01*
X0246629Y0060602D01*
X0246767Y0060519D01*
X0246902Y0060432D01*
X0247036Y0060342D01*
X0247167Y0060249D01*
X0247295Y0060153D01*
X0247421Y0060053D01*
X0247545Y0059950D01*
X0247666Y0059845D01*
X0247785Y0059736D01*
X0247901Y0059625D01*
X0248014Y0059510D01*
X0248124Y0059393D01*
X0248231Y0059273D01*
X0248335Y0059151D01*
X0248436Y0059026D01*
X0248534Y0058898D01*
X0248629Y0058768D01*
X0248721Y0058636D01*
X0248809Y0058502D01*
X0248894Y0058365D01*
X0248976Y0058227D01*
X0249054Y0058086D01*
X0249128Y0057944D01*
X0249199Y0057800D01*
X0249267Y0057654D01*
X0249330Y0057506D01*
X0249391Y0057357D01*
X0249447Y0057206D01*
X0249500Y0057054D01*
X0249549Y0056901D01*
X0249594Y0056747D01*
X0249635Y0056592D01*
X0249673Y0056435D01*
X0249706Y0056278D01*
X0249736Y0056120D01*
X0249762Y0055961D01*
X0249783Y0055802D01*
X0249801Y0055642D01*
X0249815Y0055482D01*
X0249825Y0055321D01*
X0249831Y0055161D01*
X0249833Y0055000D01*
X0249831Y0054839D01*
X0249825Y0054679D01*
X0249815Y0054518D01*
X0249801Y0054358D01*
X0249783Y0054198D01*
X0249762Y0054039D01*
X0249736Y0053880D01*
X0249706Y0053722D01*
X0249673Y0053565D01*
X0249635Y0053408D01*
X0249594Y0053253D01*
X0249549Y0053099D01*
X0249500Y0052946D01*
X0249447Y0052794D01*
X0249391Y0052643D01*
X0249330Y0052494D01*
X0249267Y0052346D01*
X0249199Y0052200D01*
X0249128Y0052056D01*
X0249054Y0051914D01*
X0248976Y0051773D01*
X0248894Y0051635D01*
X0248809Y0051498D01*
X0248721Y0051364D01*
X0248629Y0051232D01*
X0248534Y0051102D01*
X0248436Y0050974D01*
X0248335Y0050849D01*
X0248231Y0050727D01*
X0248124Y0050607D01*
X0248014Y0050490D01*
X0247901Y0050375D01*
X0247785Y0050264D01*
X0247666Y0050155D01*
X0247545Y0050050D01*
X0247421Y0049947D01*
X0247295Y0049847D01*
X0247167Y0049751D01*
X0247036Y0049658D01*
X0246902Y0049568D01*
X0246767Y0049481D01*
X0246629Y0049398D01*
X0246490Y0049318D01*
X0246348Y0049242D01*
X0246205Y0049169D01*
X0246060Y0049100D01*
X0245913Y0049034D01*
X0245765Y0048972D01*
X0245615Y0048914D01*
X0245464Y0048859D01*
X0245311Y0048808D01*
X0245157Y0048761D01*
X0245002Y0048718D01*
X0244846Y0048679D01*
X0244690Y0048643D01*
X0244532Y0048612D01*
X0244374Y0048584D01*
X0244215Y0048560D01*
X0244055Y0048540D01*
X0243895Y0048524D01*
X0243735Y0048512D01*
X0243574Y0048504D01*
X0243413Y0048500D01*
X0243253Y0048500D01*
X0243092Y0048504D01*
X0242931Y0048512D01*
X0242771Y0048524D01*
X0242611Y0048540D01*
X0242451Y0048560D01*
X0242292Y0048584D01*
X0242134Y0048612D01*
X0241976Y0048643D01*
X0241820Y0048679D01*
X0241664Y0048718D01*
X0241509Y0048761D01*
X0241355Y0048808D01*
X0241202Y0048859D01*
X0241051Y0048914D01*
X0240901Y0048972D01*
X0240753Y0049034D01*
X0240606Y0049100D01*
X0240461Y0049169D01*
X0240318Y0049242D01*
X0240176Y0049318D01*
X0240037Y0049398D01*
X0239899Y0049481D01*
X0239764Y0049568D01*
X0239630Y0049658D01*
X0239499Y0049751D01*
X0239371Y0049847D01*
X0239245Y0049947D01*
X0239121Y0050050D01*
X0239000Y0050155D01*
X0238881Y0050264D01*
X0238765Y0050375D01*
X0238652Y0050490D01*
X0238542Y0050607D01*
X0238435Y0050727D01*
X0238331Y0050849D01*
X0238230Y0050974D01*
X0238132Y0051102D01*
X0238037Y0051232D01*
X0237945Y0051364D01*
X0237857Y0051498D01*
X0237772Y0051635D01*
X0237690Y0051773D01*
X0237612Y0051914D01*
X0237538Y0052056D01*
X0237467Y0052200D01*
X0237399Y0052346D01*
X0237336Y0052494D01*
X0237275Y0052643D01*
X0237219Y0052794D01*
X0237166Y0052946D01*
X0237117Y0053099D01*
X0237072Y0053253D01*
X0237031Y0053408D01*
X0236993Y0053565D01*
X0236960Y0053722D01*
X0236930Y0053880D01*
X0236904Y0054039D01*
X0236883Y0054198D01*
X0236865Y0054358D01*
X0236851Y0054518D01*
X0236841Y0054679D01*
X0236835Y0054839D01*
X0236833Y0055000D01*
X0236833Y0135000D02*
X0236835Y0135161D01*
X0236841Y0135321D01*
X0236851Y0135482D01*
X0236865Y0135642D01*
X0236883Y0135802D01*
X0236904Y0135961D01*
X0236930Y0136120D01*
X0236960Y0136278D01*
X0236993Y0136435D01*
X0237031Y0136592D01*
X0237072Y0136747D01*
X0237117Y0136901D01*
X0237166Y0137054D01*
X0237219Y0137206D01*
X0237275Y0137357D01*
X0237336Y0137506D01*
X0237399Y0137654D01*
X0237467Y0137800D01*
X0237538Y0137944D01*
X0237612Y0138086D01*
X0237690Y0138227D01*
X0237772Y0138365D01*
X0237857Y0138502D01*
X0237945Y0138636D01*
X0238037Y0138768D01*
X0238132Y0138898D01*
X0238230Y0139026D01*
X0238331Y0139151D01*
X0238435Y0139273D01*
X0238542Y0139393D01*
X0238652Y0139510D01*
X0238765Y0139625D01*
X0238881Y0139736D01*
X0239000Y0139845D01*
X0239121Y0139950D01*
X0239245Y0140053D01*
X0239371Y0140153D01*
X0239499Y0140249D01*
X0239630Y0140342D01*
X0239764Y0140432D01*
X0239899Y0140519D01*
X0240037Y0140602D01*
X0240176Y0140682D01*
X0240318Y0140758D01*
X0240461Y0140831D01*
X0240606Y0140900D01*
X0240753Y0140966D01*
X0240901Y0141028D01*
X0241051Y0141086D01*
X0241202Y0141141D01*
X0241355Y0141192D01*
X0241509Y0141239D01*
X0241664Y0141282D01*
X0241820Y0141321D01*
X0241976Y0141357D01*
X0242134Y0141388D01*
X0242292Y0141416D01*
X0242451Y0141440D01*
X0242611Y0141460D01*
X0242771Y0141476D01*
X0242931Y0141488D01*
X0243092Y0141496D01*
X0243253Y0141500D01*
X0243413Y0141500D01*
X0243574Y0141496D01*
X0243735Y0141488D01*
X0243895Y0141476D01*
X0244055Y0141460D01*
X0244215Y0141440D01*
X0244374Y0141416D01*
X0244532Y0141388D01*
X0244690Y0141357D01*
X0244846Y0141321D01*
X0245002Y0141282D01*
X0245157Y0141239D01*
X0245311Y0141192D01*
X0245464Y0141141D01*
X0245615Y0141086D01*
X0245765Y0141028D01*
X0245913Y0140966D01*
X0246060Y0140900D01*
X0246205Y0140831D01*
X0246348Y0140758D01*
X0246490Y0140682D01*
X0246629Y0140602D01*
X0246767Y0140519D01*
X0246902Y0140432D01*
X0247036Y0140342D01*
X0247167Y0140249D01*
X0247295Y0140153D01*
X0247421Y0140053D01*
X0247545Y0139950D01*
X0247666Y0139845D01*
X0247785Y0139736D01*
X0247901Y0139625D01*
X0248014Y0139510D01*
X0248124Y0139393D01*
X0248231Y0139273D01*
X0248335Y0139151D01*
X0248436Y0139026D01*
X0248534Y0138898D01*
X0248629Y0138768D01*
X0248721Y0138636D01*
X0248809Y0138502D01*
X0248894Y0138365D01*
X0248976Y0138227D01*
X0249054Y0138086D01*
X0249128Y0137944D01*
X0249199Y0137800D01*
X0249267Y0137654D01*
X0249330Y0137506D01*
X0249391Y0137357D01*
X0249447Y0137206D01*
X0249500Y0137054D01*
X0249549Y0136901D01*
X0249594Y0136747D01*
X0249635Y0136592D01*
X0249673Y0136435D01*
X0249706Y0136278D01*
X0249736Y0136120D01*
X0249762Y0135961D01*
X0249783Y0135802D01*
X0249801Y0135642D01*
X0249815Y0135482D01*
X0249825Y0135321D01*
X0249831Y0135161D01*
X0249833Y0135000D01*
X0249831Y0134839D01*
X0249825Y0134679D01*
X0249815Y0134518D01*
X0249801Y0134358D01*
X0249783Y0134198D01*
X0249762Y0134039D01*
X0249736Y0133880D01*
X0249706Y0133722D01*
X0249673Y0133565D01*
X0249635Y0133408D01*
X0249594Y0133253D01*
X0249549Y0133099D01*
X0249500Y0132946D01*
X0249447Y0132794D01*
X0249391Y0132643D01*
X0249330Y0132494D01*
X0249267Y0132346D01*
X0249199Y0132200D01*
X0249128Y0132056D01*
X0249054Y0131914D01*
X0248976Y0131773D01*
X0248894Y0131635D01*
X0248809Y0131498D01*
X0248721Y0131364D01*
X0248629Y0131232D01*
X0248534Y0131102D01*
X0248436Y0130974D01*
X0248335Y0130849D01*
X0248231Y0130727D01*
X0248124Y0130607D01*
X0248014Y0130490D01*
X0247901Y0130375D01*
X0247785Y0130264D01*
X0247666Y0130155D01*
X0247545Y0130050D01*
X0247421Y0129947D01*
X0247295Y0129847D01*
X0247167Y0129751D01*
X0247036Y0129658D01*
X0246902Y0129568D01*
X0246767Y0129481D01*
X0246629Y0129398D01*
X0246490Y0129318D01*
X0246348Y0129242D01*
X0246205Y0129169D01*
X0246060Y0129100D01*
X0245913Y0129034D01*
X0245765Y0128972D01*
X0245615Y0128914D01*
X0245464Y0128859D01*
X0245311Y0128808D01*
X0245157Y0128761D01*
X0245002Y0128718D01*
X0244846Y0128679D01*
X0244690Y0128643D01*
X0244532Y0128612D01*
X0244374Y0128584D01*
X0244215Y0128560D01*
X0244055Y0128540D01*
X0243895Y0128524D01*
X0243735Y0128512D01*
X0243574Y0128504D01*
X0243413Y0128500D01*
X0243253Y0128500D01*
X0243092Y0128504D01*
X0242931Y0128512D01*
X0242771Y0128524D01*
X0242611Y0128540D01*
X0242451Y0128560D01*
X0242292Y0128584D01*
X0242134Y0128612D01*
X0241976Y0128643D01*
X0241820Y0128679D01*
X0241664Y0128718D01*
X0241509Y0128761D01*
X0241355Y0128808D01*
X0241202Y0128859D01*
X0241051Y0128914D01*
X0240901Y0128972D01*
X0240753Y0129034D01*
X0240606Y0129100D01*
X0240461Y0129169D01*
X0240318Y0129242D01*
X0240176Y0129318D01*
X0240037Y0129398D01*
X0239899Y0129481D01*
X0239764Y0129568D01*
X0239630Y0129658D01*
X0239499Y0129751D01*
X0239371Y0129847D01*
X0239245Y0129947D01*
X0239121Y0130050D01*
X0239000Y0130155D01*
X0238881Y0130264D01*
X0238765Y0130375D01*
X0238652Y0130490D01*
X0238542Y0130607D01*
X0238435Y0130727D01*
X0238331Y0130849D01*
X0238230Y0130974D01*
X0238132Y0131102D01*
X0238037Y0131232D01*
X0237945Y0131364D01*
X0237857Y0131498D01*
X0237772Y0131635D01*
X0237690Y0131773D01*
X0237612Y0131914D01*
X0237538Y0132056D01*
X0237467Y0132200D01*
X0237399Y0132346D01*
X0237336Y0132494D01*
X0237275Y0132643D01*
X0237219Y0132794D01*
X0237166Y0132946D01*
X0237117Y0133099D01*
X0237072Y0133253D01*
X0237031Y0133408D01*
X0236993Y0133565D01*
X0236960Y0133722D01*
X0236930Y0133880D01*
X0236904Y0134039D01*
X0236883Y0134198D01*
X0236865Y0134358D01*
X0236851Y0134518D01*
X0236841Y0134679D01*
X0236835Y0134839D01*
X0236833Y0135000D01*
X0156833Y0135000D02*
X0156835Y0135161D01*
X0156841Y0135321D01*
X0156851Y0135482D01*
X0156865Y0135642D01*
X0156883Y0135802D01*
X0156904Y0135961D01*
X0156930Y0136120D01*
X0156960Y0136278D01*
X0156993Y0136435D01*
X0157031Y0136592D01*
X0157072Y0136747D01*
X0157117Y0136901D01*
X0157166Y0137054D01*
X0157219Y0137206D01*
X0157275Y0137357D01*
X0157336Y0137506D01*
X0157399Y0137654D01*
X0157467Y0137800D01*
X0157538Y0137944D01*
X0157612Y0138086D01*
X0157690Y0138227D01*
X0157772Y0138365D01*
X0157857Y0138502D01*
X0157945Y0138636D01*
X0158037Y0138768D01*
X0158132Y0138898D01*
X0158230Y0139026D01*
X0158331Y0139151D01*
X0158435Y0139273D01*
X0158542Y0139393D01*
X0158652Y0139510D01*
X0158765Y0139625D01*
X0158881Y0139736D01*
X0159000Y0139845D01*
X0159121Y0139950D01*
X0159245Y0140053D01*
X0159371Y0140153D01*
X0159499Y0140249D01*
X0159630Y0140342D01*
X0159764Y0140432D01*
X0159899Y0140519D01*
X0160037Y0140602D01*
X0160176Y0140682D01*
X0160318Y0140758D01*
X0160461Y0140831D01*
X0160606Y0140900D01*
X0160753Y0140966D01*
X0160901Y0141028D01*
X0161051Y0141086D01*
X0161202Y0141141D01*
X0161355Y0141192D01*
X0161509Y0141239D01*
X0161664Y0141282D01*
X0161820Y0141321D01*
X0161976Y0141357D01*
X0162134Y0141388D01*
X0162292Y0141416D01*
X0162451Y0141440D01*
X0162611Y0141460D01*
X0162771Y0141476D01*
X0162931Y0141488D01*
X0163092Y0141496D01*
X0163253Y0141500D01*
X0163413Y0141500D01*
X0163574Y0141496D01*
X0163735Y0141488D01*
X0163895Y0141476D01*
X0164055Y0141460D01*
X0164215Y0141440D01*
X0164374Y0141416D01*
X0164532Y0141388D01*
X0164690Y0141357D01*
X0164846Y0141321D01*
X0165002Y0141282D01*
X0165157Y0141239D01*
X0165311Y0141192D01*
X0165464Y0141141D01*
X0165615Y0141086D01*
X0165765Y0141028D01*
X0165913Y0140966D01*
X0166060Y0140900D01*
X0166205Y0140831D01*
X0166348Y0140758D01*
X0166490Y0140682D01*
X0166629Y0140602D01*
X0166767Y0140519D01*
X0166902Y0140432D01*
X0167036Y0140342D01*
X0167167Y0140249D01*
X0167295Y0140153D01*
X0167421Y0140053D01*
X0167545Y0139950D01*
X0167666Y0139845D01*
X0167785Y0139736D01*
X0167901Y0139625D01*
X0168014Y0139510D01*
X0168124Y0139393D01*
X0168231Y0139273D01*
X0168335Y0139151D01*
X0168436Y0139026D01*
X0168534Y0138898D01*
X0168629Y0138768D01*
X0168721Y0138636D01*
X0168809Y0138502D01*
X0168894Y0138365D01*
X0168976Y0138227D01*
X0169054Y0138086D01*
X0169128Y0137944D01*
X0169199Y0137800D01*
X0169267Y0137654D01*
X0169330Y0137506D01*
X0169391Y0137357D01*
X0169447Y0137206D01*
X0169500Y0137054D01*
X0169549Y0136901D01*
X0169594Y0136747D01*
X0169635Y0136592D01*
X0169673Y0136435D01*
X0169706Y0136278D01*
X0169736Y0136120D01*
X0169762Y0135961D01*
X0169783Y0135802D01*
X0169801Y0135642D01*
X0169815Y0135482D01*
X0169825Y0135321D01*
X0169831Y0135161D01*
X0169833Y0135000D01*
X0169831Y0134839D01*
X0169825Y0134679D01*
X0169815Y0134518D01*
X0169801Y0134358D01*
X0169783Y0134198D01*
X0169762Y0134039D01*
X0169736Y0133880D01*
X0169706Y0133722D01*
X0169673Y0133565D01*
X0169635Y0133408D01*
X0169594Y0133253D01*
X0169549Y0133099D01*
X0169500Y0132946D01*
X0169447Y0132794D01*
X0169391Y0132643D01*
X0169330Y0132494D01*
X0169267Y0132346D01*
X0169199Y0132200D01*
X0169128Y0132056D01*
X0169054Y0131914D01*
X0168976Y0131773D01*
X0168894Y0131635D01*
X0168809Y0131498D01*
X0168721Y0131364D01*
X0168629Y0131232D01*
X0168534Y0131102D01*
X0168436Y0130974D01*
X0168335Y0130849D01*
X0168231Y0130727D01*
X0168124Y0130607D01*
X0168014Y0130490D01*
X0167901Y0130375D01*
X0167785Y0130264D01*
X0167666Y0130155D01*
X0167545Y0130050D01*
X0167421Y0129947D01*
X0167295Y0129847D01*
X0167167Y0129751D01*
X0167036Y0129658D01*
X0166902Y0129568D01*
X0166767Y0129481D01*
X0166629Y0129398D01*
X0166490Y0129318D01*
X0166348Y0129242D01*
X0166205Y0129169D01*
X0166060Y0129100D01*
X0165913Y0129034D01*
X0165765Y0128972D01*
X0165615Y0128914D01*
X0165464Y0128859D01*
X0165311Y0128808D01*
X0165157Y0128761D01*
X0165002Y0128718D01*
X0164846Y0128679D01*
X0164690Y0128643D01*
X0164532Y0128612D01*
X0164374Y0128584D01*
X0164215Y0128560D01*
X0164055Y0128540D01*
X0163895Y0128524D01*
X0163735Y0128512D01*
X0163574Y0128504D01*
X0163413Y0128500D01*
X0163253Y0128500D01*
X0163092Y0128504D01*
X0162931Y0128512D01*
X0162771Y0128524D01*
X0162611Y0128540D01*
X0162451Y0128560D01*
X0162292Y0128584D01*
X0162134Y0128612D01*
X0161976Y0128643D01*
X0161820Y0128679D01*
X0161664Y0128718D01*
X0161509Y0128761D01*
X0161355Y0128808D01*
X0161202Y0128859D01*
X0161051Y0128914D01*
X0160901Y0128972D01*
X0160753Y0129034D01*
X0160606Y0129100D01*
X0160461Y0129169D01*
X0160318Y0129242D01*
X0160176Y0129318D01*
X0160037Y0129398D01*
X0159899Y0129481D01*
X0159764Y0129568D01*
X0159630Y0129658D01*
X0159499Y0129751D01*
X0159371Y0129847D01*
X0159245Y0129947D01*
X0159121Y0130050D01*
X0159000Y0130155D01*
X0158881Y0130264D01*
X0158765Y0130375D01*
X0158652Y0130490D01*
X0158542Y0130607D01*
X0158435Y0130727D01*
X0158331Y0130849D01*
X0158230Y0130974D01*
X0158132Y0131102D01*
X0158037Y0131232D01*
X0157945Y0131364D01*
X0157857Y0131498D01*
X0157772Y0131635D01*
X0157690Y0131773D01*
X0157612Y0131914D01*
X0157538Y0132056D01*
X0157467Y0132200D01*
X0157399Y0132346D01*
X0157336Y0132494D01*
X0157275Y0132643D01*
X0157219Y0132794D01*
X0157166Y0132946D01*
X0157117Y0133099D01*
X0157072Y0133253D01*
X0157031Y0133408D01*
X0156993Y0133565D01*
X0156960Y0133722D01*
X0156930Y0133880D01*
X0156904Y0134039D01*
X0156883Y0134198D01*
X0156865Y0134358D01*
X0156851Y0134518D01*
X0156841Y0134679D01*
X0156835Y0134839D01*
X0156833Y0135000D01*
M02*
