%
M48
M72
T01C0.0197
T02C0.0400
T03C0.1300
%
T01
X17683Y6150
X18383Y6350
X20083Y6250
X20833Y6500
X22333Y6750
X22333Y7500
X23833Y8000
X24083Y9250
X24083Y10000
X21333Y10000
X20083Y10000
X18333Y10100
X16833Y11000
X19333Y11500
X21333Y11500
X21333Y10750
X24333Y12000
X22083Y12250
X19583Y9000
X16333Y7500
X23333Y6000
T02
X22333Y14000
X21333Y14000
X20333Y14000
X19333Y14000
X18333Y14000
T03
X16333Y5500
X24333Y5500
X24333Y13500
X16333Y13500
M30
