G75*
%MOIN*%
%OFA0B0*%
%FSLAX25Y25*%
%IPPOS*%
%LPD*%
%AMOC8*
5,1,8,0,0,1.08239X$1,22.5*
%
%ADD10C,0.00400*%
%ADD11C,0.00300*%
%ADD12C,0.00600*%
%ADD13C,0.00039*%
D10*
X0184668Y0048467D02*
X0184668Y0051537D01*
X0185435Y0052304D01*
X0187737Y0052304D01*
X0187737Y0047700D01*
X0185435Y0047700D01*
X0184668Y0048467D01*
X0189272Y0048467D02*
X0189272Y0052304D01*
X0192341Y0052304D02*
X0192341Y0048467D01*
X0191574Y0047700D01*
X0190039Y0047700D01*
X0189272Y0048467D01*
X0193876Y0047700D02*
X0193876Y0052304D01*
X0193876Y0050002D02*
X0196945Y0050002D01*
X0196945Y0047700D02*
X0196945Y0052304D01*
X0203084Y0050769D02*
X0205386Y0050769D01*
X0206153Y0050002D01*
X0206153Y0048467D01*
X0205386Y0047700D01*
X0203084Y0047700D01*
X0207688Y0047700D02*
X0209222Y0047700D01*
X0208455Y0047700D02*
X0208455Y0050769D01*
X0209222Y0050769D01*
X0208455Y0052304D02*
X0208455Y0053071D01*
X0211524Y0053071D02*
X0211524Y0052304D01*
X0211524Y0050769D02*
X0211524Y0047700D01*
X0210757Y0047700D02*
X0212292Y0047700D01*
X0213826Y0048467D02*
X0214594Y0047700D01*
X0215361Y0048467D01*
X0216128Y0047700D01*
X0216896Y0048467D01*
X0216896Y0050769D01*
X0218430Y0051537D02*
X0218430Y0048467D01*
X0219197Y0047700D01*
X0220732Y0047700D01*
X0221499Y0048467D01*
X0221499Y0051537D01*
X0220732Y0052304D01*
X0219197Y0052304D01*
X0218430Y0051537D01*
X0213826Y0050769D02*
X0213826Y0048467D01*
X0212292Y0050769D02*
X0211524Y0050769D01*
X0218430Y0047700D02*
X0219965Y0049235D01*
X0221801Y0120200D02*
X0221033Y0120967D01*
X0221033Y0122502D01*
X0221801Y0123269D01*
X0222568Y0123269D01*
X0223335Y0122502D01*
X0223335Y0120967D01*
X0224103Y0120200D01*
X0224870Y0120200D01*
X0225637Y0120967D01*
X0225637Y0122502D01*
X0224870Y0123269D01*
X0224870Y0124804D02*
X0221801Y0124804D01*
X0221033Y0125571D01*
X0221033Y0127106D01*
X0221801Y0127873D01*
X0221033Y0129408D02*
X0221033Y0132477D01*
X0215637Y0130942D02*
X0214103Y0132477D01*
X0211033Y0132477D01*
X0213335Y0132477D02*
X0213335Y0129408D01*
X0214103Y0129408D02*
X0215637Y0130942D01*
X0214103Y0129408D02*
X0211033Y0129408D01*
X0211801Y0127873D02*
X0214870Y0127873D01*
X0215637Y0127106D01*
X0215637Y0124804D01*
X0211033Y0124804D01*
X0211033Y0127106D01*
X0211801Y0127873D01*
X0205637Y0127873D02*
X0202568Y0127873D01*
X0201033Y0126339D01*
X0202568Y0124804D01*
X0205637Y0124804D01*
X0204870Y0123269D02*
X0204103Y0123269D01*
X0203335Y0122502D01*
X0202568Y0123269D01*
X0201801Y0123269D01*
X0201033Y0122502D01*
X0201033Y0120967D01*
X0201801Y0120200D01*
X0203335Y0121735D02*
X0203335Y0122502D01*
X0204870Y0123269D02*
X0205637Y0122502D01*
X0205637Y0120967D01*
X0204870Y0120200D01*
X0211033Y0120967D02*
X0211801Y0120200D01*
X0211033Y0120967D02*
X0211033Y0122502D01*
X0211801Y0123269D01*
X0212568Y0123269D01*
X0213335Y0122502D01*
X0213335Y0120967D01*
X0214103Y0120200D01*
X0214870Y0120200D01*
X0215637Y0120967D01*
X0215637Y0122502D01*
X0214870Y0123269D01*
X0224870Y0124804D02*
X0225637Y0125571D01*
X0225637Y0127106D01*
X0224870Y0127873D01*
X0225637Y0129408D02*
X0221033Y0129408D01*
X0205637Y0130175D02*
X0205637Y0131710D01*
X0204870Y0132477D01*
X0204103Y0132477D01*
X0203335Y0131710D01*
X0202568Y0132477D01*
X0201801Y0132477D01*
X0201033Y0131710D01*
X0201033Y0130175D01*
X0201801Y0129408D01*
X0203335Y0130942D02*
X0203335Y0131710D01*
X0204870Y0129408D02*
X0205637Y0130175D01*
X0195637Y0129408D02*
X0195637Y0131710D01*
X0194870Y0132477D01*
X0191801Y0132477D01*
X0191033Y0131710D01*
X0191033Y0129408D01*
X0195637Y0129408D01*
X0195637Y0127873D02*
X0191033Y0127873D01*
X0195637Y0124804D01*
X0191033Y0124804D01*
X0191801Y0123269D02*
X0193335Y0123269D01*
X0193335Y0121735D01*
X0191801Y0123269D02*
X0191033Y0122502D01*
X0191033Y0120967D01*
X0191801Y0120200D01*
X0194870Y0120200D01*
X0195637Y0120967D01*
X0195637Y0122502D01*
X0194870Y0123269D01*
X0185637Y0122502D02*
X0185637Y0120200D01*
X0181033Y0120200D01*
X0182568Y0120200D02*
X0182568Y0122502D01*
X0183335Y0123269D01*
X0184870Y0123269D01*
X0185637Y0122502D01*
X0182568Y0121735D02*
X0181033Y0123269D01*
X0181801Y0124804D02*
X0181033Y0125571D01*
X0181033Y0127106D01*
X0181801Y0127873D01*
X0182568Y0127873D01*
X0183335Y0127106D01*
X0183335Y0125571D01*
X0184103Y0124804D01*
X0184870Y0124804D01*
X0185637Y0125571D01*
X0185637Y0127106D01*
X0184870Y0127873D01*
X0185637Y0129408D02*
X0185637Y0132477D01*
X0185637Y0130942D02*
X0181033Y0130942D01*
D11*
X0237781Y0077350D02*
X0237781Y0076383D01*
X0237781Y0076866D02*
X0240683Y0076866D01*
X0240683Y0076383D02*
X0240683Y0077350D01*
X0240683Y0075386D02*
X0238748Y0073451D01*
X0238265Y0073451D01*
X0237781Y0073934D01*
X0237781Y0074902D01*
X0238265Y0075386D01*
X0240683Y0075386D02*
X0240683Y0073451D01*
X0240200Y0072439D02*
X0240683Y0071955D01*
X0240683Y0070988D01*
X0240200Y0070504D01*
X0238265Y0070504D02*
X0237781Y0070988D01*
X0237781Y0071955D01*
X0238265Y0072439D01*
X0240200Y0072439D01*
X0240683Y0066546D02*
X0237781Y0066546D01*
X0237781Y0065095D01*
X0238265Y0064611D01*
X0239232Y0064611D01*
X0239716Y0065095D01*
X0239716Y0066546D01*
X0240200Y0063600D02*
X0240683Y0063116D01*
X0240683Y0062148D01*
X0240200Y0061665D01*
X0237781Y0061665D01*
X0237781Y0063600D02*
X0240200Y0063600D01*
D12*
X0241833Y0065000D02*
X0241833Y0075000D01*
X0241835Y0075083D01*
X0241841Y0075166D01*
X0241850Y0075249D01*
X0241864Y0075331D01*
X0241881Y0075412D01*
X0241902Y0075493D01*
X0241926Y0075572D01*
X0241955Y0075650D01*
X0241986Y0075727D01*
X0242022Y0075802D01*
X0242060Y0075876D01*
X0242103Y0075948D01*
X0242148Y0076017D01*
X0242197Y0076085D01*
X0242248Y0076150D01*
X0242303Y0076213D01*
X0242360Y0076273D01*
X0242420Y0076330D01*
X0242483Y0076385D01*
X0242548Y0076436D01*
X0242616Y0076485D01*
X0242685Y0076530D01*
X0242757Y0076573D01*
X0242831Y0076611D01*
X0242906Y0076647D01*
X0242983Y0076678D01*
X0243061Y0076707D01*
X0243140Y0076731D01*
X0243221Y0076752D01*
X0243302Y0076769D01*
X0243384Y0076783D01*
X0243467Y0076792D01*
X0243550Y0076798D01*
X0243633Y0076800D01*
X0248033Y0076800D01*
X0248116Y0076798D01*
X0248199Y0076792D01*
X0248282Y0076783D01*
X0248364Y0076769D01*
X0248445Y0076752D01*
X0248526Y0076731D01*
X0248605Y0076707D01*
X0248683Y0076678D01*
X0248760Y0076647D01*
X0248835Y0076611D01*
X0248909Y0076573D01*
X0248981Y0076530D01*
X0249050Y0076485D01*
X0249118Y0076436D01*
X0249183Y0076385D01*
X0249246Y0076330D01*
X0249306Y0076273D01*
X0249363Y0076213D01*
X0249418Y0076150D01*
X0249469Y0076085D01*
X0249518Y0076017D01*
X0249563Y0075948D01*
X0249606Y0075876D01*
X0249644Y0075802D01*
X0249680Y0075727D01*
X0249711Y0075650D01*
X0249740Y0075572D01*
X0249764Y0075493D01*
X0249785Y0075412D01*
X0249802Y0075331D01*
X0249816Y0075249D01*
X0249825Y0075166D01*
X0249831Y0075083D01*
X0249833Y0075000D01*
X0249833Y0065000D01*
X0249831Y0064917D01*
X0249825Y0064834D01*
X0249816Y0064751D01*
X0249802Y0064669D01*
X0249785Y0064588D01*
X0249764Y0064507D01*
X0249740Y0064428D01*
X0249711Y0064350D01*
X0249680Y0064273D01*
X0249644Y0064198D01*
X0249606Y0064124D01*
X0249563Y0064052D01*
X0249518Y0063983D01*
X0249469Y0063915D01*
X0249418Y0063850D01*
X0249363Y0063787D01*
X0249306Y0063727D01*
X0249246Y0063670D01*
X0249183Y0063615D01*
X0249118Y0063564D01*
X0249050Y0063515D01*
X0248981Y0063470D01*
X0248909Y0063427D01*
X0248835Y0063389D01*
X0248760Y0063353D01*
X0248683Y0063322D01*
X0248605Y0063293D01*
X0248526Y0063269D01*
X0248445Y0063248D01*
X0248364Y0063231D01*
X0248282Y0063217D01*
X0248199Y0063208D01*
X0248116Y0063202D01*
X0248033Y0063200D01*
X0243633Y0063200D01*
X0243550Y0063202D01*
X0243467Y0063208D01*
X0243384Y0063217D01*
X0243302Y0063231D01*
X0243221Y0063248D01*
X0243140Y0063269D01*
X0243061Y0063293D01*
X0242983Y0063322D01*
X0242906Y0063353D01*
X0242831Y0063389D01*
X0242757Y0063427D01*
X0242685Y0063470D01*
X0242616Y0063515D01*
X0242548Y0063564D01*
X0242483Y0063615D01*
X0242420Y0063670D01*
X0242360Y0063727D01*
X0242303Y0063787D01*
X0242248Y0063850D01*
X0242197Y0063915D01*
X0242148Y0063983D01*
X0242103Y0064052D01*
X0242060Y0064124D01*
X0242022Y0064198D01*
X0241986Y0064273D01*
X0241955Y0064350D01*
X0241926Y0064428D01*
X0241902Y0064507D01*
X0241881Y0064588D01*
X0241864Y0064669D01*
X0241850Y0064751D01*
X0241841Y0064834D01*
X0241835Y0064917D01*
X0241833Y0065000D01*
D13*
X0248342Y0111000D02*
X0248342Y0129000D01*
X0253325Y0129000D01*
X0253325Y0115183D01*
X0253325Y0111000D01*
X0251076Y0111000D01*
X0251076Y0112510D01*
X0252041Y0111851D01*
X0252041Y0112476D01*
X0251213Y0113018D01*
X0252041Y0113563D01*
X0252041Y0114166D01*
X0251076Y0113504D01*
X0251076Y0115021D01*
X0252862Y0115021D01*
X0252862Y0115183D01*
X0253325Y0115183D01*
X0252862Y0115183D01*
X0252862Y0128537D01*
X0248805Y0128537D01*
X0248805Y0115021D01*
X0251076Y0115021D01*
X0251076Y0113504D01*
X0250814Y0113324D01*
X0249627Y0114130D01*
X0249627Y0113509D01*
X0250410Y0113002D01*
X0249627Y0112490D01*
X0249627Y0111887D01*
X0250806Y0112694D01*
X0251076Y0112510D01*
X0251076Y0111000D01*
X0248342Y0111000D01*
X0248342Y0111027D02*
X0251076Y0111027D01*
X0253325Y0111027D01*
X0253325Y0111065D02*
X0251076Y0111065D01*
X0248342Y0111065D01*
X0248342Y0111103D02*
X0251076Y0111103D01*
X0253325Y0111103D01*
X0253325Y0111141D02*
X0251076Y0111141D01*
X0248342Y0111141D01*
X0248342Y0111179D02*
X0251076Y0111179D01*
X0253325Y0111179D01*
X0253325Y0111217D02*
X0251076Y0111217D01*
X0248342Y0111217D01*
X0248342Y0111255D02*
X0251076Y0111255D01*
X0253325Y0111255D01*
X0253325Y0111292D02*
X0251076Y0111292D01*
X0248342Y0111292D01*
X0248342Y0111330D02*
X0251076Y0111330D01*
X0253325Y0111330D01*
X0253325Y0111368D02*
X0251076Y0111368D01*
X0248342Y0111368D01*
X0248342Y0111406D02*
X0251076Y0111406D01*
X0253325Y0111406D01*
X0253325Y0111444D02*
X0251076Y0111444D01*
X0248342Y0111444D01*
X0248342Y0111482D02*
X0251076Y0111482D01*
X0253325Y0111482D01*
X0253325Y0111520D02*
X0251076Y0111520D01*
X0248342Y0111520D01*
X0248342Y0111558D02*
X0251076Y0111558D01*
X0253325Y0111558D01*
X0253325Y0111595D02*
X0251076Y0111595D01*
X0248342Y0111595D01*
X0248342Y0111633D02*
X0251076Y0111633D01*
X0253325Y0111633D01*
X0253325Y0111671D02*
X0251076Y0111671D01*
X0248342Y0111671D01*
X0248342Y0111709D02*
X0251076Y0111709D01*
X0253325Y0111709D01*
X0253325Y0111747D02*
X0251076Y0111747D01*
X0248342Y0111747D01*
X0248342Y0111785D02*
X0251076Y0111785D01*
X0253325Y0111785D01*
X0253325Y0111823D02*
X0251076Y0111823D01*
X0248342Y0111823D01*
X0248342Y0111861D02*
X0251076Y0111861D01*
X0252028Y0111861D01*
X0252041Y0111861D02*
X0253325Y0111861D01*
X0253325Y0111899D02*
X0252041Y0111899D01*
X0252041Y0111936D02*
X0253325Y0111936D01*
X0253325Y0111974D02*
X0252041Y0111974D01*
X0252041Y0112012D02*
X0253325Y0112012D01*
X0253325Y0112050D02*
X0252041Y0112050D01*
X0252041Y0112088D02*
X0253325Y0112088D01*
X0253325Y0112126D02*
X0252041Y0112126D01*
X0252041Y0112164D02*
X0253325Y0112164D01*
X0253325Y0112202D02*
X0252041Y0112202D01*
X0252041Y0112239D02*
X0253325Y0112239D01*
X0253325Y0112277D02*
X0252041Y0112277D01*
X0252041Y0112315D02*
X0253325Y0112315D01*
X0253325Y0112353D02*
X0252041Y0112353D01*
X0252041Y0112391D02*
X0253325Y0112391D01*
X0253325Y0112429D02*
X0252041Y0112429D01*
X0252041Y0112467D02*
X0253325Y0112467D01*
X0253325Y0112505D02*
X0251997Y0112505D01*
X0251939Y0112543D02*
X0253325Y0112543D01*
X0253325Y0112580D02*
X0251882Y0112580D01*
X0251824Y0112618D02*
X0253325Y0112618D01*
X0253325Y0112656D02*
X0251766Y0112656D01*
X0251708Y0112694D02*
X0253325Y0112694D01*
X0253325Y0112732D02*
X0251650Y0112732D01*
X0251592Y0112770D02*
X0253325Y0112770D01*
X0253325Y0112808D02*
X0251534Y0112808D01*
X0251476Y0112846D02*
X0253325Y0112846D01*
X0253325Y0112883D02*
X0251418Y0112883D01*
X0251361Y0112921D02*
X0253325Y0112921D01*
X0253325Y0112959D02*
X0251303Y0112959D01*
X0251245Y0112997D02*
X0253325Y0112997D01*
X0253325Y0113035D02*
X0251239Y0113035D01*
X0251297Y0113073D02*
X0253325Y0113073D01*
X0253325Y0113111D02*
X0251354Y0113111D01*
X0251412Y0113149D02*
X0253325Y0113149D01*
X0253325Y0113187D02*
X0251469Y0113187D01*
X0251527Y0113224D02*
X0253325Y0113224D01*
X0253325Y0113262D02*
X0251584Y0113262D01*
X0251642Y0113300D02*
X0253325Y0113300D01*
X0253325Y0113338D02*
X0251699Y0113338D01*
X0251757Y0113376D02*
X0253325Y0113376D01*
X0253325Y0113414D02*
X0251814Y0113414D01*
X0251872Y0113452D02*
X0253325Y0113452D01*
X0253325Y0113490D02*
X0251929Y0113490D01*
X0251987Y0113527D02*
X0253325Y0113527D01*
X0253325Y0113565D02*
X0252041Y0113565D01*
X0252041Y0113603D02*
X0253325Y0113603D01*
X0253325Y0113641D02*
X0252041Y0113641D01*
X0252041Y0113679D02*
X0253325Y0113679D01*
X0253325Y0113717D02*
X0252041Y0113717D01*
X0252041Y0113755D02*
X0253325Y0113755D01*
X0253325Y0113793D02*
X0252041Y0113793D01*
X0252041Y0113830D02*
X0253325Y0113830D01*
X0253325Y0113868D02*
X0252041Y0113868D01*
X0252041Y0113906D02*
X0253325Y0113906D01*
X0253325Y0113944D02*
X0252041Y0113944D01*
X0252041Y0113982D02*
X0253325Y0113982D01*
X0253325Y0114020D02*
X0252041Y0114020D01*
X0252041Y0114058D02*
X0253325Y0114058D01*
X0253325Y0114096D02*
X0252041Y0114096D01*
X0252041Y0114134D02*
X0253325Y0114134D01*
X0253325Y0114171D02*
X0251076Y0114171D01*
X0248342Y0114171D01*
X0248342Y0114134D02*
X0251076Y0114134D01*
X0251994Y0114134D01*
X0251938Y0114096D02*
X0251076Y0114096D01*
X0249678Y0114096D01*
X0249627Y0114096D02*
X0248342Y0114096D01*
X0248342Y0114058D02*
X0249627Y0114058D01*
X0249627Y0114020D02*
X0248342Y0114020D01*
X0248342Y0113982D02*
X0249627Y0113982D01*
X0249627Y0113944D02*
X0248342Y0113944D01*
X0248342Y0113906D02*
X0249627Y0113906D01*
X0249627Y0113868D02*
X0248342Y0113868D01*
X0248342Y0113830D02*
X0249627Y0113830D01*
X0249627Y0113793D02*
X0248342Y0113793D01*
X0248342Y0113755D02*
X0249627Y0113755D01*
X0249627Y0113717D02*
X0248342Y0113717D01*
X0248342Y0113679D02*
X0249627Y0113679D01*
X0249627Y0113641D02*
X0248342Y0113641D01*
X0248342Y0113603D02*
X0249627Y0113603D01*
X0249627Y0113565D02*
X0248342Y0113565D01*
X0248342Y0113527D02*
X0249627Y0113527D01*
X0249658Y0113490D02*
X0248342Y0113490D01*
X0248342Y0113452D02*
X0249716Y0113452D01*
X0249774Y0113414D02*
X0248342Y0113414D01*
X0248342Y0113376D02*
X0249833Y0113376D01*
X0249891Y0113338D02*
X0248342Y0113338D01*
X0248342Y0113300D02*
X0249950Y0113300D01*
X0250008Y0113262D02*
X0248342Y0113262D01*
X0248342Y0113224D02*
X0250067Y0113224D01*
X0250125Y0113187D02*
X0248342Y0113187D01*
X0248342Y0113149D02*
X0250184Y0113149D01*
X0250242Y0113111D02*
X0248342Y0113111D01*
X0248342Y0113073D02*
X0250300Y0113073D01*
X0250359Y0113035D02*
X0248342Y0113035D01*
X0248342Y0112997D02*
X0250403Y0112997D01*
X0250345Y0112959D02*
X0248342Y0112959D01*
X0248342Y0112921D02*
X0250287Y0112921D01*
X0250229Y0112883D02*
X0248342Y0112883D01*
X0248342Y0112846D02*
X0250171Y0112846D01*
X0250113Y0112808D02*
X0248342Y0112808D01*
X0248342Y0112770D02*
X0250055Y0112770D01*
X0249997Y0112732D02*
X0248342Y0112732D01*
X0248342Y0112694D02*
X0249939Y0112694D01*
X0249881Y0112656D02*
X0248342Y0112656D01*
X0248342Y0112618D02*
X0249823Y0112618D01*
X0249765Y0112580D02*
X0248342Y0112580D01*
X0248342Y0112543D02*
X0249707Y0112543D01*
X0249649Y0112505D02*
X0248342Y0112505D01*
X0248342Y0112467D02*
X0249627Y0112467D01*
X0249627Y0112429D02*
X0248342Y0112429D01*
X0248342Y0112391D02*
X0249627Y0112391D01*
X0249627Y0112353D02*
X0248342Y0112353D01*
X0248342Y0112315D02*
X0249627Y0112315D01*
X0249627Y0112277D02*
X0248342Y0112277D01*
X0248342Y0112239D02*
X0249627Y0112239D01*
X0249627Y0112202D02*
X0248342Y0112202D01*
X0248342Y0112164D02*
X0249627Y0112164D01*
X0249627Y0112126D02*
X0248342Y0112126D01*
X0248342Y0112088D02*
X0249627Y0112088D01*
X0249627Y0112050D02*
X0248342Y0112050D01*
X0248342Y0112012D02*
X0249627Y0112012D01*
X0249627Y0111974D02*
X0248342Y0111974D01*
X0248342Y0111936D02*
X0249627Y0111936D01*
X0249627Y0111899D02*
X0248342Y0111899D01*
X0249644Y0111899D02*
X0251076Y0111899D01*
X0251972Y0111899D01*
X0251916Y0111936D02*
X0251076Y0111936D01*
X0249699Y0111936D01*
X0249754Y0111974D02*
X0251076Y0111974D01*
X0251861Y0111974D01*
X0251805Y0112012D02*
X0251076Y0112012D01*
X0249810Y0112012D01*
X0249865Y0112050D02*
X0251076Y0112050D01*
X0251750Y0112050D01*
X0251694Y0112088D02*
X0251076Y0112088D01*
X0249921Y0112088D01*
X0249976Y0112126D02*
X0251076Y0112126D01*
X0251639Y0112126D01*
X0251583Y0112164D02*
X0251076Y0112164D01*
X0250031Y0112164D01*
X0250087Y0112202D02*
X0251076Y0112202D01*
X0251528Y0112202D01*
X0251472Y0112239D02*
X0251076Y0112239D01*
X0250142Y0112239D01*
X0250197Y0112277D02*
X0251076Y0112277D01*
X0251417Y0112277D01*
X0251361Y0112315D02*
X0251076Y0112315D01*
X0250253Y0112315D01*
X0250308Y0112353D02*
X0251076Y0112353D01*
X0251306Y0112353D01*
X0251250Y0112391D02*
X0251076Y0112391D01*
X0250364Y0112391D01*
X0250419Y0112429D02*
X0251076Y0112429D01*
X0251195Y0112429D01*
X0251139Y0112467D02*
X0251076Y0112467D01*
X0250474Y0112467D01*
X0250530Y0112505D02*
X0251076Y0112505D01*
X0251083Y0112505D01*
X0251028Y0112543D02*
X0250585Y0112543D01*
X0250641Y0112580D02*
X0250972Y0112580D01*
X0250917Y0112618D02*
X0250696Y0112618D01*
X0250751Y0112656D02*
X0250861Y0112656D01*
X0250834Y0113338D02*
X0250793Y0113338D01*
X0250737Y0113376D02*
X0250890Y0113376D01*
X0250945Y0113414D02*
X0250681Y0113414D01*
X0250625Y0113452D02*
X0251000Y0113452D01*
X0251055Y0113490D02*
X0250570Y0113490D01*
X0250514Y0113527D02*
X0251076Y0113527D01*
X0251110Y0113527D01*
X0251076Y0113565D02*
X0251166Y0113565D01*
X0251221Y0113603D02*
X0251076Y0113603D01*
X0250403Y0113603D01*
X0250458Y0113565D02*
X0251076Y0113565D01*
X0251076Y0113641D02*
X0251276Y0113641D01*
X0251331Y0113679D02*
X0251076Y0113679D01*
X0250291Y0113679D01*
X0250235Y0113717D02*
X0251076Y0113717D01*
X0251386Y0113717D01*
X0251442Y0113755D02*
X0251076Y0113755D01*
X0250180Y0113755D01*
X0250124Y0113793D02*
X0251076Y0113793D01*
X0251497Y0113793D01*
X0251552Y0113830D02*
X0251076Y0113830D01*
X0250068Y0113830D01*
X0250012Y0113868D02*
X0251076Y0113868D01*
X0251607Y0113868D01*
X0251662Y0113906D02*
X0251076Y0113906D01*
X0249957Y0113906D01*
X0249901Y0113944D02*
X0251076Y0113944D01*
X0251718Y0113944D01*
X0251773Y0113982D02*
X0251076Y0113982D01*
X0249845Y0113982D01*
X0249790Y0114020D02*
X0251076Y0114020D01*
X0251828Y0114020D01*
X0251883Y0114058D02*
X0251076Y0114058D01*
X0249734Y0114058D01*
X0250347Y0113641D02*
X0251076Y0113641D01*
X0251076Y0114209D02*
X0248342Y0114209D01*
X0248342Y0114247D02*
X0251076Y0114247D01*
X0253325Y0114247D01*
X0253325Y0114209D02*
X0251076Y0114209D01*
X0251076Y0114285D02*
X0253325Y0114285D01*
X0253325Y0114323D02*
X0251076Y0114323D01*
X0248342Y0114323D01*
X0248342Y0114361D02*
X0251076Y0114361D01*
X0253325Y0114361D01*
X0253325Y0114399D02*
X0251076Y0114399D01*
X0248342Y0114399D01*
X0248342Y0114437D02*
X0251076Y0114437D01*
X0253325Y0114437D01*
X0253325Y0114474D02*
X0251076Y0114474D01*
X0248342Y0114474D01*
X0248342Y0114512D02*
X0251076Y0114512D01*
X0253325Y0114512D01*
X0253325Y0114550D02*
X0251076Y0114550D01*
X0248342Y0114550D01*
X0248342Y0114588D02*
X0251076Y0114588D01*
X0253325Y0114588D01*
X0253325Y0114626D02*
X0251076Y0114626D01*
X0248342Y0114626D01*
X0248342Y0114664D02*
X0251076Y0114664D01*
X0253325Y0114664D01*
X0253325Y0114702D02*
X0251076Y0114702D01*
X0248342Y0114702D01*
X0248342Y0114740D02*
X0251076Y0114740D01*
X0253325Y0114740D01*
X0253325Y0114778D02*
X0251076Y0114778D01*
X0248342Y0114778D01*
X0248342Y0114815D02*
X0251076Y0114815D01*
X0253325Y0114815D01*
X0253325Y0114853D02*
X0251076Y0114853D01*
X0248342Y0114853D01*
X0248342Y0114891D02*
X0251076Y0114891D01*
X0253325Y0114891D01*
X0253325Y0114929D02*
X0251076Y0114929D01*
X0248342Y0114929D01*
X0248342Y0114967D02*
X0251076Y0114967D01*
X0253325Y0114967D01*
X0253325Y0115005D02*
X0251076Y0115005D01*
X0248342Y0115005D01*
X0248342Y0115043D02*
X0248805Y0115043D01*
X0248805Y0115081D02*
X0248342Y0115081D01*
X0248342Y0115118D02*
X0248805Y0115118D01*
X0248805Y0115156D02*
X0248342Y0115156D01*
X0248342Y0115194D02*
X0248805Y0115194D01*
X0248805Y0115232D02*
X0248342Y0115232D01*
X0248342Y0115270D02*
X0248805Y0115270D01*
X0248805Y0115308D02*
X0248342Y0115308D01*
X0248342Y0115346D02*
X0248805Y0115346D01*
X0248805Y0115384D02*
X0248342Y0115384D01*
X0248342Y0115422D02*
X0248805Y0115422D01*
X0248805Y0115459D02*
X0248342Y0115459D01*
X0248342Y0115497D02*
X0248805Y0115497D01*
X0248805Y0115535D02*
X0248342Y0115535D01*
X0248342Y0115573D02*
X0248805Y0115573D01*
X0248805Y0115611D02*
X0248342Y0115611D01*
X0248342Y0115649D02*
X0248805Y0115649D01*
X0248805Y0115687D02*
X0248342Y0115687D01*
X0248342Y0115725D02*
X0248805Y0115725D01*
X0248805Y0115762D02*
X0248342Y0115762D01*
X0248342Y0115800D02*
X0248805Y0115800D01*
X0248805Y0115838D02*
X0248342Y0115838D01*
X0248342Y0115876D02*
X0248805Y0115876D01*
X0248805Y0115914D02*
X0248342Y0115914D01*
X0248342Y0115952D02*
X0248805Y0115952D01*
X0248805Y0115990D02*
X0248342Y0115990D01*
X0248342Y0116028D02*
X0248805Y0116028D01*
X0248805Y0116066D02*
X0248342Y0116066D01*
X0248342Y0116103D02*
X0248805Y0116103D01*
X0248805Y0116141D02*
X0248342Y0116141D01*
X0248342Y0116179D02*
X0248805Y0116179D01*
X0248805Y0116217D02*
X0248342Y0116217D01*
X0248342Y0116255D02*
X0248805Y0116255D01*
X0248805Y0116293D02*
X0248342Y0116293D01*
X0248342Y0116331D02*
X0248805Y0116331D01*
X0248805Y0116369D02*
X0248342Y0116369D01*
X0248342Y0116406D02*
X0248805Y0116406D01*
X0248805Y0116444D02*
X0248342Y0116444D01*
X0248342Y0116482D02*
X0248805Y0116482D01*
X0248805Y0116520D02*
X0248342Y0116520D01*
X0248342Y0116558D02*
X0248805Y0116558D01*
X0248805Y0116596D02*
X0248342Y0116596D01*
X0248342Y0116634D02*
X0248805Y0116634D01*
X0248805Y0116672D02*
X0248342Y0116672D01*
X0248342Y0116709D02*
X0248805Y0116709D01*
X0248805Y0116747D02*
X0248342Y0116747D01*
X0248342Y0116785D02*
X0248805Y0116785D01*
X0248805Y0116823D02*
X0248342Y0116823D01*
X0248342Y0116861D02*
X0248805Y0116861D01*
X0248805Y0116899D02*
X0248342Y0116899D01*
X0248342Y0116937D02*
X0248805Y0116937D01*
X0248805Y0116975D02*
X0248342Y0116975D01*
X0248342Y0117013D02*
X0248805Y0117013D01*
X0248805Y0117050D02*
X0248342Y0117050D01*
X0248342Y0117088D02*
X0248805Y0117088D01*
X0248805Y0117126D02*
X0248342Y0117126D01*
X0248342Y0117164D02*
X0248805Y0117164D01*
X0248805Y0117202D02*
X0248342Y0117202D01*
X0248342Y0117240D02*
X0248805Y0117240D01*
X0248805Y0117278D02*
X0248342Y0117278D01*
X0248342Y0117316D02*
X0248805Y0117316D01*
X0248805Y0117353D02*
X0248342Y0117353D01*
X0248342Y0117391D02*
X0248805Y0117391D01*
X0248805Y0117429D02*
X0248342Y0117429D01*
X0248342Y0117467D02*
X0248805Y0117467D01*
X0248805Y0117505D02*
X0248342Y0117505D01*
X0248342Y0117543D02*
X0248805Y0117543D01*
X0248805Y0117581D02*
X0248342Y0117581D01*
X0248342Y0117619D02*
X0248805Y0117619D01*
X0248805Y0117657D02*
X0248342Y0117657D01*
X0248342Y0117694D02*
X0248805Y0117694D01*
X0248805Y0117732D02*
X0248342Y0117732D01*
X0248342Y0117770D02*
X0248805Y0117770D01*
X0248805Y0117808D02*
X0248342Y0117808D01*
X0248342Y0117846D02*
X0248805Y0117846D01*
X0248805Y0117884D02*
X0248342Y0117884D01*
X0248342Y0117922D02*
X0248805Y0117922D01*
X0248805Y0117960D02*
X0248342Y0117960D01*
X0248342Y0117997D02*
X0248805Y0117997D01*
X0248805Y0118035D02*
X0248342Y0118035D01*
X0248342Y0118073D02*
X0248805Y0118073D01*
X0248805Y0118111D02*
X0248342Y0118111D01*
X0248342Y0118149D02*
X0248805Y0118149D01*
X0248805Y0118187D02*
X0248342Y0118187D01*
X0248342Y0118225D02*
X0248805Y0118225D01*
X0248805Y0118263D02*
X0248342Y0118263D01*
X0248342Y0118301D02*
X0248805Y0118301D01*
X0248805Y0118338D02*
X0248342Y0118338D01*
X0248342Y0118376D02*
X0248805Y0118376D01*
X0248805Y0118414D02*
X0248342Y0118414D01*
X0248342Y0118452D02*
X0248805Y0118452D01*
X0248805Y0118490D02*
X0248342Y0118490D01*
X0248342Y0118528D02*
X0248805Y0118528D01*
X0248805Y0118566D02*
X0248342Y0118566D01*
X0248342Y0118604D02*
X0248805Y0118604D01*
X0248805Y0118641D02*
X0248342Y0118641D01*
X0248342Y0118679D02*
X0248805Y0118679D01*
X0248805Y0118717D02*
X0248342Y0118717D01*
X0248342Y0118755D02*
X0248805Y0118755D01*
X0248805Y0118793D02*
X0248342Y0118793D01*
X0248342Y0118831D02*
X0248805Y0118831D01*
X0248805Y0118869D02*
X0248342Y0118869D01*
X0248342Y0118907D02*
X0248805Y0118907D01*
X0248805Y0118944D02*
X0248342Y0118944D01*
X0248342Y0118982D02*
X0248805Y0118982D01*
X0248805Y0119020D02*
X0248342Y0119020D01*
X0248342Y0119058D02*
X0248805Y0119058D01*
X0248805Y0119096D02*
X0248342Y0119096D01*
X0248342Y0119134D02*
X0248805Y0119134D01*
X0248805Y0119172D02*
X0248342Y0119172D01*
X0248342Y0119210D02*
X0248805Y0119210D01*
X0248805Y0119248D02*
X0248342Y0119248D01*
X0248342Y0119285D02*
X0248805Y0119285D01*
X0248805Y0119323D02*
X0248342Y0119323D01*
X0248342Y0119361D02*
X0248805Y0119361D01*
X0248805Y0119399D02*
X0248342Y0119399D01*
X0248342Y0119437D02*
X0248805Y0119437D01*
X0248805Y0119475D02*
X0248342Y0119475D01*
X0248342Y0119513D02*
X0248805Y0119513D01*
X0248805Y0119551D02*
X0248342Y0119551D01*
X0248342Y0119588D02*
X0248805Y0119588D01*
X0248805Y0119626D02*
X0248342Y0119626D01*
X0248342Y0119664D02*
X0248805Y0119664D01*
X0248805Y0119702D02*
X0248342Y0119702D01*
X0248342Y0119740D02*
X0248805Y0119740D01*
X0248805Y0119778D02*
X0248342Y0119778D01*
X0248342Y0119816D02*
X0248805Y0119816D01*
X0248805Y0119854D02*
X0248342Y0119854D01*
X0248342Y0119892D02*
X0248805Y0119892D01*
X0248805Y0119929D02*
X0248342Y0119929D01*
X0248342Y0119967D02*
X0248805Y0119967D01*
X0248805Y0120005D02*
X0248342Y0120005D01*
X0248342Y0120043D02*
X0248805Y0120043D01*
X0248805Y0120081D02*
X0248342Y0120081D01*
X0248342Y0120119D02*
X0248805Y0120119D01*
X0248805Y0120157D02*
X0248342Y0120157D01*
X0248342Y0120195D02*
X0248805Y0120195D01*
X0248805Y0120232D02*
X0248342Y0120232D01*
X0248342Y0120270D02*
X0248805Y0120270D01*
X0248805Y0120308D02*
X0248342Y0120308D01*
X0248342Y0120346D02*
X0248805Y0120346D01*
X0248805Y0120384D02*
X0248342Y0120384D01*
X0248342Y0120422D02*
X0248805Y0120422D01*
X0248805Y0120460D02*
X0248342Y0120460D01*
X0248342Y0120498D02*
X0248805Y0120498D01*
X0248805Y0120536D02*
X0248342Y0120536D01*
X0248342Y0120573D02*
X0248805Y0120573D01*
X0248805Y0120611D02*
X0248342Y0120611D01*
X0248342Y0120649D02*
X0248805Y0120649D01*
X0248805Y0120687D02*
X0248342Y0120687D01*
X0248342Y0120725D02*
X0248805Y0120725D01*
X0248805Y0120763D02*
X0248342Y0120763D01*
X0248342Y0120801D02*
X0248805Y0120801D01*
X0248805Y0120839D02*
X0248342Y0120839D01*
X0248342Y0120876D02*
X0248805Y0120876D01*
X0248805Y0120914D02*
X0248342Y0120914D01*
X0248342Y0120952D02*
X0248805Y0120952D01*
X0248805Y0120990D02*
X0248342Y0120990D01*
X0248342Y0121028D02*
X0248805Y0121028D01*
X0248805Y0121066D02*
X0248342Y0121066D01*
X0248342Y0121104D02*
X0248805Y0121104D01*
X0248805Y0121142D02*
X0248342Y0121142D01*
X0248342Y0121179D02*
X0248805Y0121179D01*
X0248805Y0121217D02*
X0248342Y0121217D01*
X0248342Y0121255D02*
X0248805Y0121255D01*
X0248805Y0121293D02*
X0248342Y0121293D01*
X0248342Y0121331D02*
X0248805Y0121331D01*
X0248805Y0121369D02*
X0248342Y0121369D01*
X0248342Y0121407D02*
X0248805Y0121407D01*
X0248805Y0121445D02*
X0248342Y0121445D01*
X0248342Y0121483D02*
X0248805Y0121483D01*
X0248805Y0121520D02*
X0248342Y0121520D01*
X0248342Y0121558D02*
X0248805Y0121558D01*
X0248805Y0121596D02*
X0248342Y0121596D01*
X0248342Y0121634D02*
X0248805Y0121634D01*
X0248805Y0121672D02*
X0248342Y0121672D01*
X0248342Y0121710D02*
X0248805Y0121710D01*
X0248805Y0121748D02*
X0248342Y0121748D01*
X0248342Y0121786D02*
X0248805Y0121786D01*
X0248805Y0121823D02*
X0248342Y0121823D01*
X0248342Y0121861D02*
X0248805Y0121861D01*
X0248805Y0121899D02*
X0248342Y0121899D01*
X0248342Y0121937D02*
X0248805Y0121937D01*
X0248805Y0121975D02*
X0248342Y0121975D01*
X0248342Y0122013D02*
X0248805Y0122013D01*
X0248805Y0122051D02*
X0248342Y0122051D01*
X0248342Y0122089D02*
X0248805Y0122089D01*
X0248805Y0122127D02*
X0248342Y0122127D01*
X0248342Y0122164D02*
X0248805Y0122164D01*
X0248805Y0122202D02*
X0248342Y0122202D01*
X0248342Y0122240D02*
X0248805Y0122240D01*
X0248805Y0122278D02*
X0248342Y0122278D01*
X0248342Y0122316D02*
X0248805Y0122316D01*
X0248805Y0122354D02*
X0248342Y0122354D01*
X0248342Y0122392D02*
X0248805Y0122392D01*
X0248805Y0122430D02*
X0248342Y0122430D01*
X0248342Y0122467D02*
X0248805Y0122467D01*
X0248805Y0122505D02*
X0248342Y0122505D01*
X0248342Y0122543D02*
X0248805Y0122543D01*
X0248805Y0122581D02*
X0248342Y0122581D01*
X0248342Y0122619D02*
X0248805Y0122619D01*
X0248805Y0122657D02*
X0248342Y0122657D01*
X0248342Y0122695D02*
X0248805Y0122695D01*
X0248805Y0122733D02*
X0248342Y0122733D01*
X0248342Y0122771D02*
X0248805Y0122771D01*
X0248805Y0122808D02*
X0248342Y0122808D01*
X0248342Y0122846D02*
X0248805Y0122846D01*
X0248805Y0122884D02*
X0248342Y0122884D01*
X0248342Y0122922D02*
X0248805Y0122922D01*
X0248805Y0122960D02*
X0248342Y0122960D01*
X0248342Y0122998D02*
X0248805Y0122998D01*
X0248805Y0123036D02*
X0248342Y0123036D01*
X0248342Y0123074D02*
X0248805Y0123074D01*
X0248805Y0123111D02*
X0248342Y0123111D01*
X0248342Y0123149D02*
X0248805Y0123149D01*
X0248805Y0123187D02*
X0248342Y0123187D01*
X0248342Y0123225D02*
X0248805Y0123225D01*
X0248805Y0123263D02*
X0248342Y0123263D01*
X0248342Y0123301D02*
X0248805Y0123301D01*
X0248805Y0123339D02*
X0248342Y0123339D01*
X0248342Y0123377D02*
X0248805Y0123377D01*
X0248805Y0123414D02*
X0248342Y0123414D01*
X0248342Y0123452D02*
X0248805Y0123452D01*
X0248805Y0123490D02*
X0248342Y0123490D01*
X0248342Y0123528D02*
X0248805Y0123528D01*
X0248805Y0123566D02*
X0248342Y0123566D01*
X0248342Y0123604D02*
X0248805Y0123604D01*
X0248805Y0123642D02*
X0248342Y0123642D01*
X0248342Y0123680D02*
X0248805Y0123680D01*
X0248805Y0123718D02*
X0248342Y0123718D01*
X0248342Y0123755D02*
X0248805Y0123755D01*
X0248805Y0123793D02*
X0248342Y0123793D01*
X0248342Y0123831D02*
X0248805Y0123831D01*
X0248805Y0123869D02*
X0248342Y0123869D01*
X0248342Y0123907D02*
X0248805Y0123907D01*
X0248805Y0123945D02*
X0248342Y0123945D01*
X0248342Y0123983D02*
X0248805Y0123983D01*
X0248805Y0124021D02*
X0248342Y0124021D01*
X0248342Y0124058D02*
X0248805Y0124058D01*
X0248805Y0124096D02*
X0248342Y0124096D01*
X0248342Y0124134D02*
X0248805Y0124134D01*
X0248805Y0124172D02*
X0248342Y0124172D01*
X0248342Y0124210D02*
X0248805Y0124210D01*
X0248805Y0124248D02*
X0248342Y0124248D01*
X0248342Y0124286D02*
X0248805Y0124286D01*
X0248805Y0124324D02*
X0248342Y0124324D01*
X0248342Y0124362D02*
X0248805Y0124362D01*
X0248805Y0124399D02*
X0248342Y0124399D01*
X0248342Y0124437D02*
X0248805Y0124437D01*
X0248805Y0124475D02*
X0248342Y0124475D01*
X0248342Y0124513D02*
X0248805Y0124513D01*
X0248805Y0124551D02*
X0248342Y0124551D01*
X0248342Y0124589D02*
X0248805Y0124589D01*
X0248805Y0124627D02*
X0248342Y0124627D01*
X0248342Y0124665D02*
X0248805Y0124665D01*
X0248805Y0124702D02*
X0248342Y0124702D01*
X0248342Y0124740D02*
X0248805Y0124740D01*
X0248805Y0124778D02*
X0248342Y0124778D01*
X0248342Y0124816D02*
X0248805Y0124816D01*
X0248805Y0124854D02*
X0248342Y0124854D01*
X0248342Y0124892D02*
X0248805Y0124892D01*
X0248805Y0124930D02*
X0248342Y0124930D01*
X0248342Y0124968D02*
X0248805Y0124968D01*
X0248805Y0125006D02*
X0248342Y0125006D01*
X0248342Y0125043D02*
X0248805Y0125043D01*
X0248805Y0125081D02*
X0248342Y0125081D01*
X0248342Y0125119D02*
X0248805Y0125119D01*
X0248805Y0125157D02*
X0248342Y0125157D01*
X0248342Y0125195D02*
X0248805Y0125195D01*
X0248805Y0125233D02*
X0248342Y0125233D01*
X0248342Y0125271D02*
X0248805Y0125271D01*
X0248805Y0125309D02*
X0248342Y0125309D01*
X0248342Y0125346D02*
X0248805Y0125346D01*
X0248805Y0125384D02*
X0248342Y0125384D01*
X0248342Y0125422D02*
X0248805Y0125422D01*
X0248805Y0125460D02*
X0248342Y0125460D01*
X0248342Y0125498D02*
X0248805Y0125498D01*
X0248805Y0125536D02*
X0248342Y0125536D01*
X0248342Y0125574D02*
X0248805Y0125574D01*
X0248805Y0125612D02*
X0248342Y0125612D01*
X0248342Y0125649D02*
X0248805Y0125649D01*
X0248805Y0125687D02*
X0248342Y0125687D01*
X0248342Y0125725D02*
X0248805Y0125725D01*
X0248805Y0125763D02*
X0248342Y0125763D01*
X0248342Y0125801D02*
X0248805Y0125801D01*
X0248805Y0125839D02*
X0248342Y0125839D01*
X0248342Y0125877D02*
X0248805Y0125877D01*
X0248805Y0125915D02*
X0248342Y0125915D01*
X0248342Y0125953D02*
X0248805Y0125953D01*
X0248805Y0125990D02*
X0248342Y0125990D01*
X0248342Y0126028D02*
X0248805Y0126028D01*
X0248805Y0126066D02*
X0248342Y0126066D01*
X0248342Y0126104D02*
X0248805Y0126104D01*
X0248805Y0126142D02*
X0248342Y0126142D01*
X0248342Y0126180D02*
X0248805Y0126180D01*
X0248805Y0126218D02*
X0248342Y0126218D01*
X0248342Y0126256D02*
X0248805Y0126256D01*
X0248805Y0126293D02*
X0248342Y0126293D01*
X0248342Y0126331D02*
X0248805Y0126331D01*
X0248805Y0126369D02*
X0248342Y0126369D01*
X0248342Y0126407D02*
X0248805Y0126407D01*
X0248805Y0126445D02*
X0248342Y0126445D01*
X0248342Y0126483D02*
X0248805Y0126483D01*
X0248805Y0126521D02*
X0248342Y0126521D01*
X0248342Y0126559D02*
X0248805Y0126559D01*
X0248805Y0126597D02*
X0248342Y0126597D01*
X0248342Y0126634D02*
X0248805Y0126634D01*
X0248805Y0126672D02*
X0248342Y0126672D01*
X0248342Y0126710D02*
X0248805Y0126710D01*
X0248805Y0126748D02*
X0248342Y0126748D01*
X0248342Y0126786D02*
X0248805Y0126786D01*
X0248805Y0126824D02*
X0248342Y0126824D01*
X0248342Y0126862D02*
X0248805Y0126862D01*
X0248805Y0126900D02*
X0248342Y0126900D01*
X0248342Y0126937D02*
X0248805Y0126937D01*
X0248805Y0126975D02*
X0248342Y0126975D01*
X0248342Y0127013D02*
X0248805Y0127013D01*
X0248805Y0127051D02*
X0248342Y0127051D01*
X0248342Y0127089D02*
X0248805Y0127089D01*
X0248805Y0127127D02*
X0248342Y0127127D01*
X0248342Y0127165D02*
X0248805Y0127165D01*
X0248805Y0127203D02*
X0248342Y0127203D01*
X0248342Y0127241D02*
X0248805Y0127241D01*
X0248805Y0127278D02*
X0248342Y0127278D01*
X0248342Y0127316D02*
X0248805Y0127316D01*
X0248805Y0127354D02*
X0248342Y0127354D01*
X0248342Y0127392D02*
X0248805Y0127392D01*
X0248805Y0127430D02*
X0248342Y0127430D01*
X0248342Y0127468D02*
X0248805Y0127468D01*
X0248805Y0127506D02*
X0248342Y0127506D01*
X0248342Y0127544D02*
X0248805Y0127544D01*
X0248805Y0127581D02*
X0248342Y0127581D01*
X0248342Y0127619D02*
X0248805Y0127619D01*
X0248805Y0127657D02*
X0248342Y0127657D01*
X0248342Y0127695D02*
X0248805Y0127695D01*
X0248805Y0127733D02*
X0248342Y0127733D01*
X0248342Y0127771D02*
X0248805Y0127771D01*
X0248805Y0127809D02*
X0248342Y0127809D01*
X0248342Y0127847D02*
X0248805Y0127847D01*
X0248805Y0127884D02*
X0248342Y0127884D01*
X0248342Y0127922D02*
X0248805Y0127922D01*
X0248805Y0127960D02*
X0248342Y0127960D01*
X0248342Y0127998D02*
X0248805Y0127998D01*
X0248805Y0128036D02*
X0248342Y0128036D01*
X0248342Y0128074D02*
X0248805Y0128074D01*
X0248805Y0128112D02*
X0248342Y0128112D01*
X0248342Y0128150D02*
X0248805Y0128150D01*
X0248805Y0128188D02*
X0248342Y0128188D01*
X0248342Y0128225D02*
X0248805Y0128225D01*
X0248805Y0128263D02*
X0248342Y0128263D01*
X0248342Y0128301D02*
X0248805Y0128301D01*
X0248805Y0128339D02*
X0248342Y0128339D01*
X0248342Y0128377D02*
X0248805Y0128377D01*
X0248805Y0128415D02*
X0248342Y0128415D01*
X0248342Y0128453D02*
X0248805Y0128453D01*
X0248805Y0128491D02*
X0248342Y0128491D01*
X0248342Y0128528D02*
X0248805Y0128528D01*
X0248342Y0128566D02*
X0253325Y0128566D01*
X0253325Y0128528D02*
X0252862Y0128528D01*
X0252862Y0128491D02*
X0253325Y0128491D01*
X0253325Y0128453D02*
X0252862Y0128453D01*
X0252862Y0128415D02*
X0253325Y0128415D01*
X0253325Y0128377D02*
X0252862Y0128377D01*
X0252862Y0128339D02*
X0253325Y0128339D01*
X0253325Y0128301D02*
X0252862Y0128301D01*
X0252862Y0128263D02*
X0253325Y0128263D01*
X0253325Y0128225D02*
X0252862Y0128225D01*
X0252862Y0128188D02*
X0253325Y0128188D01*
X0253325Y0128150D02*
X0252862Y0128150D01*
X0252862Y0128112D02*
X0253325Y0128112D01*
X0253325Y0128074D02*
X0252862Y0128074D01*
X0252862Y0128036D02*
X0253325Y0128036D01*
X0253325Y0127998D02*
X0252862Y0127998D01*
X0252862Y0127960D02*
X0253325Y0127960D01*
X0253325Y0127922D02*
X0252862Y0127922D01*
X0252862Y0127884D02*
X0253325Y0127884D01*
X0253325Y0127847D02*
X0252862Y0127847D01*
X0252862Y0127809D02*
X0253325Y0127809D01*
X0253325Y0127771D02*
X0252862Y0127771D01*
X0252862Y0127733D02*
X0253325Y0127733D01*
X0253325Y0127695D02*
X0252862Y0127695D01*
X0252862Y0127657D02*
X0253325Y0127657D01*
X0253325Y0127619D02*
X0252862Y0127619D01*
X0252862Y0127581D02*
X0253325Y0127581D01*
X0253325Y0127544D02*
X0252862Y0127544D01*
X0252862Y0127506D02*
X0253325Y0127506D01*
X0253325Y0127468D02*
X0252862Y0127468D01*
X0252862Y0127430D02*
X0253325Y0127430D01*
X0253325Y0127392D02*
X0252862Y0127392D01*
X0252862Y0127354D02*
X0253325Y0127354D01*
X0253325Y0127316D02*
X0252862Y0127316D01*
X0252862Y0127278D02*
X0253325Y0127278D01*
X0253325Y0127241D02*
X0252862Y0127241D01*
X0252862Y0127203D02*
X0253325Y0127203D01*
X0253325Y0127165D02*
X0252862Y0127165D01*
X0252862Y0127127D02*
X0253325Y0127127D01*
X0253325Y0127089D02*
X0252862Y0127089D01*
X0252862Y0127051D02*
X0253325Y0127051D01*
X0253325Y0127013D02*
X0252862Y0127013D01*
X0252862Y0126975D02*
X0253325Y0126975D01*
X0253325Y0126937D02*
X0252862Y0126937D01*
X0252862Y0126900D02*
X0253325Y0126900D01*
X0253325Y0126862D02*
X0252862Y0126862D01*
X0252862Y0126824D02*
X0253325Y0126824D01*
X0253325Y0126786D02*
X0252862Y0126786D01*
X0252862Y0126748D02*
X0253325Y0126748D01*
X0253325Y0126710D02*
X0252862Y0126710D01*
X0252862Y0126672D02*
X0253325Y0126672D01*
X0253325Y0126634D02*
X0252862Y0126634D01*
X0252862Y0126597D02*
X0253325Y0126597D01*
X0253325Y0126559D02*
X0252862Y0126559D01*
X0252862Y0126521D02*
X0253325Y0126521D01*
X0253325Y0126483D02*
X0252862Y0126483D01*
X0252862Y0126445D02*
X0253325Y0126445D01*
X0253325Y0126407D02*
X0252862Y0126407D01*
X0252862Y0126369D02*
X0253325Y0126369D01*
X0253325Y0126331D02*
X0252862Y0126331D01*
X0252862Y0126293D02*
X0253325Y0126293D01*
X0253325Y0126256D02*
X0252862Y0126256D01*
X0252862Y0126218D02*
X0253325Y0126218D01*
X0253325Y0126180D02*
X0252862Y0126180D01*
X0252862Y0126142D02*
X0253325Y0126142D01*
X0253325Y0126104D02*
X0252862Y0126104D01*
X0252862Y0126066D02*
X0253325Y0126066D01*
X0253325Y0126028D02*
X0252862Y0126028D01*
X0252862Y0125990D02*
X0253325Y0125990D01*
X0253325Y0125953D02*
X0252862Y0125953D01*
X0252862Y0125915D02*
X0253325Y0125915D01*
X0253325Y0125877D02*
X0252862Y0125877D01*
X0252862Y0125839D02*
X0253325Y0125839D01*
X0253325Y0125801D02*
X0252862Y0125801D01*
X0252862Y0125763D02*
X0253325Y0125763D01*
X0253325Y0125725D02*
X0252862Y0125725D01*
X0252862Y0125687D02*
X0253325Y0125687D01*
X0253325Y0125649D02*
X0252862Y0125649D01*
X0252862Y0125612D02*
X0253325Y0125612D01*
X0253325Y0125574D02*
X0252862Y0125574D01*
X0252862Y0125536D02*
X0253325Y0125536D01*
X0253325Y0125498D02*
X0252862Y0125498D01*
X0252862Y0125460D02*
X0253325Y0125460D01*
X0253325Y0125422D02*
X0252862Y0125422D01*
X0252862Y0125384D02*
X0253325Y0125384D01*
X0253325Y0125346D02*
X0252862Y0125346D01*
X0252862Y0125309D02*
X0253325Y0125309D01*
X0253325Y0125271D02*
X0252862Y0125271D01*
X0252862Y0125233D02*
X0253325Y0125233D01*
X0253325Y0125195D02*
X0252862Y0125195D01*
X0252862Y0125157D02*
X0253325Y0125157D01*
X0253325Y0125119D02*
X0252862Y0125119D01*
X0252862Y0125081D02*
X0253325Y0125081D01*
X0253325Y0125043D02*
X0252862Y0125043D01*
X0252862Y0125006D02*
X0253325Y0125006D01*
X0253325Y0124968D02*
X0252862Y0124968D01*
X0252862Y0124930D02*
X0253325Y0124930D01*
X0253325Y0124892D02*
X0252862Y0124892D01*
X0252862Y0124854D02*
X0253325Y0124854D01*
X0253325Y0124816D02*
X0252862Y0124816D01*
X0252862Y0124778D02*
X0253325Y0124778D01*
X0253325Y0124740D02*
X0252862Y0124740D01*
X0252862Y0124702D02*
X0253325Y0124702D01*
X0253325Y0124665D02*
X0252862Y0124665D01*
X0252862Y0124627D02*
X0253325Y0124627D01*
X0253325Y0124589D02*
X0252862Y0124589D01*
X0252862Y0124551D02*
X0253325Y0124551D01*
X0253325Y0124513D02*
X0252862Y0124513D01*
X0252862Y0124475D02*
X0253325Y0124475D01*
X0253325Y0124437D02*
X0252862Y0124437D01*
X0252862Y0124399D02*
X0253325Y0124399D01*
X0253325Y0124362D02*
X0252862Y0124362D01*
X0252862Y0124324D02*
X0253325Y0124324D01*
X0253325Y0124286D02*
X0252862Y0124286D01*
X0252862Y0124248D02*
X0253325Y0124248D01*
X0253325Y0124210D02*
X0252862Y0124210D01*
X0252862Y0124172D02*
X0253325Y0124172D01*
X0253325Y0124134D02*
X0252862Y0124134D01*
X0252862Y0124096D02*
X0253325Y0124096D01*
X0253325Y0124058D02*
X0252862Y0124058D01*
X0252862Y0124021D02*
X0253325Y0124021D01*
X0253325Y0123983D02*
X0252862Y0123983D01*
X0252862Y0123945D02*
X0253325Y0123945D01*
X0253325Y0123907D02*
X0252862Y0123907D01*
X0252862Y0123869D02*
X0253325Y0123869D01*
X0253325Y0123831D02*
X0252862Y0123831D01*
X0252862Y0123793D02*
X0253325Y0123793D01*
X0253325Y0123755D02*
X0252862Y0123755D01*
X0252862Y0123718D02*
X0253325Y0123718D01*
X0253325Y0123680D02*
X0252862Y0123680D01*
X0252862Y0123642D02*
X0253325Y0123642D01*
X0253325Y0123604D02*
X0252862Y0123604D01*
X0252862Y0123566D02*
X0253325Y0123566D01*
X0253325Y0123528D02*
X0252862Y0123528D01*
X0252862Y0123490D02*
X0253325Y0123490D01*
X0253325Y0123452D02*
X0252862Y0123452D01*
X0252862Y0123414D02*
X0253325Y0123414D01*
X0253325Y0123377D02*
X0252862Y0123377D01*
X0252862Y0123339D02*
X0253325Y0123339D01*
X0253325Y0123301D02*
X0252862Y0123301D01*
X0252862Y0123263D02*
X0253325Y0123263D01*
X0253325Y0123225D02*
X0252862Y0123225D01*
X0252862Y0123187D02*
X0253325Y0123187D01*
X0253325Y0123149D02*
X0252862Y0123149D01*
X0252862Y0123111D02*
X0253325Y0123111D01*
X0253325Y0123074D02*
X0252862Y0123074D01*
X0252862Y0123036D02*
X0253325Y0123036D01*
X0253325Y0122998D02*
X0252862Y0122998D01*
X0252862Y0122960D02*
X0253325Y0122960D01*
X0253325Y0122922D02*
X0252862Y0122922D01*
X0252862Y0122884D02*
X0253325Y0122884D01*
X0253325Y0122846D02*
X0252862Y0122846D01*
X0252862Y0122808D02*
X0253325Y0122808D01*
X0253325Y0122771D02*
X0252862Y0122771D01*
X0252862Y0122733D02*
X0253325Y0122733D01*
X0253325Y0122695D02*
X0252862Y0122695D01*
X0252862Y0122657D02*
X0253325Y0122657D01*
X0253325Y0122619D02*
X0252862Y0122619D01*
X0252862Y0122581D02*
X0253325Y0122581D01*
X0253325Y0122543D02*
X0252862Y0122543D01*
X0252862Y0122505D02*
X0253325Y0122505D01*
X0253325Y0122467D02*
X0252862Y0122467D01*
X0252862Y0122430D02*
X0253325Y0122430D01*
X0253325Y0122392D02*
X0252862Y0122392D01*
X0252862Y0122354D02*
X0253325Y0122354D01*
X0253325Y0122316D02*
X0252862Y0122316D01*
X0252862Y0122278D02*
X0253325Y0122278D01*
X0253325Y0122240D02*
X0252862Y0122240D01*
X0252862Y0122202D02*
X0253325Y0122202D01*
X0253325Y0122164D02*
X0252862Y0122164D01*
X0252862Y0122127D02*
X0253325Y0122127D01*
X0253325Y0122089D02*
X0252862Y0122089D01*
X0252862Y0122051D02*
X0253325Y0122051D01*
X0253325Y0122013D02*
X0252862Y0122013D01*
X0252862Y0121975D02*
X0253325Y0121975D01*
X0253325Y0121937D02*
X0252862Y0121937D01*
X0252862Y0121899D02*
X0253325Y0121899D01*
X0253325Y0121861D02*
X0252862Y0121861D01*
X0252862Y0121823D02*
X0253325Y0121823D01*
X0253325Y0121786D02*
X0252862Y0121786D01*
X0252862Y0121748D02*
X0253325Y0121748D01*
X0253325Y0121710D02*
X0252862Y0121710D01*
X0252862Y0121672D02*
X0253325Y0121672D01*
X0253325Y0121634D02*
X0252862Y0121634D01*
X0252862Y0121596D02*
X0253325Y0121596D01*
X0253325Y0121558D02*
X0252862Y0121558D01*
X0252862Y0121520D02*
X0253325Y0121520D01*
X0253325Y0121483D02*
X0252862Y0121483D01*
X0252862Y0121445D02*
X0253325Y0121445D01*
X0253325Y0121407D02*
X0252862Y0121407D01*
X0252862Y0121369D02*
X0253325Y0121369D01*
X0253325Y0121331D02*
X0252862Y0121331D01*
X0252862Y0121293D02*
X0253325Y0121293D01*
X0253325Y0121255D02*
X0252862Y0121255D01*
X0252862Y0121217D02*
X0253325Y0121217D01*
X0253325Y0121179D02*
X0252862Y0121179D01*
X0252862Y0121142D02*
X0253325Y0121142D01*
X0253325Y0121104D02*
X0252862Y0121104D01*
X0252862Y0121066D02*
X0253325Y0121066D01*
X0253325Y0121028D02*
X0252862Y0121028D01*
X0252862Y0120990D02*
X0253325Y0120990D01*
X0253325Y0120952D02*
X0252862Y0120952D01*
X0252862Y0120914D02*
X0253325Y0120914D01*
X0253325Y0120876D02*
X0252862Y0120876D01*
X0252862Y0120839D02*
X0253325Y0120839D01*
X0253325Y0120801D02*
X0252862Y0120801D01*
X0252862Y0120763D02*
X0253325Y0120763D01*
X0253325Y0120725D02*
X0252862Y0120725D01*
X0252862Y0120687D02*
X0253325Y0120687D01*
X0253325Y0120649D02*
X0252862Y0120649D01*
X0252862Y0120611D02*
X0253325Y0120611D01*
X0253325Y0120573D02*
X0252862Y0120573D01*
X0252862Y0120536D02*
X0253325Y0120536D01*
X0253325Y0120498D02*
X0252862Y0120498D01*
X0252862Y0120460D02*
X0253325Y0120460D01*
X0253325Y0120422D02*
X0252862Y0120422D01*
X0252862Y0120384D02*
X0253325Y0120384D01*
X0253325Y0120346D02*
X0252862Y0120346D01*
X0252862Y0120308D02*
X0253325Y0120308D01*
X0253325Y0120270D02*
X0252862Y0120270D01*
X0252862Y0120232D02*
X0253325Y0120232D01*
X0253325Y0120195D02*
X0252862Y0120195D01*
X0252862Y0120157D02*
X0253325Y0120157D01*
X0253325Y0120119D02*
X0252862Y0120119D01*
X0252862Y0120081D02*
X0253325Y0120081D01*
X0253325Y0120043D02*
X0252862Y0120043D01*
X0252862Y0120005D02*
X0253325Y0120005D01*
X0253325Y0119967D02*
X0252862Y0119967D01*
X0252862Y0119929D02*
X0253325Y0119929D01*
X0253325Y0119892D02*
X0252862Y0119892D01*
X0252862Y0119854D02*
X0253325Y0119854D01*
X0253325Y0119816D02*
X0252862Y0119816D01*
X0252862Y0119778D02*
X0253325Y0119778D01*
X0253325Y0119740D02*
X0252862Y0119740D01*
X0252862Y0119702D02*
X0253325Y0119702D01*
X0253325Y0119664D02*
X0252862Y0119664D01*
X0252862Y0119626D02*
X0253325Y0119626D01*
X0253325Y0119588D02*
X0252862Y0119588D01*
X0252862Y0119551D02*
X0253325Y0119551D01*
X0253325Y0119513D02*
X0252862Y0119513D01*
X0252862Y0119475D02*
X0253325Y0119475D01*
X0253325Y0119437D02*
X0252862Y0119437D01*
X0252862Y0119399D02*
X0253325Y0119399D01*
X0253325Y0119361D02*
X0252862Y0119361D01*
X0252862Y0119323D02*
X0253325Y0119323D01*
X0253325Y0119285D02*
X0252862Y0119285D01*
X0252862Y0119248D02*
X0253325Y0119248D01*
X0253325Y0119210D02*
X0252862Y0119210D01*
X0252862Y0119172D02*
X0253325Y0119172D01*
X0253325Y0119134D02*
X0252862Y0119134D01*
X0252862Y0119096D02*
X0253325Y0119096D01*
X0253325Y0119058D02*
X0252862Y0119058D01*
X0252862Y0119020D02*
X0253325Y0119020D01*
X0253325Y0118982D02*
X0252862Y0118982D01*
X0252862Y0118944D02*
X0253325Y0118944D01*
X0253325Y0118907D02*
X0252862Y0118907D01*
X0252862Y0118869D02*
X0253325Y0118869D01*
X0253325Y0118831D02*
X0252862Y0118831D01*
X0252862Y0118793D02*
X0253325Y0118793D01*
X0253325Y0118755D02*
X0252862Y0118755D01*
X0252862Y0118717D02*
X0253325Y0118717D01*
X0253325Y0118679D02*
X0252862Y0118679D01*
X0252862Y0118641D02*
X0253325Y0118641D01*
X0253325Y0118604D02*
X0252862Y0118604D01*
X0252862Y0118566D02*
X0253325Y0118566D01*
X0253325Y0118528D02*
X0252862Y0118528D01*
X0252862Y0118490D02*
X0253325Y0118490D01*
X0253325Y0118452D02*
X0252862Y0118452D01*
X0252862Y0118414D02*
X0253325Y0118414D01*
X0253325Y0118376D02*
X0252862Y0118376D01*
X0252862Y0118338D02*
X0253325Y0118338D01*
X0253325Y0118301D02*
X0252862Y0118301D01*
X0252862Y0118263D02*
X0253325Y0118263D01*
X0253325Y0118225D02*
X0252862Y0118225D01*
X0252862Y0118187D02*
X0253325Y0118187D01*
X0253325Y0118149D02*
X0252862Y0118149D01*
X0252862Y0118111D02*
X0253325Y0118111D01*
X0253325Y0118073D02*
X0252862Y0118073D01*
X0252862Y0118035D02*
X0253325Y0118035D01*
X0253325Y0117997D02*
X0252862Y0117997D01*
X0252862Y0117960D02*
X0253325Y0117960D01*
X0253325Y0117922D02*
X0252862Y0117922D01*
X0252862Y0117884D02*
X0253325Y0117884D01*
X0253325Y0117846D02*
X0252862Y0117846D01*
X0252862Y0117808D02*
X0253325Y0117808D01*
X0253325Y0117770D02*
X0252862Y0117770D01*
X0252862Y0117732D02*
X0253325Y0117732D01*
X0253325Y0117694D02*
X0252862Y0117694D01*
X0252862Y0117657D02*
X0253325Y0117657D01*
X0253325Y0117619D02*
X0252862Y0117619D01*
X0252862Y0117581D02*
X0253325Y0117581D01*
X0253325Y0117543D02*
X0252862Y0117543D01*
X0252862Y0117505D02*
X0253325Y0117505D01*
X0253325Y0117467D02*
X0252862Y0117467D01*
X0252862Y0117429D02*
X0253325Y0117429D01*
X0253325Y0117391D02*
X0252862Y0117391D01*
X0252862Y0117353D02*
X0253325Y0117353D01*
X0253325Y0117316D02*
X0252862Y0117316D01*
X0252862Y0117278D02*
X0253325Y0117278D01*
X0253325Y0117240D02*
X0252862Y0117240D01*
X0252862Y0117202D02*
X0253325Y0117202D01*
X0253325Y0117164D02*
X0252862Y0117164D01*
X0252862Y0117126D02*
X0253325Y0117126D01*
X0253325Y0117088D02*
X0252862Y0117088D01*
X0252862Y0117050D02*
X0253325Y0117050D01*
X0253325Y0117013D02*
X0252862Y0117013D01*
X0252862Y0116975D02*
X0253325Y0116975D01*
X0253325Y0116937D02*
X0252862Y0116937D01*
X0252862Y0116899D02*
X0253325Y0116899D01*
X0253325Y0116861D02*
X0252862Y0116861D01*
X0252862Y0116823D02*
X0253325Y0116823D01*
X0253325Y0116785D02*
X0252862Y0116785D01*
X0252862Y0116747D02*
X0253325Y0116747D01*
X0253325Y0116709D02*
X0252862Y0116709D01*
X0252862Y0116672D02*
X0253325Y0116672D01*
X0253325Y0116634D02*
X0252862Y0116634D01*
X0252862Y0116596D02*
X0253325Y0116596D01*
X0253325Y0116558D02*
X0252862Y0116558D01*
X0252862Y0116520D02*
X0253325Y0116520D01*
X0253325Y0116482D02*
X0252862Y0116482D01*
X0252862Y0116444D02*
X0253325Y0116444D01*
X0253325Y0116406D02*
X0252862Y0116406D01*
X0252862Y0116369D02*
X0253325Y0116369D01*
X0253325Y0116331D02*
X0252862Y0116331D01*
X0252862Y0116293D02*
X0253325Y0116293D01*
X0253325Y0116255D02*
X0252862Y0116255D01*
X0252862Y0116217D02*
X0253325Y0116217D01*
X0253325Y0116179D02*
X0252862Y0116179D01*
X0252862Y0116141D02*
X0253325Y0116141D01*
X0253325Y0116103D02*
X0252862Y0116103D01*
X0252862Y0116066D02*
X0253325Y0116066D01*
X0253325Y0116028D02*
X0252862Y0116028D01*
X0252862Y0115990D02*
X0253325Y0115990D01*
X0253325Y0115952D02*
X0252862Y0115952D01*
X0252862Y0115914D02*
X0253325Y0115914D01*
X0253325Y0115876D02*
X0252862Y0115876D01*
X0252862Y0115838D02*
X0253325Y0115838D01*
X0253325Y0115800D02*
X0252862Y0115800D01*
X0252862Y0115762D02*
X0253325Y0115762D01*
X0253325Y0115725D02*
X0252862Y0115725D01*
X0252862Y0115687D02*
X0253325Y0115687D01*
X0253325Y0115649D02*
X0252862Y0115649D01*
X0252862Y0115611D02*
X0253325Y0115611D01*
X0253325Y0115573D02*
X0252862Y0115573D01*
X0252862Y0115535D02*
X0253325Y0115535D01*
X0253325Y0115497D02*
X0252862Y0115497D01*
X0252862Y0115459D02*
X0253325Y0115459D01*
X0253325Y0115422D02*
X0252862Y0115422D01*
X0252862Y0115384D02*
X0253325Y0115384D01*
X0253325Y0115346D02*
X0252862Y0115346D01*
X0252862Y0115308D02*
X0253325Y0115308D01*
X0253325Y0115270D02*
X0252862Y0115270D01*
X0252862Y0115232D02*
X0253325Y0115232D01*
X0253325Y0115194D02*
X0252862Y0115194D01*
X0252862Y0115156D02*
X0253325Y0115156D01*
X0253325Y0115118D02*
X0252862Y0115118D01*
X0252862Y0115081D02*
X0253325Y0115081D01*
X0253325Y0115043D02*
X0252862Y0115043D01*
X0252041Y0115698D02*
X0250652Y0116726D01*
X0250242Y0116332D01*
X0250242Y0116954D01*
X0249627Y0116384D01*
X0249627Y0115743D01*
X0250242Y0116332D01*
X0250242Y0116954D01*
X0250682Y0117363D01*
X0250242Y0117363D01*
X0250242Y0117894D01*
X0249627Y0117894D01*
X0249627Y0117363D01*
X0250242Y0117363D01*
X0250242Y0117894D01*
X0252041Y0117894D01*
X0252041Y0117363D01*
X0251303Y0117363D01*
X0251013Y0117084D01*
X0252041Y0116335D01*
X0252041Y0115698D01*
X0252041Y0115725D02*
X0252005Y0115725D01*
X0252041Y0115762D02*
X0251954Y0115762D01*
X0251903Y0115800D02*
X0252041Y0115800D01*
X0252041Y0115838D02*
X0251852Y0115838D01*
X0251800Y0115876D02*
X0252041Y0115876D01*
X0252041Y0115914D02*
X0251749Y0115914D01*
X0251698Y0115952D02*
X0252041Y0115952D01*
X0252041Y0115990D02*
X0251647Y0115990D01*
X0251595Y0116028D02*
X0252041Y0116028D01*
X0252041Y0116066D02*
X0251544Y0116066D01*
X0251493Y0116103D02*
X0252041Y0116103D01*
X0252041Y0116141D02*
X0251442Y0116141D01*
X0251391Y0116179D02*
X0252041Y0116179D01*
X0252041Y0116217D02*
X0251339Y0116217D01*
X0251288Y0116255D02*
X0252041Y0116255D01*
X0252041Y0116293D02*
X0251237Y0116293D01*
X0251186Y0116331D02*
X0252041Y0116331D01*
X0251995Y0116369D02*
X0251135Y0116369D01*
X0251083Y0116406D02*
X0251943Y0116406D01*
X0251891Y0116444D02*
X0251032Y0116444D01*
X0250981Y0116482D02*
X0251839Y0116482D01*
X0251787Y0116520D02*
X0250930Y0116520D01*
X0250878Y0116558D02*
X0251735Y0116558D01*
X0251683Y0116596D02*
X0250827Y0116596D01*
X0250776Y0116634D02*
X0251631Y0116634D01*
X0251579Y0116672D02*
X0250725Y0116672D01*
X0250674Y0116709D02*
X0251527Y0116709D01*
X0251475Y0116747D02*
X0250242Y0116747D01*
X0250019Y0116747D01*
X0249978Y0116709D02*
X0250242Y0116709D01*
X0250635Y0116709D01*
X0250595Y0116672D02*
X0250242Y0116672D01*
X0249937Y0116672D01*
X0249897Y0116634D02*
X0250242Y0116634D01*
X0250556Y0116634D01*
X0250516Y0116596D02*
X0250242Y0116596D01*
X0249856Y0116596D01*
X0249815Y0116558D02*
X0250242Y0116558D01*
X0250477Y0116558D01*
X0250437Y0116520D02*
X0250242Y0116520D01*
X0249774Y0116520D01*
X0249733Y0116482D02*
X0250242Y0116482D01*
X0250398Y0116482D01*
X0250358Y0116444D02*
X0250242Y0116444D01*
X0249693Y0116444D01*
X0249652Y0116406D02*
X0250242Y0116406D01*
X0250319Y0116406D01*
X0250279Y0116369D02*
X0250242Y0116369D01*
X0249627Y0116369D01*
X0249627Y0116331D02*
X0250240Y0116331D01*
X0250200Y0116293D02*
X0249627Y0116293D01*
X0249627Y0116255D02*
X0250161Y0116255D01*
X0250121Y0116217D02*
X0249627Y0116217D01*
X0249627Y0116179D02*
X0250082Y0116179D01*
X0250042Y0116141D02*
X0249627Y0116141D01*
X0249627Y0116103D02*
X0250003Y0116103D01*
X0249963Y0116066D02*
X0249627Y0116066D01*
X0249627Y0116028D02*
X0249924Y0116028D01*
X0249884Y0115990D02*
X0249627Y0115990D01*
X0249627Y0115952D02*
X0249845Y0115952D01*
X0249805Y0115914D02*
X0249627Y0115914D01*
X0249627Y0115876D02*
X0249766Y0115876D01*
X0249727Y0115838D02*
X0249627Y0115838D01*
X0249627Y0115800D02*
X0249687Y0115800D01*
X0249648Y0115762D02*
X0249627Y0115762D01*
X0250060Y0116785D02*
X0250242Y0116785D01*
X0251423Y0116785D01*
X0251371Y0116823D02*
X0250242Y0116823D01*
X0250101Y0116823D01*
X0250141Y0116861D02*
X0250242Y0116861D01*
X0251319Y0116861D01*
X0251267Y0116899D02*
X0250242Y0116899D01*
X0250182Y0116899D01*
X0250223Y0116937D02*
X0250242Y0116937D01*
X0251215Y0116937D01*
X0251163Y0116975D02*
X0250264Y0116975D01*
X0250305Y0117013D02*
X0251111Y0117013D01*
X0251059Y0117050D02*
X0250345Y0117050D01*
X0250386Y0117088D02*
X0251018Y0117088D01*
X0251057Y0117126D02*
X0250427Y0117126D01*
X0250468Y0117164D02*
X0251096Y0117164D01*
X0251136Y0117202D02*
X0250509Y0117202D01*
X0250549Y0117240D02*
X0251175Y0117240D01*
X0251215Y0117278D02*
X0250590Y0117278D01*
X0250631Y0117316D02*
X0251254Y0117316D01*
X0251293Y0117353D02*
X0250672Y0117353D01*
X0250242Y0117391D02*
X0249627Y0117391D01*
X0249627Y0117429D02*
X0250242Y0117429D01*
X0252041Y0117429D01*
X0252041Y0117391D02*
X0250242Y0117391D01*
X0250242Y0117467D02*
X0249627Y0117467D01*
X0249627Y0117505D02*
X0250242Y0117505D01*
X0252041Y0117505D01*
X0252041Y0117543D02*
X0250242Y0117543D01*
X0249627Y0117543D01*
X0249627Y0117581D02*
X0250242Y0117581D01*
X0252041Y0117581D01*
X0252041Y0117619D02*
X0250242Y0117619D01*
X0249627Y0117619D01*
X0249627Y0117657D02*
X0250242Y0117657D01*
X0252041Y0117657D01*
X0252041Y0117694D02*
X0250242Y0117694D01*
X0249627Y0117694D01*
X0249627Y0117732D02*
X0250242Y0117732D01*
X0252041Y0117732D01*
X0252041Y0117770D02*
X0250242Y0117770D01*
X0249627Y0117770D01*
X0249627Y0117808D02*
X0250242Y0117808D01*
X0252041Y0117808D01*
X0252041Y0117846D02*
X0250242Y0117846D01*
X0249627Y0117846D01*
X0249627Y0117884D02*
X0250242Y0117884D01*
X0252041Y0117884D01*
X0252041Y0117467D02*
X0250242Y0117467D01*
X0250247Y0118389D02*
X0250242Y0118391D01*
X0250242Y0118985D01*
X0250193Y0119023D01*
X0250128Y0119155D01*
X0250106Y0119330D01*
X0250106Y0119858D01*
X0250242Y0119858D01*
X0250242Y0120389D01*
X0249627Y0120389D01*
X0249627Y0119285D01*
X0249641Y0119082D01*
X0249680Y0118902D01*
X0249746Y0118746D01*
X0249838Y0118614D01*
X0249954Y0118509D01*
X0250090Y0118434D01*
X0250242Y0118391D01*
X0250242Y0118985D01*
X0250301Y0118940D01*
X0250452Y0118913D01*
X0250457Y0118913D01*
X0250596Y0118939D01*
X0250706Y0119017D01*
X0250775Y0119145D01*
X0250799Y0119320D01*
X0250799Y0119858D01*
X0250242Y0119858D01*
X0250242Y0120389D01*
X0252041Y0120389D01*
X0252041Y0119858D01*
X0251269Y0119858D01*
X0251269Y0119440D01*
X0252041Y0118924D01*
X0252041Y0118303D01*
X0251179Y0118893D01*
X0251068Y0118684D01*
X0250909Y0118519D01*
X0250698Y0118411D01*
X0250432Y0118375D01*
X0250425Y0118375D01*
X0250247Y0118389D01*
X0250242Y0118414D02*
X0250161Y0118414D01*
X0250242Y0118414D02*
X0250704Y0118414D01*
X0250778Y0118452D02*
X0250242Y0118452D01*
X0250058Y0118452D01*
X0249989Y0118490D02*
X0250242Y0118490D01*
X0250853Y0118490D01*
X0250918Y0118528D02*
X0250242Y0118528D01*
X0249933Y0118528D01*
X0249891Y0118566D02*
X0250242Y0118566D01*
X0250954Y0118566D01*
X0250991Y0118604D02*
X0250242Y0118604D01*
X0249849Y0118604D01*
X0249819Y0118641D02*
X0250242Y0118641D01*
X0251027Y0118641D01*
X0251064Y0118679D02*
X0250242Y0118679D01*
X0249792Y0118679D01*
X0249766Y0118717D02*
X0250242Y0118717D01*
X0251086Y0118717D01*
X0251106Y0118755D02*
X0250242Y0118755D01*
X0249742Y0118755D01*
X0249726Y0118793D02*
X0250242Y0118793D01*
X0251126Y0118793D01*
X0251146Y0118831D02*
X0250242Y0118831D01*
X0249710Y0118831D01*
X0249694Y0118869D02*
X0250242Y0118869D01*
X0251166Y0118869D01*
X0251214Y0118869D02*
X0252041Y0118869D01*
X0252041Y0118907D02*
X0250242Y0118907D01*
X0249679Y0118907D01*
X0249671Y0118944D02*
X0250242Y0118944D01*
X0250295Y0118944D01*
X0250245Y0118982D02*
X0250242Y0118982D01*
X0249662Y0118982D01*
X0249654Y0119020D02*
X0250196Y0119020D01*
X0250175Y0119058D02*
X0249646Y0119058D01*
X0249640Y0119096D02*
X0250157Y0119096D01*
X0250138Y0119134D02*
X0249637Y0119134D01*
X0249635Y0119172D02*
X0250126Y0119172D01*
X0250121Y0119210D02*
X0249632Y0119210D01*
X0249630Y0119248D02*
X0250116Y0119248D01*
X0250112Y0119285D02*
X0249627Y0119285D01*
X0249627Y0119323D02*
X0250107Y0119323D01*
X0250106Y0119361D02*
X0249627Y0119361D01*
X0249627Y0119399D02*
X0250106Y0119399D01*
X0250106Y0119437D02*
X0249627Y0119437D01*
X0249627Y0119475D02*
X0250106Y0119475D01*
X0250106Y0119513D02*
X0249627Y0119513D01*
X0249627Y0119551D02*
X0250106Y0119551D01*
X0250106Y0119588D02*
X0249627Y0119588D01*
X0249627Y0119626D02*
X0250106Y0119626D01*
X0250106Y0119664D02*
X0249627Y0119664D01*
X0249627Y0119702D02*
X0250106Y0119702D01*
X0250106Y0119740D02*
X0249627Y0119740D01*
X0249627Y0119778D02*
X0250106Y0119778D01*
X0250106Y0119816D02*
X0249627Y0119816D01*
X0249627Y0119854D02*
X0250106Y0119854D01*
X0250242Y0119892D02*
X0249627Y0119892D01*
X0249627Y0119929D02*
X0250242Y0119929D01*
X0252041Y0119929D01*
X0252041Y0119892D02*
X0250242Y0119892D01*
X0250242Y0119967D02*
X0249627Y0119967D01*
X0249627Y0120005D02*
X0250242Y0120005D01*
X0252041Y0120005D01*
X0252041Y0119967D02*
X0250242Y0119967D01*
X0250242Y0120043D02*
X0249627Y0120043D01*
X0249627Y0120081D02*
X0250242Y0120081D01*
X0252041Y0120081D01*
X0252041Y0120119D02*
X0250242Y0120119D01*
X0249627Y0120119D01*
X0249627Y0120157D02*
X0250242Y0120157D01*
X0252041Y0120157D01*
X0252041Y0120195D02*
X0250242Y0120195D01*
X0249627Y0120195D01*
X0249627Y0120232D02*
X0250242Y0120232D01*
X0252041Y0120232D01*
X0252041Y0120270D02*
X0250242Y0120270D01*
X0249627Y0120270D01*
X0249627Y0120308D02*
X0250242Y0120308D01*
X0252041Y0120308D01*
X0252041Y0120346D02*
X0250242Y0120346D01*
X0249627Y0120346D01*
X0249627Y0120384D02*
X0250242Y0120384D01*
X0252041Y0120384D01*
X0252041Y0120043D02*
X0250242Y0120043D01*
X0250799Y0119854D02*
X0251269Y0119854D01*
X0251269Y0119816D02*
X0250799Y0119816D01*
X0250799Y0119778D02*
X0251269Y0119778D01*
X0251269Y0119740D02*
X0250799Y0119740D01*
X0250799Y0119702D02*
X0251269Y0119702D01*
X0251269Y0119664D02*
X0250799Y0119664D01*
X0250799Y0119626D02*
X0251269Y0119626D01*
X0251269Y0119588D02*
X0250799Y0119588D01*
X0250799Y0119551D02*
X0251269Y0119551D01*
X0251269Y0119513D02*
X0250799Y0119513D01*
X0250799Y0119475D02*
X0251269Y0119475D01*
X0251274Y0119437D02*
X0250799Y0119437D01*
X0250799Y0119399D02*
X0251330Y0119399D01*
X0251387Y0119361D02*
X0250799Y0119361D01*
X0250799Y0119323D02*
X0251444Y0119323D01*
X0251500Y0119285D02*
X0250794Y0119285D01*
X0250789Y0119248D02*
X0251557Y0119248D01*
X0251614Y0119210D02*
X0250784Y0119210D01*
X0250779Y0119172D02*
X0251670Y0119172D01*
X0251727Y0119134D02*
X0250769Y0119134D01*
X0250748Y0119096D02*
X0251783Y0119096D01*
X0251840Y0119058D02*
X0250728Y0119058D01*
X0250707Y0119020D02*
X0251897Y0119020D01*
X0251953Y0118982D02*
X0250657Y0118982D01*
X0250604Y0118944D02*
X0252010Y0118944D01*
X0252041Y0118831D02*
X0251270Y0118831D01*
X0251325Y0118793D02*
X0252041Y0118793D01*
X0252041Y0118755D02*
X0251380Y0118755D01*
X0251436Y0118717D02*
X0252041Y0118717D01*
X0252041Y0118679D02*
X0251491Y0118679D01*
X0251546Y0118641D02*
X0252041Y0118641D01*
X0252041Y0118604D02*
X0251602Y0118604D01*
X0251657Y0118566D02*
X0252041Y0118566D01*
X0252041Y0118528D02*
X0251712Y0118528D01*
X0251768Y0118490D02*
X0252041Y0118490D01*
X0252041Y0118452D02*
X0251823Y0118452D01*
X0251878Y0118414D02*
X0252041Y0118414D01*
X0252041Y0118376D02*
X0251934Y0118376D01*
X0251989Y0118338D02*
X0252041Y0118338D01*
X0250444Y0118376D02*
X0250405Y0118376D01*
X0251504Y0120990D02*
X0252041Y0120990D01*
X0252041Y0120952D02*
X0251593Y0120952D01*
X0251682Y0120914D02*
X0252041Y0120914D01*
X0252041Y0120876D02*
X0251771Y0120876D01*
X0251860Y0120839D02*
X0252041Y0120839D01*
X0252041Y0120801D02*
X0251949Y0120801D01*
X0252038Y0120763D02*
X0252041Y0120763D01*
X0252041Y0120761D02*
X0250242Y0121527D01*
X0250242Y0122555D01*
X0249609Y0122286D01*
X0249609Y0121796D01*
X0250242Y0121527D01*
X0250242Y0122555D01*
X0252041Y0123321D01*
X0252041Y0122779D01*
X0250248Y0122048D01*
X0252041Y0121318D01*
X0252041Y0120761D01*
X0252041Y0121028D02*
X0251415Y0121028D01*
X0251326Y0121066D02*
X0252041Y0121066D01*
X0252041Y0121104D02*
X0251237Y0121104D01*
X0251148Y0121142D02*
X0252041Y0121142D01*
X0252041Y0121179D02*
X0251059Y0121179D01*
X0250970Y0121217D02*
X0252041Y0121217D01*
X0252041Y0121255D02*
X0250881Y0121255D01*
X0250792Y0121293D02*
X0252041Y0121293D01*
X0252008Y0121331D02*
X0250703Y0121331D01*
X0250614Y0121369D02*
X0251915Y0121369D01*
X0251822Y0121407D02*
X0250525Y0121407D01*
X0250436Y0121445D02*
X0251729Y0121445D01*
X0251637Y0121483D02*
X0250347Y0121483D01*
X0250258Y0121520D02*
X0251544Y0121520D01*
X0251451Y0121558D02*
X0250242Y0121558D01*
X0250169Y0121558D01*
X0250242Y0121596D02*
X0250080Y0121596D01*
X0249991Y0121634D02*
X0250242Y0121634D01*
X0251265Y0121634D01*
X0251358Y0121596D02*
X0250242Y0121596D01*
X0250242Y0121672D02*
X0249902Y0121672D01*
X0249813Y0121710D02*
X0250242Y0121710D01*
X0251079Y0121710D01*
X0251172Y0121672D02*
X0250242Y0121672D01*
X0250242Y0121748D02*
X0249724Y0121748D01*
X0249635Y0121786D02*
X0250242Y0121786D01*
X0250893Y0121786D01*
X0250800Y0121823D02*
X0250242Y0121823D01*
X0249609Y0121823D01*
X0249609Y0121861D02*
X0250242Y0121861D01*
X0250707Y0121861D01*
X0250614Y0121899D02*
X0250242Y0121899D01*
X0249609Y0121899D01*
X0249609Y0121937D02*
X0250242Y0121937D01*
X0250521Y0121937D01*
X0250428Y0121975D02*
X0250242Y0121975D01*
X0249609Y0121975D01*
X0249609Y0122013D02*
X0250242Y0122013D01*
X0250335Y0122013D01*
X0250347Y0122089D02*
X0250242Y0122089D01*
X0249609Y0122089D01*
X0249609Y0122127D02*
X0250242Y0122127D01*
X0250440Y0122127D01*
X0250533Y0122164D02*
X0250242Y0122164D01*
X0249609Y0122164D01*
X0249609Y0122202D02*
X0250242Y0122202D01*
X0250626Y0122202D01*
X0250719Y0122240D02*
X0250242Y0122240D01*
X0249609Y0122240D01*
X0249609Y0122278D02*
X0250242Y0122278D01*
X0250812Y0122278D01*
X0250905Y0122316D02*
X0250242Y0122316D01*
X0249680Y0122316D01*
X0249769Y0122354D02*
X0250242Y0122354D01*
X0250998Y0122354D01*
X0251091Y0122392D02*
X0250242Y0122392D01*
X0249858Y0122392D01*
X0249946Y0122430D02*
X0250242Y0122430D01*
X0251183Y0122430D01*
X0251276Y0122467D02*
X0250242Y0122467D01*
X0250035Y0122467D01*
X0250124Y0122505D02*
X0250242Y0122505D01*
X0251369Y0122505D01*
X0251462Y0122543D02*
X0250242Y0122543D01*
X0250213Y0122543D01*
X0250302Y0122581D02*
X0251555Y0122581D01*
X0251648Y0122619D02*
X0250391Y0122619D01*
X0250480Y0122657D02*
X0251741Y0122657D01*
X0251834Y0122695D02*
X0250569Y0122695D01*
X0250658Y0122733D02*
X0251927Y0122733D01*
X0252020Y0122771D02*
X0250747Y0122771D01*
X0250837Y0122808D02*
X0252041Y0122808D01*
X0252041Y0122846D02*
X0250926Y0122846D01*
X0251015Y0122884D02*
X0252041Y0122884D01*
X0252041Y0122922D02*
X0251104Y0122922D01*
X0251193Y0122960D02*
X0252041Y0122960D01*
X0252041Y0122998D02*
X0251282Y0122998D01*
X0251371Y0123036D02*
X0252041Y0123036D01*
X0252041Y0123074D02*
X0251460Y0123074D01*
X0251549Y0123111D02*
X0252041Y0123111D01*
X0252041Y0123149D02*
X0251638Y0123149D01*
X0251727Y0123187D02*
X0252041Y0123187D01*
X0252041Y0123225D02*
X0251816Y0123225D01*
X0251905Y0123263D02*
X0252041Y0123263D01*
X0252041Y0123301D02*
X0251994Y0123301D01*
X0251149Y0123869D02*
X0250242Y0123869D01*
X0249770Y0123869D01*
X0249758Y0123885D02*
X0249685Y0124043D01*
X0249640Y0124225D01*
X0249624Y0124432D01*
X0249624Y0125418D01*
X0250242Y0125418D01*
X0250242Y0124885D01*
X0250106Y0124885D01*
X0250106Y0124475D01*
X0249624Y0124475D01*
X0249624Y0124437D02*
X0250111Y0124437D01*
X0250116Y0124399D02*
X0249626Y0124399D01*
X0249629Y0124362D02*
X0250121Y0124362D01*
X0250126Y0124324D02*
X0249632Y0124324D01*
X0249635Y0124286D02*
X0250135Y0124286D01*
X0250129Y0124296D02*
X0250200Y0124160D01*
X0250242Y0124128D01*
X0250242Y0123534D01*
X0250121Y0123569D01*
X0249978Y0123647D01*
X0249856Y0123753D01*
X0249758Y0123885D01*
X0249748Y0123907D02*
X0250242Y0123907D01*
X0251174Y0123907D01*
X0251193Y0123936D02*
X0251100Y0123793D01*
X0250242Y0123793D01*
X0249826Y0123793D01*
X0249854Y0123755D02*
X0250242Y0123755D01*
X0251062Y0123755D01*
X0251100Y0123793D02*
X0250979Y0123674D01*
X0250833Y0123584D01*
X0250662Y0123527D01*
X0250464Y0123508D01*
X0250468Y0123506D01*
X0250461Y0123506D01*
X0250283Y0123522D01*
X0250242Y0123534D01*
X0250242Y0124128D01*
X0250314Y0124073D01*
X0250472Y0124045D01*
X0250479Y0124045D01*
X0250621Y0124072D01*
X0250740Y0124154D01*
X0250818Y0124287D01*
X0250844Y0124464D01*
X0250844Y0124885D01*
X0250242Y0124885D01*
X0250242Y0125418D01*
X0252038Y0125418D01*
X0252038Y0124887D01*
X0251314Y0124887D01*
X0251314Y0124484D01*
X0251300Y0124287D01*
X0251260Y0124102D01*
X0251193Y0123936D01*
X0251196Y0123945D02*
X0250242Y0123945D01*
X0249730Y0123945D01*
X0249713Y0123983D02*
X0250242Y0123983D01*
X0251212Y0123983D01*
X0251227Y0124021D02*
X0250242Y0124021D01*
X0249695Y0124021D01*
X0249681Y0124058D02*
X0250242Y0124058D01*
X0250395Y0124058D01*
X0250284Y0124096D02*
X0250242Y0124096D01*
X0249672Y0124096D01*
X0249662Y0124134D02*
X0250234Y0124134D01*
X0250193Y0124172D02*
X0249653Y0124172D01*
X0249643Y0124210D02*
X0250174Y0124210D01*
X0250154Y0124248D02*
X0249638Y0124248D01*
X0249624Y0124513D02*
X0250106Y0124513D01*
X0250106Y0124551D02*
X0249624Y0124551D01*
X0249624Y0124589D02*
X0250106Y0124589D01*
X0250106Y0124627D02*
X0249624Y0124627D01*
X0249624Y0124665D02*
X0250106Y0124665D01*
X0250106Y0124702D02*
X0249624Y0124702D01*
X0249624Y0124740D02*
X0250106Y0124740D01*
X0250106Y0124778D02*
X0249624Y0124778D01*
X0249624Y0124816D02*
X0250106Y0124816D01*
X0250106Y0124854D02*
X0249624Y0124854D01*
X0249624Y0124892D02*
X0250242Y0124892D01*
X0252038Y0124892D01*
X0252038Y0124930D02*
X0250242Y0124930D01*
X0249624Y0124930D01*
X0249624Y0124968D02*
X0250242Y0124968D01*
X0252038Y0124968D01*
X0252038Y0125006D02*
X0250242Y0125006D01*
X0249624Y0125006D01*
X0249624Y0125043D02*
X0250242Y0125043D01*
X0252038Y0125043D01*
X0252038Y0125081D02*
X0250242Y0125081D01*
X0249624Y0125081D01*
X0249624Y0125119D02*
X0250242Y0125119D01*
X0252038Y0125119D01*
X0252038Y0125157D02*
X0250242Y0125157D01*
X0249624Y0125157D01*
X0249624Y0125195D02*
X0250242Y0125195D01*
X0252038Y0125195D01*
X0252038Y0125233D02*
X0250242Y0125233D01*
X0249624Y0125233D01*
X0249624Y0125271D02*
X0250242Y0125271D01*
X0252038Y0125271D01*
X0252038Y0125309D02*
X0250242Y0125309D01*
X0249624Y0125309D01*
X0249624Y0125346D02*
X0250242Y0125346D01*
X0252038Y0125346D01*
X0252038Y0125384D02*
X0250242Y0125384D01*
X0249624Y0125384D01*
X0249901Y0125956D02*
X0249770Y0126152D01*
X0249674Y0126365D01*
X0249615Y0126598D01*
X0249595Y0126853D01*
X0249608Y0127031D01*
X0249647Y0127193D01*
X0249710Y0127337D01*
X0249795Y0127459D01*
X0249900Y0127558D01*
X0250023Y0127632D01*
X0250164Y0127678D01*
X0250242Y0127686D01*
X0250322Y0127693D01*
X0250329Y0127693D01*
X0250494Y0127679D01*
X0250630Y0127636D01*
X0250741Y0127567D01*
X0250832Y0127475D01*
X0250968Y0127223D01*
X0251069Y0126890D01*
X0251141Y0126644D01*
X0251210Y0126494D01*
X0251283Y0126422D01*
X0251375Y0126403D01*
X0251382Y0126403D01*
X0251478Y0126426D01*
X0251550Y0126494D01*
X0251595Y0126604D01*
X0251611Y0126752D01*
X0251591Y0126951D01*
X0251532Y0127133D01*
X0251439Y0127306D01*
X0251318Y0127474D01*
X0251694Y0127787D01*
X0251865Y0127558D01*
X0251985Y0127304D01*
X0252057Y0127036D01*
X0252081Y0126763D01*
X0252068Y0126575D01*
X0252030Y0126404D01*
X0251969Y0126254D01*
X0251886Y0126125D01*
X0251780Y0126022D01*
X0251652Y0125944D01*
X0251503Y0125895D01*
X0251334Y0125879D01*
X0251319Y0125879D01*
X0251172Y0125891D01*
X0251048Y0125929D01*
X0250941Y0125992D01*
X0250850Y0126079D01*
X0250706Y0126320D01*
X0250598Y0126647D01*
X0250526Y0126905D01*
X0250461Y0127065D01*
X0250383Y0127146D01*
X0250281Y0127168D01*
X0250274Y0127168D01*
X0250242Y0127160D01*
X0250242Y0127686D01*
X0250242Y0127160D01*
X0250191Y0127148D01*
X0250124Y0127090D01*
X0250079Y0126993D01*
X0250063Y0126858D01*
X0250079Y0126703D01*
X0250126Y0126548D01*
X0250242Y0126339D01*
X0250301Y0126232D01*
X0250242Y0126191D01*
X0250242Y0126339D01*
X0250242Y0126191D01*
X0249901Y0125956D01*
X0249878Y0125990D02*
X0249951Y0125990D01*
X0250006Y0126028D02*
X0249853Y0126028D01*
X0249827Y0126066D02*
X0250060Y0126066D01*
X0250115Y0126104D02*
X0249802Y0126104D01*
X0249777Y0126142D02*
X0250170Y0126142D01*
X0250225Y0126180D02*
X0249757Y0126180D01*
X0249740Y0126218D02*
X0250242Y0126218D01*
X0250280Y0126218D01*
X0250287Y0126256D02*
X0250242Y0126256D01*
X0249723Y0126256D01*
X0249706Y0126293D02*
X0250242Y0126293D01*
X0250266Y0126293D01*
X0250246Y0126331D02*
X0250242Y0126331D01*
X0249689Y0126331D01*
X0249673Y0126369D02*
X0250225Y0126369D01*
X0250204Y0126407D02*
X0249663Y0126407D01*
X0249654Y0126445D02*
X0250183Y0126445D01*
X0250162Y0126483D02*
X0249644Y0126483D01*
X0249634Y0126521D02*
X0250141Y0126521D01*
X0250123Y0126559D02*
X0249625Y0126559D01*
X0249615Y0126597D02*
X0250111Y0126597D01*
X0250100Y0126634D02*
X0249612Y0126634D01*
X0249609Y0126672D02*
X0250088Y0126672D01*
X0250078Y0126710D02*
X0249606Y0126710D01*
X0249603Y0126748D02*
X0250074Y0126748D01*
X0250070Y0126786D02*
X0249600Y0126786D01*
X0249597Y0126824D02*
X0250066Y0126824D01*
X0250063Y0126862D02*
X0249596Y0126862D01*
X0249598Y0126900D02*
X0250068Y0126900D01*
X0250072Y0126937D02*
X0249601Y0126937D01*
X0249604Y0126975D02*
X0250077Y0126975D01*
X0250088Y0127013D02*
X0249607Y0127013D01*
X0249613Y0127051D02*
X0250106Y0127051D01*
X0250124Y0127089D02*
X0249622Y0127089D01*
X0249631Y0127127D02*
X0250166Y0127127D01*
X0250242Y0127165D02*
X0250261Y0127165D01*
X0250242Y0127165D02*
X0249640Y0127165D01*
X0249651Y0127203D02*
X0250242Y0127203D01*
X0250975Y0127203D01*
X0250986Y0127165D02*
X0250294Y0127165D01*
X0250242Y0127241D02*
X0250959Y0127241D01*
X0250938Y0127278D02*
X0250242Y0127278D01*
X0249685Y0127278D01*
X0249668Y0127241D02*
X0250242Y0127241D01*
X0250242Y0127316D02*
X0250918Y0127316D01*
X0250897Y0127354D02*
X0250242Y0127354D01*
X0249722Y0127354D01*
X0249701Y0127316D02*
X0250242Y0127316D01*
X0250242Y0127392D02*
X0250877Y0127392D01*
X0250856Y0127430D02*
X0250242Y0127430D01*
X0249774Y0127430D01*
X0249748Y0127392D02*
X0250242Y0127392D01*
X0250242Y0127468D02*
X0250836Y0127468D01*
X0250802Y0127506D02*
X0250242Y0127506D01*
X0249845Y0127506D01*
X0249885Y0127544D02*
X0250242Y0127544D01*
X0250764Y0127544D01*
X0250718Y0127581D02*
X0250242Y0127581D01*
X0249940Y0127581D01*
X0250002Y0127619D02*
X0250242Y0127619D01*
X0250656Y0127619D01*
X0250561Y0127657D02*
X0250242Y0127657D01*
X0250100Y0127657D01*
X0250242Y0127468D02*
X0249804Y0127468D01*
X0250402Y0127127D02*
X0250998Y0127127D01*
X0251009Y0127089D02*
X0250438Y0127089D01*
X0250466Y0127051D02*
X0251020Y0127051D01*
X0251032Y0127013D02*
X0250482Y0127013D01*
X0250497Y0126975D02*
X0251043Y0126975D01*
X0251055Y0126937D02*
X0250512Y0126937D01*
X0250527Y0126900D02*
X0251066Y0126900D01*
X0251078Y0126862D02*
X0250538Y0126862D01*
X0250548Y0126824D02*
X0251089Y0126824D01*
X0251100Y0126786D02*
X0250559Y0126786D01*
X0250569Y0126748D02*
X0251111Y0126748D01*
X0251122Y0126710D02*
X0250580Y0126710D01*
X0250591Y0126672D02*
X0251133Y0126672D01*
X0251145Y0126634D02*
X0250602Y0126634D01*
X0250614Y0126597D02*
X0251163Y0126597D01*
X0251180Y0126559D02*
X0250627Y0126559D01*
X0250639Y0126521D02*
X0251197Y0126521D01*
X0251221Y0126483D02*
X0250652Y0126483D01*
X0250664Y0126445D02*
X0251260Y0126445D01*
X0251354Y0126407D02*
X0250677Y0126407D01*
X0250689Y0126369D02*
X0252016Y0126369D01*
X0252001Y0126331D02*
X0250702Y0126331D01*
X0250721Y0126293D02*
X0251985Y0126293D01*
X0251970Y0126256D02*
X0250744Y0126256D01*
X0250766Y0126218D02*
X0251946Y0126218D01*
X0251921Y0126180D02*
X0250789Y0126180D01*
X0250812Y0126142D02*
X0251897Y0126142D01*
X0251865Y0126104D02*
X0250834Y0126104D01*
X0250863Y0126066D02*
X0251826Y0126066D01*
X0251787Y0126028D02*
X0250903Y0126028D01*
X0250943Y0125990D02*
X0251729Y0125990D01*
X0251667Y0125953D02*
X0251008Y0125953D01*
X0251095Y0125915D02*
X0251563Y0125915D01*
X0251401Y0126407D02*
X0252031Y0126407D01*
X0252039Y0126445D02*
X0251498Y0126445D01*
X0251538Y0126483D02*
X0252048Y0126483D01*
X0252056Y0126521D02*
X0251561Y0126521D01*
X0251576Y0126559D02*
X0252065Y0126559D01*
X0252070Y0126597D02*
X0251592Y0126597D01*
X0251598Y0126634D02*
X0252072Y0126634D01*
X0252075Y0126672D02*
X0251602Y0126672D01*
X0251606Y0126710D02*
X0252077Y0126710D01*
X0252080Y0126748D02*
X0251611Y0126748D01*
X0251608Y0126786D02*
X0252079Y0126786D01*
X0252075Y0126824D02*
X0251604Y0126824D01*
X0251600Y0126862D02*
X0252072Y0126862D01*
X0252069Y0126900D02*
X0251596Y0126900D01*
X0251592Y0126937D02*
X0252065Y0126937D01*
X0252062Y0126975D02*
X0251583Y0126975D01*
X0251571Y0127013D02*
X0252059Y0127013D01*
X0252053Y0127051D02*
X0251558Y0127051D01*
X0251546Y0127089D02*
X0252043Y0127089D01*
X0252033Y0127127D02*
X0251534Y0127127D01*
X0251515Y0127165D02*
X0252023Y0127165D01*
X0252012Y0127203D02*
X0251494Y0127203D01*
X0251474Y0127241D02*
X0252002Y0127241D01*
X0251992Y0127278D02*
X0251453Y0127278D01*
X0251431Y0127316D02*
X0251980Y0127316D01*
X0251962Y0127354D02*
X0251404Y0127354D01*
X0251376Y0127392D02*
X0251944Y0127392D01*
X0251926Y0127430D02*
X0251349Y0127430D01*
X0251322Y0127468D02*
X0251908Y0127468D01*
X0251890Y0127506D02*
X0251356Y0127506D01*
X0251402Y0127544D02*
X0251872Y0127544D01*
X0251847Y0127581D02*
X0251447Y0127581D01*
X0251493Y0127619D02*
X0251819Y0127619D01*
X0251791Y0127657D02*
X0251538Y0127657D01*
X0251584Y0127695D02*
X0251762Y0127695D01*
X0251734Y0127733D02*
X0251629Y0127733D01*
X0251675Y0127771D02*
X0251706Y0127771D01*
X0253325Y0128604D02*
X0248342Y0128604D01*
X0248342Y0128642D02*
X0253325Y0128642D01*
X0253325Y0128680D02*
X0248342Y0128680D01*
X0248342Y0128718D02*
X0253325Y0128718D01*
X0253325Y0128756D02*
X0248342Y0128756D01*
X0248342Y0128794D02*
X0253325Y0128794D01*
X0253325Y0128832D02*
X0248342Y0128832D01*
X0248342Y0128869D02*
X0253325Y0128869D01*
X0253325Y0128907D02*
X0248342Y0128907D01*
X0248342Y0128945D02*
X0253325Y0128945D01*
X0253325Y0128983D02*
X0248342Y0128983D01*
X0250844Y0124854D02*
X0251314Y0124854D01*
X0251314Y0124816D02*
X0250844Y0124816D01*
X0250844Y0124778D02*
X0251314Y0124778D01*
X0251314Y0124740D02*
X0250844Y0124740D01*
X0250844Y0124702D02*
X0251314Y0124702D01*
X0251314Y0124665D02*
X0250844Y0124665D01*
X0250844Y0124627D02*
X0251314Y0124627D01*
X0251314Y0124589D02*
X0250844Y0124589D01*
X0250844Y0124551D02*
X0251314Y0124551D01*
X0251314Y0124513D02*
X0250844Y0124513D01*
X0250844Y0124475D02*
X0251313Y0124475D01*
X0251311Y0124437D02*
X0250840Y0124437D01*
X0250835Y0124399D02*
X0251308Y0124399D01*
X0251305Y0124362D02*
X0250829Y0124362D01*
X0250824Y0124324D02*
X0251303Y0124324D01*
X0251300Y0124286D02*
X0250818Y0124286D01*
X0250795Y0124248D02*
X0251292Y0124248D01*
X0251284Y0124210D02*
X0250773Y0124210D01*
X0250750Y0124172D02*
X0251275Y0124172D01*
X0251267Y0124134D02*
X0250711Y0124134D01*
X0250657Y0124096D02*
X0251258Y0124096D01*
X0251242Y0124058D02*
X0250551Y0124058D01*
X0250242Y0123831D02*
X0249798Y0123831D01*
X0249897Y0123718D02*
X0250242Y0123718D01*
X0251024Y0123718D01*
X0250985Y0123680D02*
X0250242Y0123680D01*
X0249940Y0123680D01*
X0249987Y0123642D02*
X0250242Y0123642D01*
X0250927Y0123642D01*
X0250866Y0123604D02*
X0250242Y0123604D01*
X0250057Y0123604D01*
X0250132Y0123566D02*
X0250242Y0123566D01*
X0250779Y0123566D01*
X0250665Y0123528D02*
X0250263Y0123528D01*
X0250242Y0123831D02*
X0251125Y0123831D01*
X0250129Y0124296D02*
X0250106Y0124475D01*
X0250242Y0122051D02*
X0249609Y0122051D01*
X0250242Y0122051D02*
X0250254Y0122051D01*
X0250242Y0121748D02*
X0250986Y0121748D01*
X0251076Y0114285D02*
X0248342Y0114285D01*
M02*
