G75*
%MOIN*%
%OFA0B0*%
%FSLAX25Y25*%
%IPPOS*%
%LPD*%
%AMOC8*
5,1,8,0,0,1.08239X$1,22.5*
%
%ADD10R,0.05131X0.04737*%
%ADD11R,0.04737X0.05131*%
%ADD12R,0.08674X0.05524*%
%ADD13R,0.06115X0.03162*%
%ADD14C,0.13800*%
%ADD15C,0.03300*%
%ADD16C,0.08200*%
%ADD17R,0.01981X0.05918*%
%ADD18R,0.07887X0.09461*%
%ADD19C,0.01421*%
D10*
X0078154Y0085000D03*
X0084846Y0085000D03*
X0084846Y0092500D03*
X0078154Y0092500D03*
X0088154Y0125000D03*
X0094846Y0125000D03*
X0094846Y0132500D03*
X0088154Y0132500D03*
X0108154Y0132500D03*
X0114846Y0132500D03*
X0114846Y0125000D03*
X0108154Y0125000D03*
X0128154Y0125000D03*
X0134846Y0125000D03*
X0134846Y0132500D03*
X0128154Y0132500D03*
X0138154Y0092500D03*
X0144846Y0092500D03*
X0144846Y0085000D03*
X0138154Y0085000D03*
X0180154Y0085000D03*
X0186846Y0085000D03*
X0186846Y0092500D03*
X0180154Y0092500D03*
X0190154Y0125000D03*
X0196846Y0125000D03*
X0196846Y0132500D03*
X0190154Y0132500D03*
X0210154Y0132500D03*
X0216846Y0132500D03*
X0216846Y0125000D03*
X0210154Y0125000D03*
X0230154Y0125000D03*
X0236846Y0125000D03*
X0236846Y0132500D03*
X0230154Y0132500D03*
X0240154Y0092500D03*
X0246846Y0092500D03*
X0246846Y0085000D03*
X0240154Y0085000D03*
X0282154Y0085000D03*
X0282154Y0092500D03*
X0288846Y0092500D03*
X0288846Y0085000D03*
X0292154Y0125000D03*
X0298846Y0125000D03*
X0298846Y0132500D03*
X0292154Y0132500D03*
X0312154Y0132500D03*
X0318846Y0132500D03*
X0318846Y0125000D03*
X0312154Y0125000D03*
X0332154Y0125000D03*
X0338846Y0125000D03*
X0338846Y0132500D03*
X0332154Y0132500D03*
X0342154Y0092500D03*
X0342154Y0085000D03*
X0348846Y0085000D03*
X0348846Y0092500D03*
X0348846Y0187000D03*
X0348846Y0194500D03*
X0342154Y0194500D03*
X0342154Y0187000D03*
X0338846Y0227000D03*
X0332154Y0227000D03*
X0332154Y0234500D03*
X0338846Y0234500D03*
X0318846Y0234500D03*
X0312154Y0234500D03*
X0312154Y0227000D03*
X0318846Y0227000D03*
X0298846Y0227000D03*
X0292154Y0227000D03*
X0292154Y0234500D03*
X0298846Y0234500D03*
X0288846Y0194500D03*
X0288846Y0187000D03*
X0282154Y0187000D03*
X0282154Y0194500D03*
X0246846Y0194500D03*
X0240154Y0194500D03*
X0240154Y0187000D03*
X0246846Y0187000D03*
X0236846Y0227000D03*
X0230154Y0227000D03*
X0230154Y0234500D03*
X0236846Y0234500D03*
X0216846Y0234500D03*
X0210154Y0234500D03*
X0210154Y0227000D03*
X0216846Y0227000D03*
X0196846Y0227000D03*
X0190154Y0227000D03*
X0190154Y0234500D03*
X0196846Y0234500D03*
X0186846Y0194500D03*
X0180154Y0194500D03*
X0180154Y0187000D03*
X0186846Y0187000D03*
X0144846Y0187000D03*
X0138154Y0187000D03*
X0138154Y0194500D03*
X0144846Y0194500D03*
X0134846Y0227000D03*
X0128154Y0227000D03*
X0128154Y0234500D03*
X0134846Y0234500D03*
X0114846Y0234500D03*
X0108154Y0234500D03*
X0108154Y0227000D03*
X0114846Y0227000D03*
X0094846Y0227000D03*
X0088154Y0227000D03*
X0088154Y0234500D03*
X0094846Y0234500D03*
X0084846Y0194500D03*
X0078154Y0194500D03*
X0078154Y0187000D03*
X0084846Y0187000D03*
X0084846Y0289000D03*
X0078154Y0289000D03*
X0078154Y0296500D03*
X0084846Y0296500D03*
X0088154Y0329000D03*
X0094846Y0329000D03*
X0094846Y0336500D03*
X0088154Y0336500D03*
X0108154Y0336500D03*
X0114846Y0336500D03*
X0114846Y0329000D03*
X0108154Y0329000D03*
X0128154Y0329000D03*
X0134846Y0329000D03*
X0134846Y0336500D03*
X0128154Y0336500D03*
X0138154Y0296500D03*
X0144846Y0296500D03*
X0144846Y0289000D03*
X0138154Y0289000D03*
X0180154Y0289000D03*
X0186846Y0289000D03*
X0186846Y0296500D03*
X0180154Y0296500D03*
X0190154Y0329000D03*
X0196846Y0329000D03*
X0196846Y0336500D03*
X0190154Y0336500D03*
X0210154Y0336500D03*
X0216846Y0336500D03*
X0216846Y0329000D03*
X0210154Y0329000D03*
X0230154Y0329000D03*
X0236846Y0329000D03*
X0236846Y0336500D03*
X0230154Y0336500D03*
X0240154Y0296500D03*
X0246846Y0296500D03*
X0246846Y0289000D03*
X0240154Y0289000D03*
X0282154Y0289000D03*
X0288846Y0289000D03*
X0288846Y0296500D03*
X0282154Y0296500D03*
X0292154Y0329000D03*
X0298846Y0329000D03*
X0298846Y0336500D03*
X0292154Y0336500D03*
X0312154Y0336500D03*
X0318846Y0336500D03*
X0318846Y0329000D03*
X0312154Y0329000D03*
X0332154Y0329000D03*
X0338846Y0329000D03*
X0338846Y0336500D03*
X0332154Y0336500D03*
X0342154Y0296500D03*
X0348846Y0296500D03*
X0348846Y0289000D03*
X0342154Y0289000D03*
D11*
X0330500Y0308154D03*
X0330500Y0314846D03*
X0315500Y0314846D03*
X0315500Y0308154D03*
X0300500Y0308154D03*
X0300500Y0314846D03*
X0270224Y0335594D03*
X0270224Y0342287D03*
X0228500Y0314846D03*
X0228500Y0308154D03*
X0213500Y0308154D03*
X0213500Y0314846D03*
X0198500Y0314846D03*
X0198500Y0308154D03*
X0168224Y0335594D03*
X0168224Y0342287D03*
X0126500Y0314846D03*
X0126500Y0308154D03*
X0111500Y0308154D03*
X0111500Y0314846D03*
X0096500Y0314846D03*
X0096500Y0308154D03*
X0066224Y0335594D03*
X0066224Y0342287D03*
X0066224Y0240287D03*
X0066224Y0233594D03*
X0096500Y0212846D03*
X0096500Y0206154D03*
X0111500Y0206154D03*
X0111500Y0212846D03*
X0126500Y0212846D03*
X0126500Y0206154D03*
X0168224Y0233594D03*
X0168224Y0240287D03*
X0198500Y0212846D03*
X0198500Y0206154D03*
X0213500Y0206154D03*
X0213500Y0212846D03*
X0228500Y0212846D03*
X0228500Y0206154D03*
X0270224Y0233594D03*
X0270224Y0240287D03*
X0300500Y0212846D03*
X0300500Y0206154D03*
X0315500Y0206154D03*
X0315500Y0212846D03*
X0330500Y0212846D03*
X0330500Y0206154D03*
X0270224Y0138287D03*
X0270224Y0131594D03*
X0300500Y0110846D03*
X0300500Y0104154D03*
X0315500Y0104154D03*
X0315500Y0110846D03*
X0330500Y0110846D03*
X0330500Y0104154D03*
X0228500Y0104154D03*
X0228500Y0110846D03*
X0213500Y0110846D03*
X0213500Y0104154D03*
X0198500Y0104154D03*
X0198500Y0110846D03*
X0168224Y0131594D03*
X0168224Y0138287D03*
X0126500Y0110846D03*
X0126500Y0104154D03*
X0111500Y0104154D03*
X0111500Y0110846D03*
X0096500Y0110846D03*
X0096500Y0104154D03*
X0066224Y0131594D03*
X0066224Y0138287D03*
D12*
X0067031Y0123524D03*
X0067031Y0101476D03*
X0155969Y0101476D03*
X0169031Y0101476D03*
X0169031Y0123524D03*
X0155969Y0123524D03*
X0155969Y0203476D03*
X0169031Y0203476D03*
X0169031Y0225524D03*
X0155969Y0225524D03*
X0155969Y0305476D03*
X0169031Y0305476D03*
X0169031Y0327524D03*
X0155969Y0327524D03*
X0067031Y0327524D03*
X0067031Y0305476D03*
X0067031Y0225524D03*
X0067031Y0203476D03*
X0257969Y0203476D03*
X0271031Y0203476D03*
X0271031Y0225524D03*
X0257969Y0225524D03*
X0257969Y0305476D03*
X0271031Y0305476D03*
X0271031Y0327524D03*
X0257969Y0327524D03*
X0359969Y0327524D03*
X0359969Y0305476D03*
X0359969Y0225524D03*
X0359969Y0203476D03*
X0359969Y0123524D03*
X0359969Y0101476D03*
X0271031Y0101476D03*
X0257969Y0101476D03*
X0257969Y0123524D03*
X0271031Y0123524D03*
D13*
X0285500Y0118406D03*
X0285500Y0114469D03*
X0285500Y0110531D03*
X0285500Y0106594D03*
X0243500Y0106594D03*
X0243500Y0110531D03*
X0243500Y0114469D03*
X0243500Y0118406D03*
X0183500Y0118406D03*
X0183500Y0114469D03*
X0183500Y0110531D03*
X0183500Y0106594D03*
X0141500Y0106594D03*
X0141500Y0110531D03*
X0141500Y0114469D03*
X0141500Y0118406D03*
X0081500Y0118406D03*
X0081500Y0114469D03*
X0081500Y0110531D03*
X0081500Y0106594D03*
X0081500Y0208594D03*
X0081500Y0212531D03*
X0081500Y0216469D03*
X0081500Y0220406D03*
X0141500Y0220406D03*
X0141500Y0216469D03*
X0141500Y0212531D03*
X0141500Y0208594D03*
X0183500Y0208594D03*
X0183500Y0212531D03*
X0183500Y0216469D03*
X0183500Y0220406D03*
X0243500Y0220406D03*
X0243500Y0216469D03*
X0243500Y0212531D03*
X0243500Y0208594D03*
X0285500Y0208594D03*
X0285500Y0212531D03*
X0285500Y0216469D03*
X0285500Y0220406D03*
X0345500Y0220406D03*
X0345500Y0216469D03*
X0345500Y0212531D03*
X0345500Y0208594D03*
X0345500Y0118406D03*
X0345500Y0114469D03*
X0345500Y0110531D03*
X0345500Y0106594D03*
X0345500Y0310594D03*
X0345500Y0314531D03*
X0345500Y0318469D03*
X0345500Y0322406D03*
X0285500Y0322406D03*
X0285500Y0318469D03*
X0285500Y0314531D03*
X0285500Y0310594D03*
X0243500Y0310594D03*
X0243500Y0314531D03*
X0243500Y0318469D03*
X0243500Y0322406D03*
X0183500Y0322406D03*
X0183500Y0318469D03*
X0183500Y0314531D03*
X0183500Y0310594D03*
X0141500Y0310594D03*
X0141500Y0314531D03*
X0141500Y0318469D03*
X0141500Y0322406D03*
X0081500Y0322406D03*
X0081500Y0318469D03*
X0081500Y0314531D03*
X0081500Y0310594D03*
D14*
X0071500Y0072500D03*
X0071500Y0152500D03*
X0071500Y0174500D03*
X0071500Y0254500D03*
X0071500Y0276500D03*
X0071500Y0356500D03*
X0151500Y0356500D03*
X0173500Y0356500D03*
X0173500Y0276500D03*
X0173500Y0254500D03*
X0151500Y0254500D03*
X0151500Y0276500D03*
X0151500Y0174500D03*
X0151500Y0152500D03*
X0173500Y0152500D03*
X0173500Y0174500D03*
X0253500Y0174500D03*
X0253500Y0152500D03*
X0275500Y0152500D03*
X0275500Y0174500D03*
X0275500Y0254500D03*
X0275500Y0276500D03*
X0253500Y0276500D03*
X0253500Y0254500D03*
X0253500Y0356500D03*
X0275500Y0356500D03*
X0355500Y0356500D03*
X0355500Y0276500D03*
X0355500Y0254500D03*
X0355500Y0174500D03*
X0355500Y0152500D03*
X0355500Y0072500D03*
X0275500Y0072500D03*
X0253500Y0072500D03*
X0173500Y0072500D03*
X0151500Y0072500D03*
D15*
X0183500Y0067500D03*
X0141500Y0157500D03*
X0183500Y0169500D03*
X0243500Y0157500D03*
X0285500Y0169500D03*
X0345500Y0157500D03*
X0285500Y0067500D03*
X0243500Y0259500D03*
X0285500Y0271500D03*
X0345500Y0259500D03*
X0345500Y0361500D03*
X0243500Y0361500D03*
X0183500Y0271500D03*
X0141500Y0259500D03*
X0081500Y0271500D03*
X0141500Y0361500D03*
X0081500Y0169500D03*
X0081500Y0067500D03*
D16*
X0091500Y0157500D03*
X0101500Y0157500D03*
X0111500Y0157500D03*
X0121500Y0157500D03*
X0131500Y0157500D03*
X0193500Y0157500D03*
X0203500Y0157500D03*
X0213500Y0157500D03*
X0223500Y0157500D03*
X0233500Y0157500D03*
X0295500Y0157500D03*
X0305500Y0157500D03*
X0315500Y0157500D03*
X0325500Y0157500D03*
X0335500Y0157500D03*
X0335500Y0259500D03*
X0325500Y0259500D03*
X0315500Y0259500D03*
X0305500Y0259500D03*
X0295500Y0259500D03*
X0233500Y0259500D03*
X0223500Y0259500D03*
X0213500Y0259500D03*
X0203500Y0259500D03*
X0193500Y0259500D03*
X0131500Y0259500D03*
X0121500Y0259500D03*
X0111500Y0259500D03*
X0101500Y0259500D03*
X0091500Y0259500D03*
X0091500Y0361500D03*
X0101500Y0361500D03*
X0111500Y0361500D03*
X0121500Y0361500D03*
X0131500Y0361500D03*
X0193500Y0361500D03*
X0203500Y0361500D03*
X0213500Y0361500D03*
X0223500Y0361500D03*
X0233500Y0361500D03*
X0295500Y0361500D03*
X0305500Y0361500D03*
X0315500Y0361500D03*
X0325500Y0361500D03*
X0335500Y0361500D03*
D17*
X0324161Y0294886D03*
X0322193Y0294886D03*
X0320224Y0294886D03*
X0318256Y0294886D03*
X0316287Y0294886D03*
X0314319Y0294886D03*
X0312350Y0294886D03*
X0310382Y0294886D03*
X0308413Y0294886D03*
X0306445Y0294886D03*
X0222161Y0294886D03*
X0220193Y0294886D03*
X0218224Y0294886D03*
X0216256Y0294886D03*
X0214287Y0294886D03*
X0212319Y0294886D03*
X0210350Y0294886D03*
X0208382Y0294886D03*
X0206413Y0294886D03*
X0204445Y0294886D03*
X0120161Y0294886D03*
X0118193Y0294886D03*
X0116224Y0294886D03*
X0114256Y0294886D03*
X0112287Y0294886D03*
X0110319Y0294886D03*
X0108350Y0294886D03*
X0106382Y0294886D03*
X0104413Y0294886D03*
X0102445Y0294886D03*
X0102445Y0192886D03*
X0104413Y0192886D03*
X0106382Y0192886D03*
X0108350Y0192886D03*
X0110319Y0192886D03*
X0112287Y0192886D03*
X0114256Y0192886D03*
X0116224Y0192886D03*
X0118193Y0192886D03*
X0120161Y0192886D03*
X0204445Y0192886D03*
X0206413Y0192886D03*
X0208382Y0192886D03*
X0210350Y0192886D03*
X0212319Y0192886D03*
X0214287Y0192886D03*
X0216256Y0192886D03*
X0218224Y0192886D03*
X0220193Y0192886D03*
X0222161Y0192886D03*
X0306445Y0192886D03*
X0308413Y0192886D03*
X0310382Y0192886D03*
X0312350Y0192886D03*
X0314319Y0192886D03*
X0316287Y0192886D03*
X0318256Y0192886D03*
X0320224Y0192886D03*
X0322193Y0192886D03*
X0324161Y0192886D03*
X0324161Y0090886D03*
X0322193Y0090886D03*
X0320224Y0090886D03*
X0318256Y0090886D03*
X0316287Y0090886D03*
X0314319Y0090886D03*
X0312350Y0090886D03*
X0310382Y0090886D03*
X0308413Y0090886D03*
X0306445Y0090886D03*
X0222161Y0090886D03*
X0220193Y0090886D03*
X0218224Y0090886D03*
X0216256Y0090886D03*
X0214287Y0090886D03*
X0212319Y0090886D03*
X0210350Y0090886D03*
X0208382Y0090886D03*
X0206413Y0090886D03*
X0204445Y0090886D03*
X0120161Y0090886D03*
X0118193Y0090886D03*
X0116224Y0090886D03*
X0114256Y0090886D03*
X0112287Y0090886D03*
X0110319Y0090886D03*
X0108350Y0090886D03*
X0106382Y0090886D03*
X0104413Y0090886D03*
X0102445Y0090886D03*
D18*
X0094177Y0068445D03*
X0128429Y0068445D03*
X0196177Y0068445D03*
X0230429Y0068445D03*
X0298177Y0068445D03*
X0332429Y0068445D03*
X0332429Y0170445D03*
X0298177Y0170445D03*
X0230429Y0170445D03*
X0196177Y0170445D03*
X0128429Y0170445D03*
X0094177Y0170445D03*
X0094177Y0272445D03*
X0128429Y0272445D03*
X0196177Y0272445D03*
X0230429Y0272445D03*
X0298177Y0272445D03*
X0332429Y0272445D03*
D19*
X0277788Y0242052D02*
X0274472Y0242052D01*
X0277788Y0242052D02*
X0277788Y0238736D01*
X0274472Y0238736D01*
X0274472Y0242052D01*
X0274472Y0240156D02*
X0277788Y0240156D01*
X0277788Y0241576D02*
X0274472Y0241576D01*
X0274472Y0235146D02*
X0277788Y0235146D01*
X0277788Y0231830D01*
X0274472Y0231830D01*
X0274472Y0235146D01*
X0274472Y0233250D02*
X0277788Y0233250D01*
X0277788Y0234670D02*
X0274472Y0234670D01*
X0274472Y0140052D02*
X0277788Y0140052D01*
X0277788Y0136736D01*
X0274472Y0136736D01*
X0274472Y0140052D01*
X0274472Y0138156D02*
X0277788Y0138156D01*
X0277788Y0139576D02*
X0274472Y0139576D01*
X0274472Y0133146D02*
X0277788Y0133146D01*
X0277788Y0129830D01*
X0274472Y0129830D01*
X0274472Y0133146D01*
X0274472Y0131250D02*
X0277788Y0131250D01*
X0277788Y0132670D02*
X0274472Y0132670D01*
X0175788Y0133146D02*
X0172472Y0133146D01*
X0175788Y0133146D02*
X0175788Y0129830D01*
X0172472Y0129830D01*
X0172472Y0133146D01*
X0172472Y0131250D02*
X0175788Y0131250D01*
X0175788Y0132670D02*
X0172472Y0132670D01*
X0172472Y0140052D02*
X0175788Y0140052D01*
X0175788Y0136736D01*
X0172472Y0136736D01*
X0172472Y0140052D01*
X0172472Y0138156D02*
X0175788Y0138156D01*
X0175788Y0139576D02*
X0172472Y0139576D01*
X0172472Y0235146D02*
X0175788Y0235146D01*
X0175788Y0231830D01*
X0172472Y0231830D01*
X0172472Y0235146D01*
X0172472Y0233250D02*
X0175788Y0233250D01*
X0175788Y0234670D02*
X0172472Y0234670D01*
X0172472Y0242052D02*
X0175788Y0242052D01*
X0175788Y0238736D01*
X0172472Y0238736D01*
X0172472Y0242052D01*
X0172472Y0240156D02*
X0175788Y0240156D01*
X0175788Y0241576D02*
X0172472Y0241576D01*
X0172472Y0337146D02*
X0175788Y0337146D01*
X0175788Y0333830D01*
X0172472Y0333830D01*
X0172472Y0337146D01*
X0172472Y0335250D02*
X0175788Y0335250D01*
X0175788Y0336670D02*
X0172472Y0336670D01*
X0172472Y0344052D02*
X0175788Y0344052D01*
X0175788Y0340736D01*
X0172472Y0340736D01*
X0172472Y0344052D01*
X0172472Y0342156D02*
X0175788Y0342156D01*
X0175788Y0343576D02*
X0172472Y0343576D01*
X0073788Y0344052D02*
X0070472Y0344052D01*
X0073788Y0344052D02*
X0073788Y0340736D01*
X0070472Y0340736D01*
X0070472Y0344052D01*
X0070472Y0342156D02*
X0073788Y0342156D01*
X0073788Y0343576D02*
X0070472Y0343576D01*
X0070472Y0337146D02*
X0073788Y0337146D01*
X0073788Y0333830D01*
X0070472Y0333830D01*
X0070472Y0337146D01*
X0070472Y0335250D02*
X0073788Y0335250D01*
X0073788Y0336670D02*
X0070472Y0336670D01*
X0070472Y0242052D02*
X0073788Y0242052D01*
X0073788Y0238736D01*
X0070472Y0238736D01*
X0070472Y0242052D01*
X0070472Y0240156D02*
X0073788Y0240156D01*
X0073788Y0241576D02*
X0070472Y0241576D01*
X0070472Y0235146D02*
X0073788Y0235146D01*
X0073788Y0231830D01*
X0070472Y0231830D01*
X0070472Y0235146D01*
X0070472Y0233250D02*
X0073788Y0233250D01*
X0073788Y0234670D02*
X0070472Y0234670D01*
X0070472Y0140052D02*
X0073788Y0140052D01*
X0073788Y0136736D01*
X0070472Y0136736D01*
X0070472Y0140052D01*
X0070472Y0138156D02*
X0073788Y0138156D01*
X0073788Y0139576D02*
X0070472Y0139576D01*
X0070472Y0133146D02*
X0073788Y0133146D01*
X0073788Y0129830D01*
X0070472Y0129830D01*
X0070472Y0133146D01*
X0070472Y0131250D02*
X0073788Y0131250D01*
X0073788Y0132670D02*
X0070472Y0132670D01*
X0274472Y0337146D02*
X0277788Y0337146D01*
X0277788Y0333830D01*
X0274472Y0333830D01*
X0274472Y0337146D01*
X0274472Y0335250D02*
X0277788Y0335250D01*
X0277788Y0336670D02*
X0274472Y0336670D01*
X0274472Y0344052D02*
X0277788Y0344052D01*
X0277788Y0340736D01*
X0274472Y0340736D01*
X0274472Y0344052D01*
X0274472Y0342156D02*
X0277788Y0342156D01*
X0277788Y0343576D02*
X0274472Y0343576D01*
M02*
