%
M48
M72
T01C0.0120
T02C0.0200
T03C0.0400
T04C0.1300
%
T01
X8350Y10000
X9000Y10000
X8900Y11600
X10150Y13250
X10800Y11850
X11500Y11850
X12150Y11850
X12150Y12500
X12150Y13250
X12650Y14600
X13450Y11650
X14900Y11000
X14650Y9750
X13800Y9750
X12250Y8250
X11350Y8250
X10650Y8250
X13900Y7850
X18550Y10000
X19200Y10000
X19100Y11600
X20350Y13250
X21000Y11850
X21700Y11850
X22350Y11850
X22350Y12500
X22350Y13250
X22850Y14600
X23650Y11650
X25100Y11000
X24850Y9750
X24000Y9750
X22450Y8250
X21550Y8250
X20850Y8250
X24100Y7850
X28750Y10000
X29400Y10000
X29300Y11600
X31200Y11850
X31900Y11850
X32550Y11850
X32550Y12500
X32550Y13250
X33050Y14600
X30550Y13250
X33850Y11650
X35300Y11000
X35050Y9750
X34200Y9750
X32650Y8250
X31750Y8250
X31050Y8250
X34300Y7850
X34300Y18050
X32650Y18450
X31750Y18450
X31050Y18450
X29400Y20200
X28750Y20200
X29300Y21800
X31200Y22050
X31900Y22050
X32550Y22050
X32550Y22700
X32550Y23450
X33050Y24800
X30550Y23450
X33850Y21850
X35300Y21200
X35050Y19950
X34200Y19950
X34300Y28250
X32650Y28650
X31750Y28650
X31050Y28650
X29400Y30400
X28750Y30400
X29300Y32000
X31200Y32250
X31900Y32250
X32550Y32250
X32550Y32900
X32550Y33650
X33050Y35000
X30550Y33650
X33850Y32050
X35300Y31400
X35050Y30150
X34200Y30150
X25100Y31400
X24850Y30150
X24000Y30150
X23650Y32050
X22350Y32250
X22350Y32900
X22350Y33650
X22850Y35000
X20350Y33650
X21000Y32250
X21700Y32250
X19100Y32000
X19200Y30400
X18550Y30400
X20850Y28650
X21550Y28650
X22450Y28650
X24100Y28250
X22850Y24800
X22350Y23450
X22350Y22700
X22350Y22050
X21700Y22050
X21000Y22050
X20350Y23450
X19100Y21800
X19200Y20200
X18550Y20200
X20850Y18450
X21550Y18450
X22450Y18450
X24100Y18050
X24000Y19950
X24850Y19950
X25100Y21200
X23650Y21850
X14900Y21200
X14650Y19950
X13800Y19950
X13450Y21850
X12150Y22050
X12150Y22700
X12150Y23450
X12650Y24800
X10150Y23450
X10800Y22050
X11500Y22050
X9000Y20200
X8350Y20200
X8900Y21800
X10650Y18450
X11350Y18450
X12250Y18450
X13900Y18050
X13900Y28250
X12250Y28650
X11350Y28650
X10650Y28650
X9000Y30400
X8350Y30400
X8900Y32000
X10150Y33650
X10800Y32250
X11500Y32250
X12150Y32250
X12150Y32900
X12150Y33650
X12650Y35000
X13450Y32050
X14900Y31400
X14650Y30150
X13800Y30150
T02
X13237Y28225
X9615Y28028
X9693Y29800
X8237Y33500
X8119Y34918
X18319Y34918
X18437Y33500
X19893Y29800
X19815Y28028
X23437Y28225
X18437Y23300
X18319Y24718
X19893Y19600
X19815Y17828
X23437Y18025
X28519Y14518
X28637Y13100
X30093Y9400
X30015Y7628
X33637Y7825
X33637Y18025
X30015Y17828
X30093Y19600
X28637Y23300
X28519Y24718
X30015Y28028
X30093Y29800
X33637Y28225
X28637Y33500
X28519Y34918
X13237Y18025
X9615Y17828
X9693Y19600
X8237Y23300
X8119Y24718
X8119Y14518
X8237Y13100
X9693Y9400
X9615Y7628
X13237Y7825
X18437Y13100
X18319Y14518
X19893Y9400
X19815Y7628
X23437Y7825
T03
X23350Y15750
X22350Y15750
X21350Y15750
X20350Y15750
X19350Y15750
X13150Y15750
X12150Y15750
X11150Y15750
X10150Y15750
X9150Y15750
X9150Y25950
X10150Y25950
X11150Y25950
X12150Y25950
X13150Y25950
X19350Y25950
X20350Y25950
X21350Y25950
X22350Y25950
X23350Y25950
X29550Y25950
X30550Y25950
X31550Y25950
X32550Y25950
X33550Y25950
X33550Y15750
X32550Y15750
X31550Y15750
X30550Y15750
X29550Y15750
X29550Y36150
X30550Y36150
X31550Y36150
X32550Y36150
X33550Y36150
X23350Y36150
X22350Y36150
X21350Y36150
X20350Y36150
X19350Y36150
X13150Y36150
X12150Y36150
X11150Y36150
X10150Y36150
X9150Y36150
T04
X7150Y7250
X7150Y15250
X7150Y17450
X7150Y25450
X7150Y27650
X7150Y35650
X15150Y35650
X17350Y35650
X17350Y27650
X17350Y25450
X15150Y25450
X15150Y27650
X15150Y17450
X15150Y15250
X17350Y15250
X17350Y17450
X25350Y17450
X25350Y15250
X27550Y15250
X27550Y17450
X27550Y25450
X27550Y27650
X25350Y27650
X25350Y25450
X25350Y35650
X27550Y35650
X35550Y35650
X35550Y27650
X35550Y25450
X35550Y17450
X35550Y15250
X35550Y7250
X27550Y7250
X25350Y7250
X17350Y7250
X15150Y7250
M30
