G75*
%MOIN*%
%OFA0B0*%
%FSLAX25Y25*%
%IPPOS*%
%LPD*%
%AMOC8*
5,1,8,0,0,1.08239X$1,22.5*
%
%ADD10R,0.04331X0.03937*%
%ADD11R,0.03937X0.04331*%
%ADD12R,0.07874X0.04724*%
%ADD13R,0.05315X0.02362*%
%ADD14R,0.01181X0.05118*%
%ADD15R,0.07087X0.08661*%
%ADD16C,0.01181*%
%ADD17R,0.02165X0.04724*%
%ADD18R,0.03150X0.04724*%
%ADD19R,0.02480X0.03268*%
%ADD20R,0.10630X0.03150*%
D10*
X0045404Y0051250D03*
X0052096Y0051250D03*
X0052096Y0058750D03*
X0045404Y0058750D03*
X0075404Y0091250D03*
X0082096Y0091250D03*
X0082096Y0098750D03*
X0075404Y0098750D03*
X0062096Y0113750D03*
X0055404Y0113750D03*
X0055404Y0123750D03*
X0062096Y0123750D03*
X0062096Y0133750D03*
X0055404Y0133750D03*
X0095404Y0098750D03*
X0095404Y0091250D03*
X0102096Y0091250D03*
X0102096Y0098750D03*
X0105404Y0058750D03*
X0105404Y0051250D03*
X0112096Y0051250D03*
X0112096Y0058750D03*
X0147404Y0058750D03*
X0147404Y0051250D03*
X0154096Y0051250D03*
X0154096Y0058750D03*
X0177404Y0091250D03*
X0184096Y0091250D03*
X0184096Y0098750D03*
X0177404Y0098750D03*
X0164096Y0113750D03*
X0157404Y0113750D03*
X0157404Y0123750D03*
X0164096Y0123750D03*
X0164096Y0133750D03*
X0157404Y0133750D03*
X0197404Y0098750D03*
X0197404Y0091250D03*
X0204096Y0091250D03*
X0204096Y0098750D03*
X0207404Y0058750D03*
X0214096Y0058750D03*
X0214096Y0051250D03*
X0207404Y0051250D03*
X0249404Y0051250D03*
X0249404Y0058750D03*
X0256096Y0058750D03*
X0256096Y0051250D03*
X0279404Y0091250D03*
X0279404Y0098750D03*
X0286096Y0098750D03*
X0286096Y0091250D03*
X0299404Y0091250D03*
X0306096Y0091250D03*
X0306096Y0098750D03*
X0299404Y0098750D03*
X0266096Y0113750D03*
X0259404Y0113750D03*
X0259404Y0123750D03*
X0266096Y0123750D03*
X0266096Y0133750D03*
X0259404Y0133750D03*
X0256096Y0188250D03*
X0256096Y0195750D03*
X0249404Y0195750D03*
X0249404Y0188250D03*
X0214096Y0188250D03*
X0207404Y0188250D03*
X0207404Y0195750D03*
X0214096Y0195750D03*
X0204096Y0228250D03*
X0204096Y0235750D03*
X0197404Y0235750D03*
X0197404Y0228250D03*
X0184096Y0228250D03*
X0177404Y0228250D03*
X0177404Y0235750D03*
X0184096Y0235750D03*
X0164096Y0250750D03*
X0157404Y0250750D03*
X0157404Y0260750D03*
X0164096Y0260750D03*
X0164096Y0270750D03*
X0157404Y0270750D03*
X0154096Y0325250D03*
X0154096Y0332750D03*
X0147404Y0332750D03*
X0147404Y0325250D03*
X0112096Y0325250D03*
X0112096Y0332750D03*
X0105404Y0332750D03*
X0105404Y0325250D03*
X0102096Y0365250D03*
X0102096Y0372750D03*
X0095404Y0372750D03*
X0095404Y0365250D03*
X0082096Y0365250D03*
X0075404Y0365250D03*
X0075404Y0372750D03*
X0082096Y0372750D03*
X0062096Y0387750D03*
X0055404Y0387750D03*
X0055404Y0397750D03*
X0062096Y0397750D03*
X0062096Y0407750D03*
X0055404Y0407750D03*
X0052096Y0332750D03*
X0045404Y0332750D03*
X0045404Y0325250D03*
X0052096Y0325250D03*
X0055404Y0270750D03*
X0062096Y0270750D03*
X0062096Y0260750D03*
X0055404Y0260750D03*
X0055404Y0250750D03*
X0062096Y0250750D03*
X0075404Y0235750D03*
X0082096Y0235750D03*
X0082096Y0228250D03*
X0075404Y0228250D03*
X0095404Y0228250D03*
X0095404Y0235750D03*
X0102096Y0235750D03*
X0102096Y0228250D03*
X0105404Y0195750D03*
X0105404Y0188250D03*
X0112096Y0188250D03*
X0112096Y0195750D03*
X0147404Y0195750D03*
X0147404Y0188250D03*
X0154096Y0188250D03*
X0154096Y0195750D03*
X0259404Y0250750D03*
X0266096Y0250750D03*
X0266096Y0260750D03*
X0259404Y0260750D03*
X0259404Y0270750D03*
X0266096Y0270750D03*
X0279404Y0235750D03*
X0279404Y0228250D03*
X0286096Y0228250D03*
X0286096Y0235750D03*
X0299404Y0235750D03*
X0306096Y0235750D03*
X0306096Y0228250D03*
X0299404Y0228250D03*
X0309404Y0195750D03*
X0316096Y0195750D03*
X0316096Y0188250D03*
X0309404Y0188250D03*
X0309404Y0058750D03*
X0316096Y0058750D03*
X0316096Y0051250D03*
X0309404Y0051250D03*
X0309404Y0325250D03*
X0316096Y0325250D03*
X0316096Y0332750D03*
X0309404Y0332750D03*
X0306096Y0365250D03*
X0299404Y0365250D03*
X0299404Y0372750D03*
X0306096Y0372750D03*
X0286096Y0372750D03*
X0286096Y0365250D03*
X0279404Y0365250D03*
X0279404Y0372750D03*
X0266096Y0387750D03*
X0259404Y0387750D03*
X0259404Y0397750D03*
X0266096Y0397750D03*
X0266096Y0407750D03*
X0259404Y0407750D03*
X0204096Y0372750D03*
X0204096Y0365250D03*
X0197404Y0365250D03*
X0197404Y0372750D03*
X0184096Y0372750D03*
X0177404Y0372750D03*
X0177404Y0365250D03*
X0184096Y0365250D03*
X0164096Y0387750D03*
X0157404Y0387750D03*
X0157404Y0397750D03*
X0164096Y0397750D03*
X0164096Y0407750D03*
X0157404Y0407750D03*
X0207404Y0332750D03*
X0214096Y0332750D03*
X0214096Y0325250D03*
X0207404Y0325250D03*
X0249404Y0325250D03*
X0249404Y0332750D03*
X0256096Y0332750D03*
X0256096Y0325250D03*
X0052096Y0195750D03*
X0045404Y0195750D03*
X0045404Y0188250D03*
X0052096Y0188250D03*
D11*
X0063750Y0207404D03*
X0063750Y0214096D03*
X0078750Y0214096D03*
X0078750Y0207404D03*
X0093750Y0207404D03*
X0093750Y0214096D03*
X0135474Y0234844D03*
X0135474Y0241537D03*
X0165750Y0214096D03*
X0165750Y0207404D03*
X0180750Y0207404D03*
X0180750Y0214096D03*
X0195750Y0214096D03*
X0195750Y0207404D03*
X0237474Y0234844D03*
X0237474Y0241537D03*
X0267750Y0214096D03*
X0267750Y0207404D03*
X0282750Y0207404D03*
X0282750Y0214096D03*
X0297750Y0214096D03*
X0297750Y0207404D03*
X0237474Y0104537D03*
X0237474Y0097844D03*
X0267750Y0077096D03*
X0267750Y0070404D03*
X0282750Y0070404D03*
X0282750Y0077096D03*
X0297750Y0077096D03*
X0297750Y0070404D03*
X0195750Y0070404D03*
X0195750Y0077096D03*
X0180750Y0077096D03*
X0180750Y0070404D03*
X0165750Y0070404D03*
X0165750Y0077096D03*
X0135474Y0097844D03*
X0135474Y0104537D03*
X0093750Y0077096D03*
X0093750Y0070404D03*
X0078750Y0070404D03*
X0078750Y0077096D03*
X0063750Y0077096D03*
X0063750Y0070404D03*
X0033474Y0097844D03*
X0033474Y0104537D03*
X0033474Y0234844D03*
X0033474Y0241537D03*
X0063750Y0344404D03*
X0063750Y0351096D03*
X0078750Y0351096D03*
X0078750Y0344404D03*
X0093750Y0344404D03*
X0093750Y0351096D03*
X0135474Y0371844D03*
X0135474Y0378537D03*
X0165750Y0351096D03*
X0165750Y0344404D03*
X0180750Y0344404D03*
X0180750Y0351096D03*
X0195750Y0351096D03*
X0195750Y0344404D03*
X0237474Y0371844D03*
X0237474Y0378537D03*
X0267750Y0351096D03*
X0267750Y0344404D03*
X0282750Y0344404D03*
X0282750Y0351096D03*
X0297750Y0351096D03*
X0297750Y0344404D03*
X0033474Y0371844D03*
X0033474Y0378537D03*
D12*
X0034281Y0363774D03*
X0034281Y0341726D03*
X0123219Y0341726D03*
X0136281Y0341726D03*
X0136281Y0363774D03*
X0123219Y0363774D03*
X0225219Y0363774D03*
X0238281Y0363774D03*
X0238281Y0341726D03*
X0225219Y0341726D03*
X0327219Y0341726D03*
X0327219Y0363774D03*
X0327219Y0226774D03*
X0327219Y0204726D03*
X0238281Y0204726D03*
X0225219Y0204726D03*
X0225219Y0226774D03*
X0238281Y0226774D03*
X0136281Y0226774D03*
X0123219Y0226774D03*
X0123219Y0204726D03*
X0136281Y0204726D03*
X0034281Y0204726D03*
X0034281Y0226774D03*
X0034281Y0089774D03*
X0034281Y0067726D03*
X0123219Y0067726D03*
X0136281Y0067726D03*
X0136281Y0089774D03*
X0123219Y0089774D03*
X0225219Y0089774D03*
X0238281Y0089774D03*
X0238281Y0067726D03*
X0225219Y0067726D03*
X0327219Y0067726D03*
X0327219Y0089774D03*
D13*
X0312750Y0084656D03*
X0312750Y0080719D03*
X0312750Y0076781D03*
X0312750Y0072844D03*
X0252750Y0072844D03*
X0252750Y0076781D03*
X0252750Y0080719D03*
X0252750Y0084656D03*
X0210750Y0084656D03*
X0210750Y0080719D03*
X0210750Y0076781D03*
X0210750Y0072844D03*
X0150750Y0072844D03*
X0150750Y0076781D03*
X0150750Y0080719D03*
X0150750Y0084656D03*
X0108750Y0084656D03*
X0108750Y0080719D03*
X0108750Y0076781D03*
X0108750Y0072844D03*
X0048750Y0072844D03*
X0048750Y0076781D03*
X0048750Y0080719D03*
X0048750Y0084656D03*
X0048750Y0209844D03*
X0048750Y0213781D03*
X0048750Y0217719D03*
X0048750Y0221656D03*
X0108750Y0221656D03*
X0108750Y0217719D03*
X0108750Y0213781D03*
X0108750Y0209844D03*
X0150750Y0209844D03*
X0150750Y0213781D03*
X0150750Y0217719D03*
X0150750Y0221656D03*
X0210750Y0221656D03*
X0210750Y0217719D03*
X0210750Y0213781D03*
X0210750Y0209844D03*
X0252750Y0209844D03*
X0252750Y0213781D03*
X0252750Y0217719D03*
X0252750Y0221656D03*
X0312750Y0221656D03*
X0312750Y0217719D03*
X0312750Y0213781D03*
X0312750Y0209844D03*
X0312750Y0346844D03*
X0312750Y0350781D03*
X0312750Y0354719D03*
X0312750Y0358656D03*
X0252750Y0358656D03*
X0252750Y0354719D03*
X0252750Y0350781D03*
X0252750Y0346844D03*
X0210750Y0346844D03*
X0210750Y0350781D03*
X0210750Y0354719D03*
X0210750Y0358656D03*
X0150750Y0358656D03*
X0150750Y0354719D03*
X0150750Y0350781D03*
X0150750Y0346844D03*
X0108750Y0346844D03*
X0108750Y0350781D03*
X0108750Y0354719D03*
X0108750Y0358656D03*
X0048750Y0358656D03*
X0048750Y0354719D03*
X0048750Y0350781D03*
X0048750Y0346844D03*
D14*
X0069695Y0331136D03*
X0071663Y0331136D03*
X0073632Y0331136D03*
X0075600Y0331136D03*
X0077569Y0331136D03*
X0079537Y0331136D03*
X0081506Y0331136D03*
X0083474Y0331136D03*
X0085443Y0331136D03*
X0087411Y0331136D03*
X0171695Y0331136D03*
X0173663Y0331136D03*
X0175632Y0331136D03*
X0177600Y0331136D03*
X0179569Y0331136D03*
X0181537Y0331136D03*
X0183506Y0331136D03*
X0185474Y0331136D03*
X0187443Y0331136D03*
X0189411Y0331136D03*
X0273695Y0331136D03*
X0275663Y0331136D03*
X0277632Y0331136D03*
X0279600Y0331136D03*
X0281569Y0331136D03*
X0283537Y0331136D03*
X0285506Y0331136D03*
X0287474Y0331136D03*
X0289443Y0331136D03*
X0291411Y0331136D03*
X0291411Y0194136D03*
X0289443Y0194136D03*
X0287474Y0194136D03*
X0285506Y0194136D03*
X0283537Y0194136D03*
X0281569Y0194136D03*
X0279600Y0194136D03*
X0277632Y0194136D03*
X0275663Y0194136D03*
X0273695Y0194136D03*
X0189411Y0194136D03*
X0187443Y0194136D03*
X0185474Y0194136D03*
X0183506Y0194136D03*
X0181537Y0194136D03*
X0179569Y0194136D03*
X0177600Y0194136D03*
X0175632Y0194136D03*
X0173663Y0194136D03*
X0171695Y0194136D03*
X0087411Y0194136D03*
X0085443Y0194136D03*
X0083474Y0194136D03*
X0081506Y0194136D03*
X0079537Y0194136D03*
X0077569Y0194136D03*
X0075600Y0194136D03*
X0073632Y0194136D03*
X0071663Y0194136D03*
X0069695Y0194136D03*
X0069695Y0057136D03*
X0071663Y0057136D03*
X0073632Y0057136D03*
X0075600Y0057136D03*
X0077569Y0057136D03*
X0079537Y0057136D03*
X0081506Y0057136D03*
X0083474Y0057136D03*
X0085443Y0057136D03*
X0087411Y0057136D03*
X0171695Y0057136D03*
X0173663Y0057136D03*
X0175632Y0057136D03*
X0177600Y0057136D03*
X0179569Y0057136D03*
X0181537Y0057136D03*
X0183506Y0057136D03*
X0185474Y0057136D03*
X0187443Y0057136D03*
X0189411Y0057136D03*
X0273695Y0057136D03*
X0275663Y0057136D03*
X0277632Y0057136D03*
X0279600Y0057136D03*
X0281569Y0057136D03*
X0283537Y0057136D03*
X0285506Y0057136D03*
X0287474Y0057136D03*
X0289443Y0057136D03*
X0291411Y0057136D03*
D15*
X0299679Y0034695D03*
X0265427Y0034695D03*
X0197679Y0034695D03*
X0163427Y0034695D03*
X0095679Y0034695D03*
X0061427Y0034695D03*
X0061427Y0171695D03*
X0095679Y0171695D03*
X0163427Y0171695D03*
X0197679Y0171695D03*
X0265427Y0171695D03*
X0299679Y0171695D03*
X0299679Y0308695D03*
X0265427Y0308695D03*
X0197679Y0308695D03*
X0163427Y0308695D03*
X0095679Y0308695D03*
X0061427Y0308695D03*
D16*
X0040758Y0373116D02*
X0038002Y0373116D01*
X0040758Y0373116D02*
X0040758Y0370360D01*
X0038002Y0370360D01*
X0038002Y0373116D01*
X0038002Y0371540D02*
X0040758Y0371540D01*
X0040758Y0372720D02*
X0038002Y0372720D01*
X0038002Y0380022D02*
X0040758Y0380022D01*
X0040758Y0377266D01*
X0038002Y0377266D01*
X0038002Y0380022D01*
X0038002Y0378446D02*
X0040758Y0378446D01*
X0040758Y0379626D02*
X0038002Y0379626D01*
X0140002Y0380022D02*
X0142758Y0380022D01*
X0142758Y0377266D01*
X0140002Y0377266D01*
X0140002Y0380022D01*
X0140002Y0378446D02*
X0142758Y0378446D01*
X0142758Y0379626D02*
X0140002Y0379626D01*
X0140002Y0373116D02*
X0142758Y0373116D01*
X0142758Y0370360D01*
X0140002Y0370360D01*
X0140002Y0373116D01*
X0140002Y0371540D02*
X0142758Y0371540D01*
X0142758Y0372720D02*
X0140002Y0372720D01*
X0242002Y0373116D02*
X0244758Y0373116D01*
X0244758Y0370360D01*
X0242002Y0370360D01*
X0242002Y0373116D01*
X0242002Y0371540D02*
X0244758Y0371540D01*
X0244758Y0372720D02*
X0242002Y0372720D01*
X0242002Y0380022D02*
X0244758Y0380022D01*
X0244758Y0377266D01*
X0242002Y0377266D01*
X0242002Y0380022D01*
X0242002Y0378446D02*
X0244758Y0378446D01*
X0244758Y0379626D02*
X0242002Y0379626D01*
X0242002Y0243022D02*
X0244758Y0243022D01*
X0244758Y0240266D01*
X0242002Y0240266D01*
X0242002Y0243022D01*
X0242002Y0241446D02*
X0244758Y0241446D01*
X0244758Y0242626D02*
X0242002Y0242626D01*
X0242002Y0236116D02*
X0244758Y0236116D01*
X0244758Y0233360D01*
X0242002Y0233360D01*
X0242002Y0236116D01*
X0242002Y0234540D02*
X0244758Y0234540D01*
X0244758Y0235720D02*
X0242002Y0235720D01*
X0142758Y0236116D02*
X0140002Y0236116D01*
X0142758Y0236116D02*
X0142758Y0233360D01*
X0140002Y0233360D01*
X0140002Y0236116D01*
X0140002Y0234540D02*
X0142758Y0234540D01*
X0142758Y0235720D02*
X0140002Y0235720D01*
X0140002Y0243022D02*
X0142758Y0243022D01*
X0142758Y0240266D01*
X0140002Y0240266D01*
X0140002Y0243022D01*
X0140002Y0241446D02*
X0142758Y0241446D01*
X0142758Y0242626D02*
X0140002Y0242626D01*
X0040758Y0243022D02*
X0038002Y0243022D01*
X0040758Y0243022D02*
X0040758Y0240266D01*
X0038002Y0240266D01*
X0038002Y0243022D01*
X0038002Y0241446D02*
X0040758Y0241446D01*
X0040758Y0242626D02*
X0038002Y0242626D01*
X0038002Y0236116D02*
X0040758Y0236116D01*
X0040758Y0233360D01*
X0038002Y0233360D01*
X0038002Y0236116D01*
X0038002Y0234540D02*
X0040758Y0234540D01*
X0040758Y0235720D02*
X0038002Y0235720D01*
X0038002Y0106022D02*
X0040758Y0106022D01*
X0040758Y0103266D01*
X0038002Y0103266D01*
X0038002Y0106022D01*
X0038002Y0104446D02*
X0040758Y0104446D01*
X0040758Y0105626D02*
X0038002Y0105626D01*
X0038002Y0099116D02*
X0040758Y0099116D01*
X0040758Y0096360D01*
X0038002Y0096360D01*
X0038002Y0099116D01*
X0038002Y0097540D02*
X0040758Y0097540D01*
X0040758Y0098720D02*
X0038002Y0098720D01*
X0140002Y0099116D02*
X0142758Y0099116D01*
X0142758Y0096360D01*
X0140002Y0096360D01*
X0140002Y0099116D01*
X0140002Y0097540D02*
X0142758Y0097540D01*
X0142758Y0098720D02*
X0140002Y0098720D01*
X0140002Y0106022D02*
X0142758Y0106022D01*
X0142758Y0103266D01*
X0140002Y0103266D01*
X0140002Y0106022D01*
X0140002Y0104446D02*
X0142758Y0104446D01*
X0142758Y0105626D02*
X0140002Y0105626D01*
X0242002Y0106022D02*
X0244758Y0106022D01*
X0244758Y0103266D01*
X0242002Y0103266D01*
X0242002Y0106022D01*
X0242002Y0104446D02*
X0244758Y0104446D01*
X0244758Y0105626D02*
X0242002Y0105626D01*
X0242002Y0099116D02*
X0244758Y0099116D01*
X0244758Y0096360D01*
X0242002Y0096360D01*
X0242002Y0099116D01*
X0242002Y0097540D02*
X0244758Y0097540D01*
X0244758Y0098720D02*
X0242002Y0098720D01*
D17*
X0279010Y0123631D03*
X0286490Y0123631D03*
X0286490Y0133869D03*
X0282750Y0133869D03*
X0279010Y0133869D03*
X0184490Y0133869D03*
X0180750Y0133869D03*
X0177010Y0133869D03*
X0177010Y0123631D03*
X0184490Y0123631D03*
X0082490Y0123631D03*
X0075010Y0123631D03*
X0075010Y0133869D03*
X0078750Y0133869D03*
X0082490Y0133869D03*
X0082490Y0260631D03*
X0075010Y0260631D03*
X0075010Y0270869D03*
X0078750Y0270869D03*
X0082490Y0270869D03*
X0177010Y0270869D03*
X0180750Y0270869D03*
X0184490Y0270869D03*
X0184490Y0260631D03*
X0177010Y0260631D03*
X0279010Y0260631D03*
X0286490Y0260631D03*
X0286490Y0270869D03*
X0282750Y0270869D03*
X0279010Y0270869D03*
X0279010Y0397631D03*
X0286490Y0397631D03*
X0286490Y0407869D03*
X0282750Y0407869D03*
X0279010Y0407869D03*
X0184490Y0407869D03*
X0180750Y0407869D03*
X0177010Y0407869D03*
X0177010Y0397631D03*
X0184490Y0397631D03*
X0082490Y0397631D03*
X0075010Y0397631D03*
X0075010Y0407869D03*
X0078750Y0407869D03*
X0082490Y0407869D03*
D18*
X0082293Y0387750D03*
X0075207Y0387750D03*
X0177207Y0387750D03*
X0184293Y0387750D03*
X0279207Y0387750D03*
X0286293Y0387750D03*
X0286293Y0250750D03*
X0279207Y0250750D03*
X0184293Y0250750D03*
X0177207Y0250750D03*
X0082293Y0250750D03*
X0075207Y0250750D03*
X0075207Y0113750D03*
X0082293Y0113750D03*
X0177207Y0113750D03*
X0184293Y0113750D03*
X0279207Y0113750D03*
X0286293Y0113750D03*
D19*
X0298222Y0113750D03*
X0307278Y0113750D03*
X0205278Y0113750D03*
X0196222Y0113750D03*
X0103278Y0113750D03*
X0094222Y0113750D03*
X0094222Y0250750D03*
X0103278Y0250750D03*
X0196222Y0250750D03*
X0205278Y0250750D03*
X0298222Y0250750D03*
X0307278Y0250750D03*
X0307278Y0387750D03*
X0298222Y0387750D03*
X0205278Y0387750D03*
X0196222Y0387750D03*
X0103278Y0387750D03*
X0094222Y0387750D03*
D20*
X0098750Y0398419D03*
X0098750Y0407081D03*
X0200750Y0407081D03*
X0200750Y0398419D03*
X0302750Y0398419D03*
X0302750Y0407081D03*
X0302750Y0270081D03*
X0302750Y0261419D03*
X0200750Y0261419D03*
X0200750Y0270081D03*
X0098750Y0270081D03*
X0098750Y0261419D03*
X0098750Y0133081D03*
X0098750Y0124419D03*
X0200750Y0124419D03*
X0200750Y0133081D03*
X0302750Y0133081D03*
X0302750Y0124419D03*
M02*
