%
M48
M72
T01C0.0120
T02C0.0400
T03C0.1300
%
T01
X5075Y6625
X5725Y6625
X6418Y6025
X7375Y4875
X8075Y4875
X8975Y4875
X9962Y4450
X10625Y4475
X10525Y6375
X11375Y6375
X11625Y7625
X11625Y8375
X10175Y8275
X8875Y8475
X8875Y9125
X8875Y9875
X8225Y8475
X7525Y8475
X6862Y8475
X5625Y8225
X5112Y9525
X5625Y10475
X4894Y11393
X6662Y11925
X7025Y12375
X7025Y13825
X8725Y12125
X8812Y11425
X6675Y10575
X9075Y13825
X9962Y18150
X10625Y18175
X8975Y18575
X8075Y18575
X7375Y18575
X6340Y17953
X6418Y19725
X5725Y20325
X5075Y20325
X5625Y21925
X5112Y23225
X5625Y24175
X4894Y25093
X6662Y25625
X7025Y26075
X7025Y27525
X8725Y25825
X8812Y25125
X8875Y23575
X8875Y22825
X8875Y22175
X8225Y22175
X7525Y22175
X6862Y22175
X6675Y24275
X9075Y27525
X9962Y31850
X10625Y31875
X10525Y33775
X11375Y33775
X11625Y35025
X11625Y35775
X10175Y35675
X8875Y35875
X8875Y36525
X8875Y37275
X8225Y35875
X7525Y35875
X6862Y35875
X5625Y35625
X5112Y36925
X5625Y37875
X4894Y38793
X6662Y39325
X7025Y39775
X7025Y41225
X8725Y39525
X8812Y38825
X6675Y37975
X9075Y41225
X11612Y37325
X15312Y36925
X15825Y37875
X15094Y38793
X16862Y39325
X17225Y39775
X17225Y41225
X19275Y41225
X18925Y39525
X19012Y38825
X19075Y37275
X19075Y36525
X19075Y35875
X18425Y35875
X17725Y35875
X17062Y35875
X15825Y35625
X15925Y34025
X16618Y33425
X15275Y34025
X16540Y31653
X17575Y32275
X18275Y32275
X19175Y32275
X20162Y31850
X20825Y31875
X20725Y33775
X21575Y33775
X21825Y35025
X21825Y35775
X20375Y35675
X21812Y37325
X25512Y36925
X26025Y37875
X27075Y37975
X27062Y39325
X27425Y39775
X27425Y41225
X29475Y41225
X29125Y39525
X29212Y38825
X29275Y37275
X29275Y36525
X29275Y35875
X28625Y35875
X27925Y35875
X27262Y35875
X26025Y35625
X26125Y34025
X26818Y33425
X25475Y34025
X26740Y31653
X27775Y32275
X28475Y32275
X29375Y32275
X30362Y31850
X31025Y31875
X30925Y33775
X31775Y33775
X32025Y35025
X32025Y35775
X30575Y35675
X32012Y37325
X25294Y38793
X16875Y37975
X8975Y32275
X8075Y32275
X7375Y32275
X6340Y31653
X6418Y33425
X5725Y34025
X5075Y34025
X11612Y23625
X11625Y22075
X11625Y21325
X11375Y20075
X10525Y20075
X10175Y21975
X15312Y23225
X15825Y24175
X15094Y25093
X16862Y25625
X17225Y26075
X17225Y27525
X19275Y27525
X18925Y25825
X19012Y25125
X19075Y23575
X19075Y22825
X19075Y22175
X18425Y22175
X17725Y22175
X17062Y22175
X15825Y21925
X15925Y20325
X16618Y19725
X15275Y20325
X16540Y17953
X17575Y18575
X18275Y18575
X19175Y18575
X20162Y18150
X20825Y18175
X20725Y20075
X21575Y20075
X21825Y21325
X21825Y22075
X20375Y21975
X21812Y23625
X25512Y23225
X26025Y24175
X27075Y24275
X27062Y25625
X27425Y26075
X27425Y27525
X29475Y27525
X29125Y25825
X29212Y25125
X29275Y23575
X29275Y22825
X29275Y22175
X28625Y22175
X27925Y22175
X27262Y22175
X26025Y21925
X26125Y20325
X26818Y19725
X25475Y20325
X26740Y17953
X27775Y18575
X28475Y18575
X29375Y18575
X30362Y18150
X31025Y18175
X30925Y20075
X31775Y20075
X32025Y21325
X32025Y22075
X30575Y21975
X32012Y23625
X25294Y25093
X16875Y24275
X17225Y13825
X17225Y12375
X16862Y11925
X16875Y10575
X15825Y10475
X15312Y9525
X15825Y8225
X17062Y8475
X17725Y8475
X18425Y8475
X19075Y8475
X19075Y9125
X19075Y9875
X19012Y11425
X18925Y12125
X19275Y13825
X21812Y9925
X21825Y8375
X21825Y7625
X21575Y6375
X20725Y6375
X20825Y4475
X20162Y4450
X19175Y4875
X18275Y4875
X17575Y4875
X16540Y4253
X16618Y6025
X15925Y6625
X15275Y6625
X11612Y9925
X15094Y11393
X20375Y8275
X25512Y9525
X26025Y10475
X27075Y10575
X27062Y11925
X27425Y12375
X27425Y13825
X29475Y13825
X29125Y12125
X29212Y11425
X29275Y9875
X29275Y9125
X29275Y8475
X28625Y8475
X27925Y8475
X27262Y8475
X26025Y8225
X26125Y6625
X25475Y6625
X26818Y6025
X27775Y4875
X28475Y4875
X29375Y4875
X30362Y4450
X31025Y4475
X30925Y6375
X31775Y6375
X32025Y7625
X32025Y8375
X30575Y8275
X32012Y9925
X26740Y4253
X25294Y11393
X6340Y4253
T02
X5875Y15875
X6875Y15875
X7875Y15875
X8875Y15875
X9875Y15875
X16075Y15875
X17075Y15875
X18075Y15875
X19075Y15875
X20075Y15875
X26275Y15875
X27275Y15875
X28275Y15875
X29275Y15875
X30275Y15875
X30275Y29575
X29275Y29575
X28275Y29575
X27275Y29575
X26275Y29575
X20075Y29575
X19075Y29575
X18075Y29575
X17075Y29575
X16075Y29575
X9875Y29575
X8875Y29575
X7875Y29575
X6875Y29575
X5875Y29575
X5875Y43275
X6875Y43275
X7875Y43275
X8875Y43275
X9875Y43275
X16075Y43275
X17075Y43275
X18075Y43275
X19075Y43275
X20075Y43275
X26275Y43275
X27275Y43275
X28275Y43275
X29275Y43275
X30275Y43275
T03
X3875Y3875
X3875Y11875
X3875Y17575
X3875Y25575
X3875Y31275
X3875Y39275
X11875Y39275
X14075Y39275
X14075Y31275
X11875Y31275
X11875Y25575
X14075Y25575
X14075Y17575
X11875Y17575
X11875Y11875
X14075Y11875
X14075Y3875
X11875Y3875
X22075Y3875
X24275Y3875
X24275Y11875
X22075Y11875
X22075Y17575
X24275Y17575
X24275Y25575
X22075Y25575
X22075Y31275
X24275Y31275
X24275Y39275
X22075Y39275
X32275Y39275
X32275Y31275
X32275Y25575
X32275Y17575
X32275Y11875
X32275Y3875
M30
