G75*
%MOIN*%
%OFA0B0*%
%FSLAX25Y25*%
%IPPOS*%
%LPD*%
%AMOC8*
5,1,8,0,0,1.08239X$1,22.5*
%
%ADD10R,0.05131X0.04737*%
%ADD11R,0.04737X0.05131*%
%ADD12R,0.08674X0.05524*%
%ADD13R,0.06115X0.03162*%
%ADD14C,0.13800*%
%ADD15C,0.03300*%
%ADD16C,0.08200*%
%ADD17R,0.01981X0.05918*%
%ADD18R,0.07887X0.09461*%
%ADD19C,0.01421*%
%ADD20R,0.02965X0.05524*%
%ADD21R,0.03950X0.05524*%
%ADD22R,0.03280X0.04068*%
%ADD23R,0.11430X0.03950*%
%ADD24C,0.04737*%
%ADD25C,0.05000*%
%ADD26C,0.06706*%
D10*
X0045404Y0051250D03*
X0052096Y0051250D03*
X0052096Y0058750D03*
X0045404Y0058750D03*
X0075404Y0091250D03*
X0082096Y0091250D03*
X0082096Y0098750D03*
X0075404Y0098750D03*
X0062096Y0113750D03*
X0055404Y0113750D03*
X0055404Y0123750D03*
X0062096Y0123750D03*
X0062096Y0133750D03*
X0055404Y0133750D03*
X0095404Y0098750D03*
X0095404Y0091250D03*
X0102096Y0091250D03*
X0102096Y0098750D03*
X0105404Y0058750D03*
X0105404Y0051250D03*
X0112096Y0051250D03*
X0112096Y0058750D03*
X0147404Y0058750D03*
X0147404Y0051250D03*
X0154096Y0051250D03*
X0154096Y0058750D03*
X0177404Y0091250D03*
X0184096Y0091250D03*
X0184096Y0098750D03*
X0177404Y0098750D03*
X0164096Y0113750D03*
X0157404Y0113750D03*
X0157404Y0123750D03*
X0164096Y0123750D03*
X0164096Y0133750D03*
X0157404Y0133750D03*
X0197404Y0098750D03*
X0197404Y0091250D03*
X0204096Y0091250D03*
X0204096Y0098750D03*
X0207404Y0058750D03*
X0214096Y0058750D03*
X0214096Y0051250D03*
X0207404Y0051250D03*
X0249404Y0051250D03*
X0249404Y0058750D03*
X0256096Y0058750D03*
X0256096Y0051250D03*
X0279404Y0091250D03*
X0279404Y0098750D03*
X0286096Y0098750D03*
X0286096Y0091250D03*
X0299404Y0091250D03*
X0306096Y0091250D03*
X0306096Y0098750D03*
X0299404Y0098750D03*
X0266096Y0113750D03*
X0259404Y0113750D03*
X0259404Y0123750D03*
X0266096Y0123750D03*
X0266096Y0133750D03*
X0259404Y0133750D03*
X0256096Y0188250D03*
X0256096Y0195750D03*
X0249404Y0195750D03*
X0249404Y0188250D03*
X0214096Y0188250D03*
X0207404Y0188250D03*
X0207404Y0195750D03*
X0214096Y0195750D03*
X0204096Y0228250D03*
X0204096Y0235750D03*
X0197404Y0235750D03*
X0197404Y0228250D03*
X0184096Y0228250D03*
X0177404Y0228250D03*
X0177404Y0235750D03*
X0184096Y0235750D03*
X0164096Y0250750D03*
X0157404Y0250750D03*
X0157404Y0260750D03*
X0164096Y0260750D03*
X0164096Y0270750D03*
X0157404Y0270750D03*
X0154096Y0325250D03*
X0154096Y0332750D03*
X0147404Y0332750D03*
X0147404Y0325250D03*
X0112096Y0325250D03*
X0112096Y0332750D03*
X0105404Y0332750D03*
X0105404Y0325250D03*
X0102096Y0365250D03*
X0102096Y0372750D03*
X0095404Y0372750D03*
X0095404Y0365250D03*
X0082096Y0365250D03*
X0075404Y0365250D03*
X0075404Y0372750D03*
X0082096Y0372750D03*
X0062096Y0387750D03*
X0055404Y0387750D03*
X0055404Y0397750D03*
X0062096Y0397750D03*
X0062096Y0407750D03*
X0055404Y0407750D03*
X0052096Y0332750D03*
X0045404Y0332750D03*
X0045404Y0325250D03*
X0052096Y0325250D03*
X0055404Y0270750D03*
X0062096Y0270750D03*
X0062096Y0260750D03*
X0055404Y0260750D03*
X0055404Y0250750D03*
X0062096Y0250750D03*
X0075404Y0235750D03*
X0082096Y0235750D03*
X0082096Y0228250D03*
X0075404Y0228250D03*
X0095404Y0228250D03*
X0095404Y0235750D03*
X0102096Y0235750D03*
X0102096Y0228250D03*
X0105404Y0195750D03*
X0105404Y0188250D03*
X0112096Y0188250D03*
X0112096Y0195750D03*
X0147404Y0195750D03*
X0147404Y0188250D03*
X0154096Y0188250D03*
X0154096Y0195750D03*
X0259404Y0250750D03*
X0266096Y0250750D03*
X0266096Y0260750D03*
X0259404Y0260750D03*
X0259404Y0270750D03*
X0266096Y0270750D03*
X0279404Y0235750D03*
X0279404Y0228250D03*
X0286096Y0228250D03*
X0286096Y0235750D03*
X0299404Y0235750D03*
X0306096Y0235750D03*
X0306096Y0228250D03*
X0299404Y0228250D03*
X0309404Y0195750D03*
X0316096Y0195750D03*
X0316096Y0188250D03*
X0309404Y0188250D03*
X0309404Y0058750D03*
X0316096Y0058750D03*
X0316096Y0051250D03*
X0309404Y0051250D03*
X0309404Y0325250D03*
X0316096Y0325250D03*
X0316096Y0332750D03*
X0309404Y0332750D03*
X0306096Y0365250D03*
X0299404Y0365250D03*
X0299404Y0372750D03*
X0306096Y0372750D03*
X0286096Y0372750D03*
X0286096Y0365250D03*
X0279404Y0365250D03*
X0279404Y0372750D03*
X0266096Y0387750D03*
X0259404Y0387750D03*
X0259404Y0397750D03*
X0266096Y0397750D03*
X0266096Y0407750D03*
X0259404Y0407750D03*
X0204096Y0372750D03*
X0204096Y0365250D03*
X0197404Y0365250D03*
X0197404Y0372750D03*
X0184096Y0372750D03*
X0177404Y0372750D03*
X0177404Y0365250D03*
X0184096Y0365250D03*
X0164096Y0387750D03*
X0157404Y0387750D03*
X0157404Y0397750D03*
X0164096Y0397750D03*
X0164096Y0407750D03*
X0157404Y0407750D03*
X0207404Y0332750D03*
X0214096Y0332750D03*
X0214096Y0325250D03*
X0207404Y0325250D03*
X0249404Y0325250D03*
X0249404Y0332750D03*
X0256096Y0332750D03*
X0256096Y0325250D03*
X0052096Y0195750D03*
X0045404Y0195750D03*
X0045404Y0188250D03*
X0052096Y0188250D03*
D11*
X0063750Y0207404D03*
X0063750Y0214096D03*
X0078750Y0214096D03*
X0078750Y0207404D03*
X0093750Y0207404D03*
X0093750Y0214096D03*
X0135474Y0234844D03*
X0135474Y0241537D03*
X0165750Y0214096D03*
X0165750Y0207404D03*
X0180750Y0207404D03*
X0180750Y0214096D03*
X0195750Y0214096D03*
X0195750Y0207404D03*
X0237474Y0234844D03*
X0237474Y0241537D03*
X0267750Y0214096D03*
X0267750Y0207404D03*
X0282750Y0207404D03*
X0282750Y0214096D03*
X0297750Y0214096D03*
X0297750Y0207404D03*
X0237474Y0104537D03*
X0237474Y0097844D03*
X0267750Y0077096D03*
X0267750Y0070404D03*
X0282750Y0070404D03*
X0282750Y0077096D03*
X0297750Y0077096D03*
X0297750Y0070404D03*
X0195750Y0070404D03*
X0195750Y0077096D03*
X0180750Y0077096D03*
X0180750Y0070404D03*
X0165750Y0070404D03*
X0165750Y0077096D03*
X0135474Y0097844D03*
X0135474Y0104537D03*
X0093750Y0077096D03*
X0093750Y0070404D03*
X0078750Y0070404D03*
X0078750Y0077096D03*
X0063750Y0077096D03*
X0063750Y0070404D03*
X0033474Y0097844D03*
X0033474Y0104537D03*
X0033474Y0234844D03*
X0033474Y0241537D03*
X0063750Y0344404D03*
X0063750Y0351096D03*
X0078750Y0351096D03*
X0078750Y0344404D03*
X0093750Y0344404D03*
X0093750Y0351096D03*
X0135474Y0371844D03*
X0135474Y0378537D03*
X0165750Y0351096D03*
X0165750Y0344404D03*
X0180750Y0344404D03*
X0180750Y0351096D03*
X0195750Y0351096D03*
X0195750Y0344404D03*
X0237474Y0371844D03*
X0237474Y0378537D03*
X0267750Y0351096D03*
X0267750Y0344404D03*
X0282750Y0344404D03*
X0282750Y0351096D03*
X0297750Y0351096D03*
X0297750Y0344404D03*
X0033474Y0371844D03*
X0033474Y0378537D03*
D12*
X0034281Y0363774D03*
X0034281Y0341726D03*
X0123219Y0341726D03*
X0136281Y0341726D03*
X0136281Y0363774D03*
X0123219Y0363774D03*
X0225219Y0363774D03*
X0238281Y0363774D03*
X0238281Y0341726D03*
X0225219Y0341726D03*
X0327219Y0341726D03*
X0327219Y0363774D03*
X0327219Y0226774D03*
X0327219Y0204726D03*
X0238281Y0204726D03*
X0225219Y0204726D03*
X0225219Y0226774D03*
X0238281Y0226774D03*
X0136281Y0226774D03*
X0123219Y0226774D03*
X0123219Y0204726D03*
X0136281Y0204726D03*
X0034281Y0204726D03*
X0034281Y0226774D03*
X0034281Y0089774D03*
X0034281Y0067726D03*
X0123219Y0067726D03*
X0136281Y0067726D03*
X0136281Y0089774D03*
X0123219Y0089774D03*
X0225219Y0089774D03*
X0238281Y0089774D03*
X0238281Y0067726D03*
X0225219Y0067726D03*
X0327219Y0067726D03*
X0327219Y0089774D03*
D13*
X0312750Y0084656D03*
X0312750Y0080719D03*
X0312750Y0076781D03*
X0312750Y0072844D03*
X0252750Y0072844D03*
X0252750Y0076781D03*
X0252750Y0080719D03*
X0252750Y0084656D03*
X0210750Y0084656D03*
X0210750Y0080719D03*
X0210750Y0076781D03*
X0210750Y0072844D03*
X0150750Y0072844D03*
X0150750Y0076781D03*
X0150750Y0080719D03*
X0150750Y0084656D03*
X0108750Y0084656D03*
X0108750Y0080719D03*
X0108750Y0076781D03*
X0108750Y0072844D03*
X0048750Y0072844D03*
X0048750Y0076781D03*
X0048750Y0080719D03*
X0048750Y0084656D03*
X0048750Y0209844D03*
X0048750Y0213781D03*
X0048750Y0217719D03*
X0048750Y0221656D03*
X0108750Y0221656D03*
X0108750Y0217719D03*
X0108750Y0213781D03*
X0108750Y0209844D03*
X0150750Y0209844D03*
X0150750Y0213781D03*
X0150750Y0217719D03*
X0150750Y0221656D03*
X0210750Y0221656D03*
X0210750Y0217719D03*
X0210750Y0213781D03*
X0210750Y0209844D03*
X0252750Y0209844D03*
X0252750Y0213781D03*
X0252750Y0217719D03*
X0252750Y0221656D03*
X0312750Y0221656D03*
X0312750Y0217719D03*
X0312750Y0213781D03*
X0312750Y0209844D03*
X0312750Y0346844D03*
X0312750Y0350781D03*
X0312750Y0354719D03*
X0312750Y0358656D03*
X0252750Y0358656D03*
X0252750Y0354719D03*
X0252750Y0350781D03*
X0252750Y0346844D03*
X0210750Y0346844D03*
X0210750Y0350781D03*
X0210750Y0354719D03*
X0210750Y0358656D03*
X0150750Y0358656D03*
X0150750Y0354719D03*
X0150750Y0350781D03*
X0150750Y0346844D03*
X0108750Y0346844D03*
X0108750Y0350781D03*
X0108750Y0354719D03*
X0108750Y0358656D03*
X0048750Y0358656D03*
X0048750Y0354719D03*
X0048750Y0350781D03*
X0048750Y0346844D03*
D14*
X0038750Y0038750D03*
X0038750Y0118750D03*
X0038750Y0175750D03*
X0038750Y0255750D03*
X0038750Y0312750D03*
X0038750Y0392750D03*
X0118750Y0392750D03*
X0140750Y0392750D03*
X0140750Y0312750D03*
X0118750Y0312750D03*
X0118750Y0255750D03*
X0140750Y0255750D03*
X0140750Y0175750D03*
X0118750Y0175750D03*
X0118750Y0118750D03*
X0140750Y0118750D03*
X0140750Y0038750D03*
X0118750Y0038750D03*
X0220750Y0038750D03*
X0242750Y0038750D03*
X0242750Y0118750D03*
X0220750Y0118750D03*
X0220750Y0175750D03*
X0242750Y0175750D03*
X0242750Y0255750D03*
X0220750Y0255750D03*
X0220750Y0312750D03*
X0242750Y0312750D03*
X0242750Y0392750D03*
X0220750Y0392750D03*
X0322750Y0392750D03*
X0322750Y0312750D03*
X0322750Y0255750D03*
X0322750Y0175750D03*
X0322750Y0118750D03*
X0322750Y0038750D03*
D15*
X0252750Y0033750D03*
X0150750Y0033750D03*
X0048750Y0033750D03*
X0123750Y0158750D03*
X0150750Y0170750D03*
X0225750Y0158750D03*
X0252750Y0170750D03*
X0327750Y0158750D03*
X0327750Y0295750D03*
X0252750Y0307750D03*
X0225750Y0295750D03*
X0150750Y0307750D03*
X0123750Y0295750D03*
X0048750Y0307750D03*
X0123750Y0432750D03*
X0225750Y0432750D03*
X0327750Y0432750D03*
X0048750Y0170750D03*
D16*
X0058750Y0158750D03*
X0068750Y0158750D03*
X0078750Y0158750D03*
X0088750Y0158750D03*
X0098750Y0158750D03*
X0160750Y0158750D03*
X0170750Y0158750D03*
X0180750Y0158750D03*
X0190750Y0158750D03*
X0200750Y0158750D03*
X0262750Y0158750D03*
X0272750Y0158750D03*
X0282750Y0158750D03*
X0292750Y0158750D03*
X0302750Y0158750D03*
X0302750Y0295750D03*
X0292750Y0295750D03*
X0282750Y0295750D03*
X0272750Y0295750D03*
X0262750Y0295750D03*
X0200750Y0295750D03*
X0190750Y0295750D03*
X0180750Y0295750D03*
X0170750Y0295750D03*
X0160750Y0295750D03*
X0098750Y0295750D03*
X0088750Y0295750D03*
X0078750Y0295750D03*
X0068750Y0295750D03*
X0058750Y0295750D03*
X0058750Y0432750D03*
X0068750Y0432750D03*
X0078750Y0432750D03*
X0088750Y0432750D03*
X0098750Y0432750D03*
X0160750Y0432750D03*
X0170750Y0432750D03*
X0180750Y0432750D03*
X0190750Y0432750D03*
X0200750Y0432750D03*
X0262750Y0432750D03*
X0272750Y0432750D03*
X0282750Y0432750D03*
X0292750Y0432750D03*
X0302750Y0432750D03*
D17*
X0291411Y0331136D03*
X0289443Y0331136D03*
X0287474Y0331136D03*
X0285506Y0331136D03*
X0283537Y0331136D03*
X0281569Y0331136D03*
X0279600Y0331136D03*
X0277632Y0331136D03*
X0275663Y0331136D03*
X0273695Y0331136D03*
X0189411Y0331136D03*
X0187443Y0331136D03*
X0185474Y0331136D03*
X0183506Y0331136D03*
X0181537Y0331136D03*
X0179569Y0331136D03*
X0177600Y0331136D03*
X0175632Y0331136D03*
X0173663Y0331136D03*
X0171695Y0331136D03*
X0087411Y0331136D03*
X0085443Y0331136D03*
X0083474Y0331136D03*
X0081506Y0331136D03*
X0079537Y0331136D03*
X0077569Y0331136D03*
X0075600Y0331136D03*
X0073632Y0331136D03*
X0071663Y0331136D03*
X0069695Y0331136D03*
X0069695Y0194136D03*
X0071663Y0194136D03*
X0073632Y0194136D03*
X0075600Y0194136D03*
X0077569Y0194136D03*
X0079537Y0194136D03*
X0081506Y0194136D03*
X0083474Y0194136D03*
X0085443Y0194136D03*
X0087411Y0194136D03*
X0171695Y0194136D03*
X0173663Y0194136D03*
X0175632Y0194136D03*
X0177600Y0194136D03*
X0179569Y0194136D03*
X0181537Y0194136D03*
X0183506Y0194136D03*
X0185474Y0194136D03*
X0187443Y0194136D03*
X0189411Y0194136D03*
X0273695Y0194136D03*
X0275663Y0194136D03*
X0277632Y0194136D03*
X0279600Y0194136D03*
X0281569Y0194136D03*
X0283537Y0194136D03*
X0285506Y0194136D03*
X0287474Y0194136D03*
X0289443Y0194136D03*
X0291411Y0194136D03*
X0291411Y0057136D03*
X0289443Y0057136D03*
X0287474Y0057136D03*
X0285506Y0057136D03*
X0283537Y0057136D03*
X0281569Y0057136D03*
X0279600Y0057136D03*
X0277632Y0057136D03*
X0275663Y0057136D03*
X0273695Y0057136D03*
X0189411Y0057136D03*
X0187443Y0057136D03*
X0185474Y0057136D03*
X0183506Y0057136D03*
X0181537Y0057136D03*
X0179569Y0057136D03*
X0177600Y0057136D03*
X0175632Y0057136D03*
X0173663Y0057136D03*
X0171695Y0057136D03*
X0087411Y0057136D03*
X0085443Y0057136D03*
X0083474Y0057136D03*
X0081506Y0057136D03*
X0079537Y0057136D03*
X0077569Y0057136D03*
X0075600Y0057136D03*
X0073632Y0057136D03*
X0071663Y0057136D03*
X0069695Y0057136D03*
D18*
X0061427Y0034695D03*
X0095679Y0034695D03*
X0163427Y0034695D03*
X0197679Y0034695D03*
X0265427Y0034695D03*
X0299679Y0034695D03*
X0299679Y0171695D03*
X0265427Y0171695D03*
X0197679Y0171695D03*
X0163427Y0171695D03*
X0095679Y0171695D03*
X0061427Y0171695D03*
X0061427Y0308695D03*
X0095679Y0308695D03*
X0163427Y0308695D03*
X0197679Y0308695D03*
X0265427Y0308695D03*
X0299679Y0308695D03*
D19*
X0245038Y0373396D02*
X0241722Y0373396D01*
X0245038Y0373396D02*
X0245038Y0370080D01*
X0241722Y0370080D01*
X0241722Y0373396D01*
X0241722Y0371500D02*
X0245038Y0371500D01*
X0245038Y0372920D02*
X0241722Y0372920D01*
X0241722Y0380302D02*
X0245038Y0380302D01*
X0245038Y0376986D01*
X0241722Y0376986D01*
X0241722Y0380302D01*
X0241722Y0378406D02*
X0245038Y0378406D01*
X0245038Y0379826D02*
X0241722Y0379826D01*
X0143038Y0380302D02*
X0139722Y0380302D01*
X0143038Y0380302D02*
X0143038Y0376986D01*
X0139722Y0376986D01*
X0139722Y0380302D01*
X0139722Y0378406D02*
X0143038Y0378406D01*
X0143038Y0379826D02*
X0139722Y0379826D01*
X0139722Y0373396D02*
X0143038Y0373396D01*
X0143038Y0370080D01*
X0139722Y0370080D01*
X0139722Y0373396D01*
X0139722Y0371500D02*
X0143038Y0371500D01*
X0143038Y0372920D02*
X0139722Y0372920D01*
X0041038Y0373396D02*
X0037722Y0373396D01*
X0041038Y0373396D02*
X0041038Y0370080D01*
X0037722Y0370080D01*
X0037722Y0373396D01*
X0037722Y0371500D02*
X0041038Y0371500D01*
X0041038Y0372920D02*
X0037722Y0372920D01*
X0037722Y0380302D02*
X0041038Y0380302D01*
X0041038Y0376986D01*
X0037722Y0376986D01*
X0037722Y0380302D01*
X0037722Y0378406D02*
X0041038Y0378406D01*
X0041038Y0379826D02*
X0037722Y0379826D01*
X0037722Y0243302D02*
X0041038Y0243302D01*
X0041038Y0239986D01*
X0037722Y0239986D01*
X0037722Y0243302D01*
X0037722Y0241406D02*
X0041038Y0241406D01*
X0041038Y0242826D02*
X0037722Y0242826D01*
X0037722Y0236396D02*
X0041038Y0236396D01*
X0041038Y0233080D01*
X0037722Y0233080D01*
X0037722Y0236396D01*
X0037722Y0234500D02*
X0041038Y0234500D01*
X0041038Y0235920D02*
X0037722Y0235920D01*
X0139722Y0236396D02*
X0143038Y0236396D01*
X0143038Y0233080D01*
X0139722Y0233080D01*
X0139722Y0236396D01*
X0139722Y0234500D02*
X0143038Y0234500D01*
X0143038Y0235920D02*
X0139722Y0235920D01*
X0139722Y0243302D02*
X0143038Y0243302D01*
X0143038Y0239986D01*
X0139722Y0239986D01*
X0139722Y0243302D01*
X0139722Y0241406D02*
X0143038Y0241406D01*
X0143038Y0242826D02*
X0139722Y0242826D01*
X0241722Y0243302D02*
X0245038Y0243302D01*
X0245038Y0239986D01*
X0241722Y0239986D01*
X0241722Y0243302D01*
X0241722Y0241406D02*
X0245038Y0241406D01*
X0245038Y0242826D02*
X0241722Y0242826D01*
X0241722Y0236396D02*
X0245038Y0236396D01*
X0245038Y0233080D01*
X0241722Y0233080D01*
X0241722Y0236396D01*
X0241722Y0234500D02*
X0245038Y0234500D01*
X0245038Y0235920D02*
X0241722Y0235920D01*
X0241722Y0106302D02*
X0245038Y0106302D01*
X0245038Y0102986D01*
X0241722Y0102986D01*
X0241722Y0106302D01*
X0241722Y0104406D02*
X0245038Y0104406D01*
X0245038Y0105826D02*
X0241722Y0105826D01*
X0241722Y0099396D02*
X0245038Y0099396D01*
X0245038Y0096080D01*
X0241722Y0096080D01*
X0241722Y0099396D01*
X0241722Y0097500D02*
X0245038Y0097500D01*
X0245038Y0098920D02*
X0241722Y0098920D01*
X0143038Y0099396D02*
X0139722Y0099396D01*
X0143038Y0099396D02*
X0143038Y0096080D01*
X0139722Y0096080D01*
X0139722Y0099396D01*
X0139722Y0097500D02*
X0143038Y0097500D01*
X0143038Y0098920D02*
X0139722Y0098920D01*
X0139722Y0106302D02*
X0143038Y0106302D01*
X0143038Y0102986D01*
X0139722Y0102986D01*
X0139722Y0106302D01*
X0139722Y0104406D02*
X0143038Y0104406D01*
X0143038Y0105826D02*
X0139722Y0105826D01*
X0041038Y0106302D02*
X0037722Y0106302D01*
X0041038Y0106302D02*
X0041038Y0102986D01*
X0037722Y0102986D01*
X0037722Y0106302D01*
X0037722Y0104406D02*
X0041038Y0104406D01*
X0041038Y0105826D02*
X0037722Y0105826D01*
X0037722Y0099396D02*
X0041038Y0099396D01*
X0041038Y0096080D01*
X0037722Y0096080D01*
X0037722Y0099396D01*
X0037722Y0097500D02*
X0041038Y0097500D01*
X0041038Y0098920D02*
X0037722Y0098920D01*
D20*
X0075010Y0123631D03*
X0082490Y0123631D03*
X0082490Y0133869D03*
X0078750Y0133869D03*
X0075010Y0133869D03*
X0177010Y0133869D03*
X0180750Y0133869D03*
X0184490Y0133869D03*
X0184490Y0123631D03*
X0177010Y0123631D03*
X0279010Y0123631D03*
X0286490Y0123631D03*
X0286490Y0133869D03*
X0282750Y0133869D03*
X0279010Y0133869D03*
X0279010Y0260631D03*
X0286490Y0260631D03*
X0286490Y0270869D03*
X0282750Y0270869D03*
X0279010Y0270869D03*
X0184490Y0270869D03*
X0180750Y0270869D03*
X0177010Y0270869D03*
X0177010Y0260631D03*
X0184490Y0260631D03*
X0082490Y0260631D03*
X0075010Y0260631D03*
X0075010Y0270869D03*
X0078750Y0270869D03*
X0082490Y0270869D03*
X0082490Y0397631D03*
X0075010Y0397631D03*
X0075010Y0407869D03*
X0078750Y0407869D03*
X0082490Y0407869D03*
X0177010Y0407869D03*
X0180750Y0407869D03*
X0184490Y0407869D03*
X0184490Y0397631D03*
X0177010Y0397631D03*
X0279010Y0397631D03*
X0286490Y0397631D03*
X0286490Y0407869D03*
X0282750Y0407869D03*
X0279010Y0407869D03*
D21*
X0279207Y0387750D03*
X0286293Y0387750D03*
X0184293Y0387750D03*
X0177207Y0387750D03*
X0082293Y0387750D03*
X0075207Y0387750D03*
X0075207Y0250750D03*
X0082293Y0250750D03*
X0177207Y0250750D03*
X0184293Y0250750D03*
X0279207Y0250750D03*
X0286293Y0250750D03*
X0286293Y0113750D03*
X0279207Y0113750D03*
X0184293Y0113750D03*
X0177207Y0113750D03*
X0082293Y0113750D03*
X0075207Y0113750D03*
D22*
X0094222Y0113750D03*
X0103278Y0113750D03*
X0196222Y0113750D03*
X0205278Y0113750D03*
X0298222Y0113750D03*
X0307278Y0113750D03*
X0307278Y0250750D03*
X0298222Y0250750D03*
X0205278Y0250750D03*
X0196222Y0250750D03*
X0103278Y0250750D03*
X0094222Y0250750D03*
X0094222Y0387750D03*
X0103278Y0387750D03*
X0196222Y0387750D03*
X0205278Y0387750D03*
X0298222Y0387750D03*
X0307278Y0387750D03*
D23*
X0302750Y0398419D03*
X0302750Y0407081D03*
X0200750Y0407081D03*
X0200750Y0398419D03*
X0098750Y0398419D03*
X0098750Y0407081D03*
X0098750Y0270081D03*
X0098750Y0261419D03*
X0200750Y0261419D03*
X0200750Y0270081D03*
X0302750Y0270081D03*
X0302750Y0261419D03*
X0302750Y0133081D03*
X0302750Y0124419D03*
X0200750Y0124419D03*
X0200750Y0133081D03*
X0098750Y0133081D03*
X0098750Y0124419D03*
D24*
X0055750Y0446000D03*
X0305750Y0446000D03*
D25*
X0052185Y0020500D02*
X0052187Y0020619D01*
X0052193Y0020738D01*
X0052203Y0020857D01*
X0052217Y0020975D01*
X0052235Y0021093D01*
X0052256Y0021210D01*
X0052282Y0021326D01*
X0052312Y0021442D01*
X0052345Y0021556D01*
X0052382Y0021669D01*
X0052423Y0021781D01*
X0052468Y0021892D01*
X0052516Y0022001D01*
X0052568Y0022108D01*
X0052624Y0022213D01*
X0052683Y0022317D01*
X0052745Y0022418D01*
X0052811Y0022518D01*
X0052880Y0022615D01*
X0052952Y0022709D01*
X0053028Y0022802D01*
X0053106Y0022891D01*
X0053187Y0022978D01*
X0053272Y0023063D01*
X0053359Y0023144D01*
X0053448Y0023222D01*
X0053541Y0023298D01*
X0053635Y0023370D01*
X0053732Y0023439D01*
X0053832Y0023505D01*
X0053933Y0023567D01*
X0054037Y0023626D01*
X0054142Y0023682D01*
X0054249Y0023734D01*
X0054358Y0023782D01*
X0054469Y0023827D01*
X0054581Y0023868D01*
X0054694Y0023905D01*
X0054808Y0023938D01*
X0054924Y0023968D01*
X0055040Y0023994D01*
X0055157Y0024015D01*
X0055275Y0024033D01*
X0055393Y0024047D01*
X0055512Y0024057D01*
X0055631Y0024063D01*
X0055750Y0024065D01*
X0055869Y0024063D01*
X0055988Y0024057D01*
X0056107Y0024047D01*
X0056225Y0024033D01*
X0056343Y0024015D01*
X0056460Y0023994D01*
X0056576Y0023968D01*
X0056692Y0023938D01*
X0056806Y0023905D01*
X0056919Y0023868D01*
X0057031Y0023827D01*
X0057142Y0023782D01*
X0057251Y0023734D01*
X0057358Y0023682D01*
X0057463Y0023626D01*
X0057567Y0023567D01*
X0057668Y0023505D01*
X0057768Y0023439D01*
X0057865Y0023370D01*
X0057959Y0023298D01*
X0058052Y0023222D01*
X0058141Y0023144D01*
X0058228Y0023063D01*
X0058313Y0022978D01*
X0058394Y0022891D01*
X0058472Y0022802D01*
X0058548Y0022709D01*
X0058620Y0022615D01*
X0058689Y0022518D01*
X0058755Y0022418D01*
X0058817Y0022317D01*
X0058876Y0022213D01*
X0058932Y0022108D01*
X0058984Y0022001D01*
X0059032Y0021892D01*
X0059077Y0021781D01*
X0059118Y0021669D01*
X0059155Y0021556D01*
X0059188Y0021442D01*
X0059218Y0021326D01*
X0059244Y0021210D01*
X0059265Y0021093D01*
X0059283Y0020975D01*
X0059297Y0020857D01*
X0059307Y0020738D01*
X0059313Y0020619D01*
X0059315Y0020500D01*
X0059313Y0020381D01*
X0059307Y0020262D01*
X0059297Y0020143D01*
X0059283Y0020025D01*
X0059265Y0019907D01*
X0059244Y0019790D01*
X0059218Y0019674D01*
X0059188Y0019558D01*
X0059155Y0019444D01*
X0059118Y0019331D01*
X0059077Y0019219D01*
X0059032Y0019108D01*
X0058984Y0018999D01*
X0058932Y0018892D01*
X0058876Y0018787D01*
X0058817Y0018683D01*
X0058755Y0018582D01*
X0058689Y0018482D01*
X0058620Y0018385D01*
X0058548Y0018291D01*
X0058472Y0018198D01*
X0058394Y0018109D01*
X0058313Y0018022D01*
X0058228Y0017937D01*
X0058141Y0017856D01*
X0058052Y0017778D01*
X0057959Y0017702D01*
X0057865Y0017630D01*
X0057768Y0017561D01*
X0057668Y0017495D01*
X0057567Y0017433D01*
X0057463Y0017374D01*
X0057358Y0017318D01*
X0057251Y0017266D01*
X0057142Y0017218D01*
X0057031Y0017173D01*
X0056919Y0017132D01*
X0056806Y0017095D01*
X0056692Y0017062D01*
X0056576Y0017032D01*
X0056460Y0017006D01*
X0056343Y0016985D01*
X0056225Y0016967D01*
X0056107Y0016953D01*
X0055988Y0016943D01*
X0055869Y0016937D01*
X0055750Y0016935D01*
X0055631Y0016937D01*
X0055512Y0016943D01*
X0055393Y0016953D01*
X0055275Y0016967D01*
X0055157Y0016985D01*
X0055040Y0017006D01*
X0054924Y0017032D01*
X0054808Y0017062D01*
X0054694Y0017095D01*
X0054581Y0017132D01*
X0054469Y0017173D01*
X0054358Y0017218D01*
X0054249Y0017266D01*
X0054142Y0017318D01*
X0054037Y0017374D01*
X0053933Y0017433D01*
X0053832Y0017495D01*
X0053732Y0017561D01*
X0053635Y0017630D01*
X0053541Y0017702D01*
X0053448Y0017778D01*
X0053359Y0017856D01*
X0053272Y0017937D01*
X0053187Y0018022D01*
X0053106Y0018109D01*
X0053028Y0018198D01*
X0052952Y0018291D01*
X0052880Y0018385D01*
X0052811Y0018482D01*
X0052745Y0018582D01*
X0052683Y0018683D01*
X0052624Y0018787D01*
X0052568Y0018892D01*
X0052516Y0018999D01*
X0052468Y0019108D01*
X0052423Y0019219D01*
X0052382Y0019331D01*
X0052345Y0019444D01*
X0052312Y0019558D01*
X0052282Y0019674D01*
X0052256Y0019790D01*
X0052235Y0019907D01*
X0052217Y0020025D01*
X0052203Y0020143D01*
X0052193Y0020262D01*
X0052187Y0020381D01*
X0052185Y0020500D01*
D26*
X0055750Y0020500D03*
M02*
