G75*
%MOIN*%
%OFA0B0*%
%FSLAX25Y25*%
%IPPOS*%
%LPD*%
%AMOC8*
5,1,8,0,0,1.08239X$1,22.5*
%
%ADD10R,0.05800X0.03300*%
%ADD11C,0.00500*%
%ADD12C,0.13800*%
%ADD13C,0.08200*%
D10*
X0121250Y0059750D03*
X0121250Y0063750D03*
X0121250Y0067750D03*
X0223250Y0067750D03*
X0223250Y0063750D03*
X0223250Y0059750D03*
X0325250Y0059750D03*
X0325250Y0063750D03*
X0325250Y0067750D03*
X0325250Y0196750D03*
X0325250Y0200750D03*
X0325250Y0204750D03*
X0223250Y0204750D03*
X0223250Y0200750D03*
X0223250Y0196750D03*
X0121250Y0196750D03*
X0121250Y0200750D03*
X0121250Y0204750D03*
X0121250Y0333750D03*
X0121250Y0337750D03*
X0121250Y0341750D03*
X0223250Y0341750D03*
X0223250Y0337750D03*
X0223250Y0333750D03*
X0325250Y0333750D03*
X0325250Y0337750D03*
X0325250Y0341750D03*
D11*
X0325750Y0340500D02*
X0324750Y0340500D01*
X0324750Y0339000D01*
X0325750Y0339000D01*
X0325750Y0340500D01*
X0325750Y0340320D02*
X0324750Y0340320D01*
X0324750Y0339821D02*
X0325750Y0339821D01*
X0325750Y0339323D02*
X0324750Y0339323D01*
X0324750Y0336500D02*
X0325750Y0336500D01*
X0325750Y0335000D01*
X0324750Y0335000D01*
X0324750Y0336500D01*
X0324750Y0336331D02*
X0325750Y0336331D01*
X0325750Y0335833D02*
X0324750Y0335833D01*
X0324750Y0335334D02*
X0325750Y0335334D01*
X0223750Y0335334D02*
X0222750Y0335334D01*
X0222750Y0335000D02*
X0223750Y0335000D01*
X0223750Y0336500D01*
X0222750Y0336500D01*
X0222750Y0335000D01*
X0222750Y0335833D02*
X0223750Y0335833D01*
X0223750Y0336331D02*
X0222750Y0336331D01*
X0222750Y0339000D02*
X0223750Y0339000D01*
X0223750Y0340500D01*
X0222750Y0340500D01*
X0222750Y0339000D01*
X0222750Y0339323D02*
X0223750Y0339323D01*
X0223750Y0339821D02*
X0222750Y0339821D01*
X0222750Y0340320D02*
X0223750Y0340320D01*
X0121750Y0340320D02*
X0120750Y0340320D01*
X0120750Y0340500D02*
X0121750Y0340500D01*
X0121750Y0339000D01*
X0120750Y0339000D01*
X0120750Y0340500D01*
X0120750Y0339821D02*
X0121750Y0339821D01*
X0121750Y0339323D02*
X0120750Y0339323D01*
X0120750Y0336500D02*
X0121750Y0336500D01*
X0121750Y0335000D01*
X0120750Y0335000D01*
X0120750Y0336500D01*
X0120750Y0336331D02*
X0121750Y0336331D01*
X0121750Y0335833D02*
X0120750Y0335833D01*
X0120750Y0335334D02*
X0121750Y0335334D01*
X0121750Y0203500D02*
X0120750Y0203500D01*
X0120750Y0202000D01*
X0121750Y0202000D01*
X0121750Y0203500D01*
X0121750Y0203229D02*
X0120750Y0203229D01*
X0120750Y0202730D02*
X0121750Y0202730D01*
X0121750Y0202232D02*
X0120750Y0202232D01*
X0120750Y0199500D02*
X0121750Y0199500D01*
X0121750Y0198000D01*
X0120750Y0198000D01*
X0120750Y0199500D01*
X0120750Y0199241D02*
X0121750Y0199241D01*
X0121750Y0198742D02*
X0120750Y0198742D01*
X0120750Y0198244D02*
X0121750Y0198244D01*
X0222750Y0198244D02*
X0223750Y0198244D01*
X0223750Y0198000D02*
X0223750Y0199500D01*
X0222750Y0199500D01*
X0222750Y0198000D01*
X0223750Y0198000D01*
X0223750Y0198742D02*
X0222750Y0198742D01*
X0222750Y0199241D02*
X0223750Y0199241D01*
X0223750Y0202000D02*
X0223750Y0203500D01*
X0222750Y0203500D01*
X0222750Y0202000D01*
X0223750Y0202000D01*
X0223750Y0202232D02*
X0222750Y0202232D01*
X0222750Y0202730D02*
X0223750Y0202730D01*
X0223750Y0203229D02*
X0222750Y0203229D01*
X0324750Y0203229D02*
X0325750Y0203229D01*
X0325750Y0203500D02*
X0324750Y0203500D01*
X0324750Y0202000D01*
X0325750Y0202000D01*
X0325750Y0203500D01*
X0325750Y0202730D02*
X0324750Y0202730D01*
X0324750Y0202232D02*
X0325750Y0202232D01*
X0325750Y0199500D02*
X0324750Y0199500D01*
X0324750Y0198000D01*
X0325750Y0198000D01*
X0325750Y0199500D01*
X0325750Y0199241D02*
X0324750Y0199241D01*
X0324750Y0198742D02*
X0325750Y0198742D01*
X0325750Y0198244D02*
X0324750Y0198244D01*
X0324750Y0066500D02*
X0325750Y0066500D01*
X0325750Y0065000D01*
X0324750Y0065000D01*
X0324750Y0066500D01*
X0324750Y0066138D02*
X0325750Y0066138D01*
X0325750Y0065640D02*
X0324750Y0065640D01*
X0324750Y0065141D02*
X0325750Y0065141D01*
X0325750Y0062500D02*
X0324750Y0062500D01*
X0324750Y0061000D01*
X0325750Y0061000D01*
X0325750Y0062500D01*
X0325750Y0062150D02*
X0324750Y0062150D01*
X0324750Y0061652D02*
X0325750Y0061652D01*
X0325750Y0061153D02*
X0324750Y0061153D01*
X0223750Y0061153D02*
X0222750Y0061153D01*
X0222750Y0061000D02*
X0223750Y0061000D01*
X0223750Y0062500D01*
X0222750Y0062500D01*
X0222750Y0061000D01*
X0222750Y0061652D02*
X0223750Y0061652D01*
X0223750Y0062150D02*
X0222750Y0062150D01*
X0222750Y0065000D02*
X0223750Y0065000D01*
X0223750Y0066500D01*
X0222750Y0066500D01*
X0222750Y0065000D01*
X0222750Y0065141D02*
X0223750Y0065141D01*
X0223750Y0065640D02*
X0222750Y0065640D01*
X0222750Y0066138D02*
X0223750Y0066138D01*
X0121750Y0066138D02*
X0120750Y0066138D01*
X0120750Y0066500D02*
X0121750Y0066500D01*
X0121750Y0065000D01*
X0120750Y0065000D01*
X0120750Y0066500D01*
X0120750Y0065640D02*
X0121750Y0065640D01*
X0121750Y0065141D02*
X0120750Y0065141D01*
X0120750Y0062500D02*
X0121750Y0062500D01*
X0121750Y0061000D01*
X0120750Y0061000D01*
X0120750Y0062500D01*
X0120750Y0062150D02*
X0121750Y0062150D01*
X0121750Y0061652D02*
X0120750Y0061652D01*
X0120750Y0061153D02*
X0121750Y0061153D01*
D12*
X0038750Y0038750D03*
X0038750Y0118750D03*
X0038750Y0175750D03*
X0038750Y0255750D03*
X0038750Y0312750D03*
X0038750Y0392750D03*
X0118750Y0392750D03*
X0140750Y0392750D03*
X0140750Y0312750D03*
X0118750Y0312750D03*
X0118750Y0255750D03*
X0140750Y0255750D03*
X0140750Y0175750D03*
X0118750Y0175750D03*
X0118750Y0118750D03*
X0140750Y0118750D03*
X0140750Y0038750D03*
X0118750Y0038750D03*
X0220750Y0038750D03*
X0242750Y0038750D03*
X0242750Y0118750D03*
X0220750Y0118750D03*
X0220750Y0175750D03*
X0242750Y0175750D03*
X0242750Y0255750D03*
X0220750Y0255750D03*
X0220750Y0312750D03*
X0242750Y0312750D03*
X0242750Y0392750D03*
X0220750Y0392750D03*
X0322750Y0392750D03*
X0322750Y0312750D03*
X0322750Y0255750D03*
X0322750Y0175750D03*
X0322750Y0118750D03*
X0322750Y0038750D03*
D13*
X0302750Y0158750D03*
X0292750Y0158750D03*
X0282750Y0158750D03*
X0272750Y0158750D03*
X0262750Y0158750D03*
X0200750Y0158750D03*
X0190750Y0158750D03*
X0180750Y0158750D03*
X0170750Y0158750D03*
X0160750Y0158750D03*
X0098750Y0158750D03*
X0088750Y0158750D03*
X0078750Y0158750D03*
X0068750Y0158750D03*
X0058750Y0158750D03*
X0058750Y0295750D03*
X0068750Y0295750D03*
X0078750Y0295750D03*
X0088750Y0295750D03*
X0098750Y0295750D03*
X0160750Y0295750D03*
X0170750Y0295750D03*
X0180750Y0295750D03*
X0190750Y0295750D03*
X0200750Y0295750D03*
X0262750Y0295750D03*
X0272750Y0295750D03*
X0282750Y0295750D03*
X0292750Y0295750D03*
X0302750Y0295750D03*
X0302750Y0432750D03*
X0292750Y0432750D03*
X0282750Y0432750D03*
X0272750Y0432750D03*
X0262750Y0432750D03*
X0200750Y0432750D03*
X0190750Y0432750D03*
X0180750Y0432750D03*
X0170750Y0432750D03*
X0160750Y0432750D03*
X0098750Y0432750D03*
X0088750Y0432750D03*
X0078750Y0432750D03*
X0068750Y0432750D03*
X0058750Y0432750D03*
M02*
